<?xml version="1.0" encoding="UTF-8" standalone="no"?>
<svg
   xmlns:dc="http://purl.org/dc/elements/1.1/"
   xmlns:cc="http://creativecommons.org/ns#"
   xmlns:rdf="http://www.w3.org/1999/02/22-rdf-syntax-ns#"
   xmlns:svg="http://www.w3.org/2000/svg"
   xmlns="http://www.w3.org/2000/svg"
   viewBox="0 0 615.33331 445.33334"
   height="445.33334"
   width="615.33331"
   xml:space="preserve"
   id="svg2"
   version="1.1"><metadata
     id="metadata8"><rdf:RDF><cc:Work
         rdf:about=""><dc:format>image/svg+xml</dc:format><dc:type
           rdf:resource="http://purl.org/dc/dcmitype/StillImage" /></cc:Work></rdf:RDF></metadata><defs
     id="defs6"><clipPath
       id="clipPath18"
       clipPathUnits="userSpaceOnUse"><path
         id="path16"
         d="M 0,334 H 461.5 V 0 H 0 Z" /></clipPath></defs><g
     transform="matrix(1.3333333,0,0,-1.3333333,0,445.33333)"
     id="g10"><g
       id="g12"><g
         clip-path="url(#clipPath18)"
         id="g14"><g
           transform="translate(382.7412,152.5791)"
           id="g20"><path
             id="path22"
             style="fill:#005fa3;fill-opacity:1;fill-rule:nonzero;stroke:none"
             d="m 0,0 c -8.276,-2.745 -14.313,-4.865 -18.515,-6.387 -2.36,-6.115 -5.128,-12.264 -8.382,-18.467 -11.918,-22.722 -26.992,-39.675 -45.225,-50.854 -18.234,-11.19 -37.249,-16.78 -57.024,-16.78 -24.316,0 -43.931,7.083 -58.843,21.259 -13.519,12.841 -20.842,28.514 -22.109,46.958 -7.216,-4.695 -17.387,-11.43 -28.925,-19.451 -15.046,-10.458 -27.251,-19.677 -33.787,-24.716 1.26,-3.054 2.594,-6.106 4.095,-9.15 9.403,-19.108 25.37,-35.118 47.899,-48.04 22.536,-12.919 50.414,-19.381 83.647,-19.381 38.256,0 72.543,8.13 102.855,24.383 30.312,16.257 54.302,39.46 71.976,69.608 10.617,18.122 18.021,36.622 22.255,55.497 C 51.547,-3.828 40.029,-8.968 27.305,-8.968 17.08,-8.968 7.663,-5.613 0,0" /></g><g
           transform="translate(382.7412,152.5791)"
           id="g24"><path
             id="path26"
             style="fill:none;stroke:#ffffff;stroke-width:2.56100011;stroke-linecap:butt;stroke-linejoin:miter;stroke-miterlimit:4;stroke-dasharray:none;stroke-opacity:1"
             d="m 0,0 c -8.276,-2.745 -14.313,-4.865 -18.515,-6.387 -2.36,-6.115 -5.128,-12.264 -8.382,-18.467 -11.918,-22.722 -26.992,-39.675 -45.225,-50.854 -18.234,-11.19 -37.249,-16.78 -57.024,-16.78 -24.316,0 -43.931,7.083 -58.843,21.259 -13.519,12.841 -20.842,28.514 -22.109,46.958 -7.216,-4.695 -17.387,-11.43 -28.925,-19.451 -15.046,-10.458 -27.251,-19.677 -33.787,-24.716 1.26,-3.054 2.594,-6.106 4.095,-9.15 9.403,-19.108 25.37,-35.118 47.899,-48.04 22.536,-12.919 50.414,-19.381 83.647,-19.381 38.256,0 72.543,8.13 102.855,24.383 30.312,16.257 54.302,39.46 71.976,69.608 10.617,18.122 18.021,36.622 22.255,55.497 C 51.547,-3.828 40.029,-8.968 27.305,-8.968 17.08,-8.968 7.663,-5.613 0,0 Z" /></g><g
           transform="translate(184.9746,193.6045)"
           id="g28"><path
             id="path30"
             style="fill:#005fa3;fill-opacity:1;fill-rule:nonzero;stroke:none"
             d="m 0,0 c 5.336,11.978 12.352,23.543 21.089,34.682 22.449,28.619 51.587,42.929 87.408,42.929 23.343,0 42.551,-6.843 57.63,-20.525 10.284,-9.338 16.974,-21.143 20.241,-35.293 8.284,12.578 22.517,20.896 38.703,20.896 11.531,0 22.049,-4.238 30.159,-11.208 1.253,0.24 2.448,0.462 3.502,0.656 -5.457,24.893 -17.942,45.834 -37.53,62.775 -27.157,23.479 -62.778,35.223 -106.869,35.223 -32.907,0 -62.245,-5.735 -88.022,-17.194 C 0.541,101.477 -20.822,85.881 -37.755,66.15 -54.695,46.418 -67.3,23.144 -75.57,-3.67 c -6.323,-20.008 -9.484,-39.047 -9.484,-57.107 0,-1.541 0.08,-3.075 0.14,-4.616 5.829,5.416 17.14,15.321 37.615,31.32 C -22.622,-14.783 -6.896,-4.35 0,0" /></g><g
           transform="translate(184.9746,193.6045)"
           id="g32"><path
             id="path34"
             style="fill:none;stroke:#ffffff;stroke-width:2.56100011;stroke-linecap:butt;stroke-linejoin:miter;stroke-miterlimit:4;stroke-dasharray:none;stroke-opacity:1"
             d="m 0,0 c 5.336,11.978 12.352,23.543 21.089,34.682 22.449,28.619 51.587,42.929 87.408,42.929 23.343,0 42.551,-6.843 57.63,-20.525 10.284,-9.338 16.974,-21.143 20.241,-35.293 8.284,12.578 22.517,20.896 38.703,20.896 11.531,0 22.049,-4.238 30.159,-11.208 1.253,0.24 2.448,0.462 3.502,0.656 -5.457,24.893 -17.942,45.834 -37.53,62.775 -27.157,23.479 -62.778,35.223 -106.869,35.223 -32.907,0 -62.245,-5.735 -88.022,-17.194 C 0.541,101.477 -20.822,85.881 -37.755,66.15 -54.695,46.418 -67.3,23.144 -75.57,-3.67 c -6.323,-20.008 -9.484,-39.047 -9.484,-57.107 0,-1.541 0.08,-3.075 0.14,-4.616 5.829,5.416 17.14,15.321 37.615,31.32 C -22.622,-14.783 -6.896,-4.35 0,0 Z" /></g><g
           transform="translate(370.3691,166.1123)"
           id="g36"><path
             id="path38"
             style="fill:#faa21a;fill-opacity:1;fill-rule:nonzero;stroke:none"
             d="m 0,0 c -4.194,6.975 -6.655,15.114 -6.655,23.848 0,1.285 0.086,2.547 0.186,3.806 -2.488,-0.686 -4.955,-1.373 -7.356,-2.06 -32.66,-9.323 -57.116,-18.543 -70.109,-25.403 10.945,52.538 44.325,86.102 44.325,86.102 0,0 -63.653,-18.713 -142.878,-69.865 -3.081,-1.99 -6.196,-4.043 -9.324,-6.134 -24.983,-16.694 -51.28,-36.569 -77.464,-60.049 -1.34,-1.204 -2.681,-2.425 -4.021,-3.645 -30.92,-28.184 -61.565,-61.398 -89.56,-100.373 35.911,30.005 67.184,55.369 95.102,76.757 1.427,1.094 2.828,2.155 4.241,3.228 24.097,18.341 45.699,33.681 65.627,46.438 4.168,2.672 8.27,5.243 12.305,7.69 24.296,14.76 46.238,25.582 67.534,33.349 -16.787,-19.703 -41.957,-95.224 -41.957,-95.224 0,0 51.407,34.205 146.179,68.758 3.781,1.381 7.609,2.757 11.531,4.135 2.241,0.787 4.522,1.574 6.803,2.361 C 2.835,-4.323 1.341,-2.218 0,0" /></g><g
           transform="translate(370.3691,166.1123)"
           id="g40"><path
             id="path42"
             style="fill:none;stroke:#ffffff;stroke-width:2.56100011;stroke-linecap:butt;stroke-linejoin:miter;stroke-miterlimit:4;stroke-dasharray:none;stroke-opacity:1"
             d="m 0,0 c -4.194,6.975 -6.655,15.114 -6.655,23.848 0,1.285 0.086,2.547 0.186,3.806 -2.488,-0.686 -4.955,-1.373 -7.356,-2.06 -32.66,-9.323 -57.116,-18.543 -70.109,-25.403 10.945,52.538 44.325,86.102 44.325,86.102 0,0 -63.653,-18.713 -142.878,-69.865 -3.081,-1.99 -6.196,-4.043 -9.324,-6.134 -24.983,-16.694 -51.28,-36.569 -77.464,-60.049 -1.34,-1.204 -2.681,-2.425 -4.021,-3.645 -30.92,-28.184 -61.565,-61.398 -89.56,-100.373 35.911,30.005 67.184,55.369 95.102,76.757 1.427,1.094 2.828,2.155 4.241,3.228 24.097,18.341 45.699,33.681 65.627,46.438 4.168,2.672 8.27,5.243 12.305,7.69 24.296,14.76 46.238,25.582 67.534,33.349 -16.787,-19.703 -41.957,-95.224 -41.957,-95.224 0,0 51.407,34.205 146.179,68.758 3.781,1.381 7.609,2.757 11.531,4.135 2.241,0.787 4.522,1.574 6.803,2.361 C 2.835,-4.323 1.341,-2.218 0,0 Z" /></g><g
           transform="translate(410.0459,227.2188)"
           id="g44"><path
             id="path46"
             style="fill:#faa21a;fill-opacity:1;fill-rule:evenodd;stroke:none"
             d="m 0,0 c -20.575,0 -37.262,-16.685 -37.262,-37.261 0,-20.58 16.687,-37.269 37.262,-37.269 20.581,0 37.261,16.689 37.261,37.269 C 37.261,-16.685 20.581,0 0,0" /></g><g
           transform="translate(410.0459,227.2188)"
           id="g48"><path
             id="path50"
             style="fill:none;stroke:#ffffff;stroke-width:2.56100011;stroke-linecap:butt;stroke-linejoin:miter;stroke-miterlimit:4;stroke-dasharray:none;stroke-opacity:1"
             d="m 0,0 c -20.575,0 -37.262,-16.685 -37.262,-37.261 0,-20.58 16.687,-37.269 37.262,-37.269 20.581,0 37.261,16.689 37.261,37.269 C 37.261,-16.685 20.581,0 0,0 Z" /></g></g></g></g></svg>