<?xml version="1.0" encoding="utf-8"?>
<!-- Generator: Adobe Illustrator 21.1.0, SVG Export Plug-In . SVG Version: 6.00 Build 0)  -->
<svg version="1.1"
	 id="svg2" xmlns:cc="http://creativecommons.org/ns#" xmlns:dc="http://purl.org/dc/elements/1.1/" xmlns:rdf="http://www.w3.org/1999/02/22-rdf-syntax-ns#" xmlns:svg="http://www.w3.org/2000/svg"
	 xmlns="http://www.w3.org/2000/svg" xmlns:xlink="http://www.w3.org/1999/xlink" x="0px" y="0px" viewBox="0 0 258.5 258.5"
	 style="enable-background:new 0 0 258.5 258.5;" xml:space="preserve">
<style type="text/css">
	.st0{fill:#231F20;}
</style>
<g id="g10" transform="matrix(1.3333333,0,0,-1.3333333,0,333.33333)">
	<g id="g12" transform="scale(0.1)">
		<path id="path14" class="st0" d="M959.3,2492.4c-67.8,0-130.6-9.3-188.1-22.9c-57.1-13.5-109.5-32.1-157-54.5
			c-144.1-68-257.2-166.1-343-290.5c-28-40.6-53.9-86.8-75.4-136.1c-42.6-97.3-71.9-211.3-71.9-351.2c0-67.6,10-130.6,23.5-187.6
			c13.6-57.3,32-108.9,54.5-157c66.9-142.7,165.9-258.7,290-343.5c41.5-28.4,86.7-53.8,136.1-75.4c98.3-42.9,210.8-71.9,351.2-71.9
			c132.7,0,249.4,33.9,345.1,77.5c97.4,44.3,177.9,105,247.7,174.8c70.6,70.6,127.8,153.9,171.2,251.3
			c43.8,98,72.6,211.6,71.9,351.2c-0.7,133.7-33.7,248.8-77.5,345.1c-44.5,98-103.5,176.4-174.8,247.7
			c-70.1,70.1-152.8,127.5-251.3,171.3c-71.5,31.8-155.2,57.1-249.8,67.3c-31.5,3.4-69,6.1-101.4,4.6
			C959.9,2492.3,959.6,2492.4,959.3,2492.4L959.3,2492.4z M947.5,2500c14.6,0,29.2,0,43.8,0c0.1-0.4,0.4-0.6,1-0.5
			c154-3.9,281.1-40.2,389.9-91.7c163.8-77.6,290.6-189.9,389.4-332.8c32.8-47.5,62.3-99.9,86.1-154.9
			c49.1-113.4,81.1-242.2,81.1-401.1c0-77.7-11.1-149-26.5-214.1c-45.8-193.7-141.4-343.7-260.5-462.8
			c-80.5-80.5-174.6-146.1-285.4-196.2c-110.3-49.9-241.4-84.6-397.6-84.6c-156.1,0-286.8,35.2-397.1,84.6
			c-111.1,49.8-204.9,116.2-285.4,196.8c-79.5,79.5-148.2,172.7-198.3,283.4c-24.9,55-46.6,114-61.7,179.4
			C11.4,1370.6,0,1441.7,0,1519.8c0,158.1,31.7,287.7,81.6,400.1c49.3,111.1,114.4,208.2,194.2,288c80.7,80.7,172,148.9,281.3,200.3
			C666.1,2459.5,793.4,2495.3,947.5,2500"/>
		<path id="path16" class="st0" d="M956.9,2041.7c-53.6,36.7-110.6,74.7-165.8,111.8c-12.2,8.2-26.2,15.5-32.8,28.9
			c-5.5,11.2-2.5,27,3.9,34.7c6.9,8.4,22.9,14.4,34.7,19.3c38.9,16,85.4,24.1,136.4,26.5c41.8,2,80.9-2.8,120-7.7
			c26.3-3.3,55-8.4,80.9-14.9c8.8-2.2,18.5-4.7,21.7-10.1c2.5-4.2,4.4-18,3.4-25.5c-0.8-5.7-7.3-14.1-11.6-19.3
			c-9.8-12-18.8-21.2-29.9-31.3c-5.4-5-9.8-10.9-15-15.4c-10.5-9.1-23.9-16.3-36.1-24.6C1031.1,2089.8,993.1,2064.9,956.9,2041.7"/>
		<path id="path18" class="st0" d="M843.7,1587.7c4.7,13.7,1.4,35.4,1.4,55c0,30.6,1.3,61.2,1.9,92.5c0.3,15.2-0.4,31.5,2.4,44.8
			c2.9,13.5,10,26.7,14.9,38.1c13.6,31.1,26.7,59.1,41.4,90.6c2.5,5.4,8,13.6,8.2,17.8c0.2,5.6-7.3,16.2-10.1,21.2
			c-2.8,5.1-7.9,17.2-13,17.8c-5.8,0.8-13.4-7.2-17.4-10.6c-13.2-11.5-23.4-22-35.2-34.7c-1.9-2.1-4.5-5.5-7.7-5.3
			c0.3,3.6,3.3,6.4,5.3,9.2c14.9,20.3,29.8,41.4,46.3,61.2c15.7,18.9,36,35.1,62.2,45.8c3.8,1.6,8.5,3.8,11.1,3.8
			c4.6,0.2,10.8-3.8,15.4-5.8c13.8-5.9,31-12.8,41.9-20.7c9.1-6.6,17.3-19.3,25.1-29.9c21-28.4,43.5-60.8,62.2-90.1
			c-4.6,0.1-6.6,5.2-9.2,8.2c-16.5,19.2-32.5,38-49.6,58.3c-2.5,3-6.8,7.9-9.6,8.2c-5,0.5-10.9-5.6-14.5-9.2
			c-8.8-8.8-14.2-15.5-21.7-25.5c-2.8-3.7-8.6-10.3-9.2-14c-0.7-4.7,2.2-12.2,3.9-19.3c4.2-18.7,11.2-35.7,18.8-49.6
			c11.2-20.7,24-37.8,34.2-57.3c18.3-34.8,28.5-84.2,44-122.8c2.3-5.7,3.9-11.7,4.6-16.2c2.3-13.8,5.5-17.1,7.3-29.2
			c9.5,38.2,18.8,78.2,27.5,119c8.5,40,18.7,80.3,25.1,121.5c6.6,42.6,13.8,84.3,21.2,125.3c7.3,40.3,22.8,77.7,30.4,116.2
			c0.1,0.3,0,0.7,0,1c0.3,16.3-7.5,30.2-8.2,44.8c4.9-2.4,7.8-7.5,10.6-11.6c3-4.3,5.8-9,8.7-13.5c5.3-8.3,13-17.9,15.4-28.4
			c1.2-4.9-0.3-11.5,2.4-15.4c3.7-5.3,22.3-7.8,30.8-11.1c10.6-4.1,19.3-9.7,27-14.9c17.3-11.7,38.3-19.7,57.3-26.5
			c20.5-7.3,42.7-13.4,64.6-19.3c11.2-3,22.6-4.9,32.8-9.2c88.4-37.2,179.5-74.5,266-110.4c9.7-29.8,16.4-59.7,23.1-91.1
			c3.4-15.7,7.4-31.8,9.2-48.2c1.9-17,1.9-34.4,4.3-52.5c2.3-17.6,4.4-35.2,3.4-53c-1.1-18-2.9-35.6-2.9-54
			c0-17.4-3.4-34.5-5.8-51.6c-2.3-17.1-4.3-33.9-7.7-49.2c-14.1-63.5-31.8-120-55.9-172.5c-23.8-52-52.8-99.8-85.3-143.1
			c-98.5-131.4-230.5-223.2-405.8-279.5c-28.3-9.1-61.3-14.5-94.4-19.8c-33.5-5.3-68.4-10.6-103.6-10.6
			c-74.7,0-145.2,6.6-205.8,22.7c-240.4,64-406.3,202.1-508.5,405.3c-25.5,50.8-48.2,106.2-62.7,165.8
			c-7.3,30.3-11.7,63.1-17.4,96.9c-2.9,17.3-3.1,35.4-3.4,54c-0.1,8.7-1.5,17.4-2.4,26c-2.8,27.4,2,52.5,4.3,79.5
			c1.5,17.7,2.1,35.5,5.3,51.6c6.5,32.3,12.5,63.8,20.7,93c74.9,38.4,155.3,72.6,238.1,106.5c38.6,15.8,79.4,34.9,120.5,52.1
			c10.5,4.4,20.4,8.3,29.9,13.5c22.9,12.5,45.2,24.5,69.4,38.1c5,2.8,12.5,6.1,14,8.7c3.1,5.3,4.8,12.7,7.2,19.3
			c4.7,12.9,9.6,24.8,15.4,37.1c3.1,6.6,6,13.7,10.6,17.8c0.3,0,0.6,0,1,0c-2.7-13.5-5.7-25-4.8-37.6c0.8-11.6,5.8-23.3,9.2-34.2
			c3.3-10.9,6.9-22.1,10.1-33.3c3.3-11.2,7.1-22.3,9.6-33.2c5.6-24.1,8.6-49.2,12.5-73.7c3.9-24.5,7.9-49.1,12-74.2
			c7.7-47.3,22.8-92.9,33.7-139.3c8.2-34.9,17.2-68.9,26-103.6C836.9,1609.8,841.5,1599.1,843.7,1587.7"/>
	</g>
</g>
</svg>
