<?xml version="1.0" encoding="utf-8"?>
<!-- Generator: Adobe Illustrator 21.1.0, SVG Export Plug-In . SVG Version: 6.00 Build 0)  -->
<svg version="1.1"
	 id="svg2" xmlns:cc="http://creativecommons.org/ns#" xmlns:dc="http://purl.org/dc/elements/1.1/" xmlns:rdf="http://www.w3.org/1999/02/22-rdf-syntax-ns#" xmlns:svg="http://www.w3.org/2000/svg"
	 xmlns="http://www.w3.org/2000/svg" xmlns:xlink="http://www.w3.org/1999/xlink" x="0px" y="0px" viewBox="0 0 267.8 267.8"
	 style="enable-background:new 0 0 267.8 267.8;" xml:space="preserve">
<style type="text/css">
	.st0{fill:#231F20;}
</style>
<g id="g10" transform="matrix(1.3333333,0,0,-1.3333333,0,337.37333)">
	<g id="g12" transform="scale(0.1)">
		<path id="path14" class="st0" d="M993.7,2522.4c-70.3,0-135.3-9.7-194.8-23.8c-59.1-14-113.4-33.3-162.6-56.5
			c-149.3-70.4-266.5-172-355.4-301c-29-42.1-55.8-90-78.1-141c-44.1-100.9-74.5-218.9-74.5-363.8c0-70,10.3-135.2,24.3-194.3
			c14.1-59.4,33.2-112.9,56.5-162.6c69.3-147.9,171.9-268,300.4-355.9c43-29.4,89.8-55.8,141-78.1c101.8-44.5,218.4-74.5,363.8-74.5
			c137.5,0,258.4,35.1,357.5,80.2c100.8,45.9,184.2,108.7,256.6,181.1c73.1,73.1,132.3,159.4,177.4,260.3
			c45.3,101.5,75.2,219.2,74.4,363.8c-0.8,138.5-34.9,257.8-80.3,357.5c-46.1,101.5-107.2,182.7-181.1,256.6
			c-72.7,72.6-158.3,132-260.3,177.4c-74.1,32.9-160.7,59.2-258.7,69.7c-32.6,3.5-71.5,6.4-105.1,4.8
			C994.4,2522.4,994.1,2522.4,993.7,2522.4z M981.6,2530.3c15.1,0,30.3,0,45.4,0c0.1-0.4,0.4-0.6,1.1-0.5
			c159.6-4,291.2-41.6,403.9-95.1c169.7-80.4,301-196.7,403.4-344.8c34-49.2,64.5-103.4,89.2-160.5c50.9-117.5,84-250.9,84-415.5
			c0-80.4-11.5-154.4-27.5-221.8c-47.4-200.6-146.5-356.1-269.8-479.4c-83.3-83.3-180.9-151.3-295.7-203.3
			c-114.3-51.7-250.1-87.7-411.9-87.7c-161.7,0-297.1,36.4-411.3,87.7C477.4,661,380.1,729.8,296.7,813.2
			c-82.3,82.3-153.5,178.9-205.4,293.6c-25.8,56.9-48.2,118.1-63.9,185.8C11.8,1360.4,0,1434,0,1515c0,163.7,32.9,298,84.5,414.5
			c51.1,115.1,118.5,215.7,201.2,298.3c83.6,83.6,178.2,154.2,291.5,207.5C690.1,2488.4,821.9,2525.5,981.6,2530.3"/>
		<path id="path16" class="st0" d="M945.1,2139.1c-102.7-13.1-180-49.4-246.1-99.3c-64.2-48.4-117.1-113.1-152.1-192.2
			c-11.6-26.2-20.9-55-28.5-86.6c-7.6-31.6-14.3-65.6-14.3-100.3c0-38.5,2-73,8.4-105.6c9.7-48.9,23.6-90.9,42.8-129.9
			c6.4-13.1,11.9-26.5,18.5-39.1c65.3-124.8,148.6-237.2,229.7-344.3c-10.8-15.4-21.9-30.6-32.7-45.9c7.7-12.8,15.9-24.7,34.8-28
			c5.8-1,13.8-1.8,14.8-5.8c1.9-8-13-14.2-18.5-17.4c-15.9-9.3-33.6-13.9-57.6-13.2c-10.8,0.3-22.1,1.4-29,6.3
			c3.5,5.2,10,4,14.3,5.8c12,5.1,15.9,22.8,20.1,37.5c0.9,3.2,2.9,8.2,2.6,10c-0.5,3.4-12.9,12.5-17.9,16.9
			c-93.1,80.7-181,167.8-264,258.2c-58.9,64.2-118.5,138.7-170,213.3c-4.8,7-8.4,14.6-13.2,21.7c-38.5,56-66.2,118.7-77.6,200.6
			c-5.9,42.1-5.8,88.2,0.5,130.4c12.2,81.2,42.4,146.8,79.2,199.1c37.7,53.5,86.9,99.1,144.7,133.6c58.4,34.8,129,60.3,216,64.4
			c65.2,3.1,121.2-7.9,169-24.3C867.1,2188.5,909.6,2166.6,945.1,2139.1"/>
		<path id="path18" class="st0" d="M1256.1,991.7c1.7-8.7,4.2-14.5,6.9-22.7c3.2-9.9,5.1-18.7,12.1-23.2c5.3-3.4,17.7-4,17.9-7.4
			c0.2-2.9-9.6-4.7-12.7-5.3c-29-5.5-55.1,0.6-73.9,11.6c-5.4,3.1-20.4,9.4-18.5,17.4c1.4,5.8,15.5,5,22.2,7.4
			c13,4.6,20.1,14.6,27.4,25.9c-11.1,17-23.6,32.7-34.8,49.6c91.9,121.9,186.3,251.7,254.5,401.3c3.1,6.9,4.8,13.7,7.4,21.1
			c19.5,55.2,36.8,118.9,33.3,194.3c-6.7,141.6-62.3,242.8-133.6,322.6c-35,39.2-80.4,72.9-128.8,99.3
			c-49.5,27-107.5,45.1-173.2,54.4c66.6,48.9,145.2,85.7,254.5,90.8c94.1,4.4,174.3-18.9,234.4-50.7c62.6-33.1,113-75.6,154.7-128.8
			c40-51.1,73.4-117.5,88.7-194.8c8.1-41.1,10.9-87.7,6.3-131.5c-9.1-86-33.8-152.9-72.3-211.2c-19-28.8-37.1-57.4-57.6-84.5
			C1549.2,1265.7,1406.7,1122.9,1256.1,991.7"/>
		<path id="path20" class="st0" d="M1013.3,869.2c7.1-13.8,14.5-26.2,32.2-31.2c5.6-1.6,12.7-2.5,13.2-7.4
			c0.7-7.4-14.4-12.6-20.6-15.3c-17.1-7.3-39.2-9.8-60.7-5.8c-9.9,1.8-19.9,3.7-25.9,9.5c1.7,3.8,6.7,2.7,9.5,3.2
			c22.8,3.6,23.9,28.4,33.8,45.4c-127.1,139-246.1,288.7-348.5,455.7c-16.9,27.5-32.8,56.4-48,86.1c-2.1,4.1-2.9,7.9-4.8,12.2
			c-1.5,3.6-4.5,7-6.3,10.6c-26.4,50.5-46.2,111.9-50.2,183.8c-7.4,133.3,35.9,232.5,91.9,307.8c57.1,76.8,134.5,134.7,236,166.3
			c17.2,5.4,35.1,9.8,53.9,13.2c57.7,10.3,130.8,8.4,186.4-4.8c110.6-26.2,190.6-82.8,252.9-155.8c40.9-47.9,73.8-108.3,92.9-179.5
			c9.9-36.6,14.8-78.2,14.8-121.4c0-42.9-6.4-83-16.4-119.3c-4.9-18-10.7-34.8-16.3-51.8c-2.7-7.9-7.6-15.5-11.1-23.2
			c-45.5-98.9-105.6-192.8-165.8-276.7c-57.4-80-116.7-155-179.5-229.2C1055.9,917.1,1033.8,893.9,1013.3,869.2"/>
	</g>
</g>
</svg>
