<?xml version="1.0" encoding="utf-8"?>
<!-- Generator: Adobe Illustrator 21.1.0, SVG Export Plug-In . SVG Version: 6.00 Build 0)  -->
<svg version="1.1"
	 id="svg2" xmlns:cc="http://creativecommons.org/ns#" xmlns:dc="http://purl.org/dc/elements/1.1/" xmlns:rdf="http://www.w3.org/1999/02/22-rdf-syntax-ns#" xmlns:svg="http://www.w3.org/2000/svg"
	 xmlns="http://www.w3.org/2000/svg" xmlns:xlink="http://www.w3.org/1999/xlink" x="0px" y="0px" viewBox="0 0 240.1 240.1"
	 style="enable-background:new 0 0 240.1 240.1;" xml:space="preserve">
<style type="text/css">
	.st0{fill:#231F20;}
</style>
<g id="g10" transform="matrix(1.3333333,0,0,-1.3333333,0,302.46667)">
	<g id="g12" transform="scale(0.1)">
		<path id="path14" class="st0" d="M891.1,2261.4c-63,0-121.3-8.7-174.7-21.3c-53-12.5-101.7-29.8-145.8-50.6
			c-133.9-63.1-238.9-154.3-318.6-269.9c-26-37.7-50.1-80.7-70.1-126.4c-39.5-90.4-66.8-196.3-66.8-326.2
			c0-62.8,9.3-121.3,21.8-174.2c12.6-53.3,29.7-101.2,50.7-145.8c62.2-132.6,154.2-240.3,269.4-319.1c38.6-26.4,80.5-50,126.4-70.1
			c91.3-39.9,195.8-66.8,326.2-66.8c123.3,0,231.7,31.5,320.5,72c90.4,41.2,165.2,97.5,230.1,162.4c65.5,65.6,118.7,143,159.1,233.4
			c40.7,91,67.5,196.6,66.8,326.2c-0.7,124.2-31.3,231.1-72,320.5c-41.3,91-96.1,163.8-162.4,230.1
			c-65.2,65.1-141.9,118.4-233.4,159.1c-66.4,29.5-144.1,53.1-232,62.5c-29.2,3.1-64.1,5.7-94.2,4.3
			C891.7,2261.4,891.4,2261.4,891.1,2261.4z M880.2,2268.5c13.6,0,27.1,0,40.7,0c0.1-0.4,0.4-0.6,1-0.5
			c143.1-3.6,261.1-37.3,362.2-85.2c152.1-72.1,269.9-176.4,361.7-309.2c30.5-44.1,57.9-92.8,80-143.9
			c45.6-105.4,75.3-225,75.3-372.6c0-72.1-10.3-138.4-24.6-198.8c-42.5-179.9-131.3-319.3-241.9-429.9
			c-74.7-74.7-162.2-135.7-265.1-182.3c-102.5-46.4-224.3-78.6-369.3-78.6c-145,0-266.4,32.7-368.8,78.6
			c-103.2,46.2-190.4,108-265.1,182.8C192.3,802.6,128.4,889.2,81.9,992c-23.1,51-43.3,105.9-57.3,166.7
			C10.6,1219.4,0,1285.4,0,1358c0,146.8,29.4,267.2,75.8,371.7c45.8,103.2,106.3,193.4,180.4,267.5c75,75,159.8,138.3,261.4,186.1
			C618.8,2230.9,737,2264.1,880.2,2268.5"/>
		<path id="path16" class="st0" d="M1057.3,1879.3c1.7-1.5,2.8-2.1,4.2-3.8c1.2-1.4,1.6-3.8,3.3-4.3c4.3-1.2,6.7,4.4,11.4,5.2
			c44.9-13.1,91.3-22.8,136.8-35c22.7-6.1,45.7-12.2,68.7-17.5c22.8-5.3,45.4-12,68.2-17.5c45.3-11,91.2-23.2,136.8-35
			c22.9-5.9,46.7-10.2,70.1-16.1c11.5-2.9,23.4-5.7,35-8.1c10.8-2.2,22.7-4.1,31.2-11.4c-136.9-51.1-272.3-104-407.7-157.2
			c-135.5-53.2-272.2-103.4-409.5-155.3c-48.7,12.8-95.4,29.4-142,45.4c-46.4,16-92.4,32.2-138.7,48.3
			c-46.4,16.2-93,31.9-139.7,47.8c-23.3,7.9-46.7,15.4-69.6,24.1c-11.4,4.3-22.7,8.5-34.1,12.8c-11.2,4.2-22,10.4-34.1,12.3
			c-5.4,3.2-11.2,5.8-18.9,6.6c132.6,46.4,270.5,87.9,408.6,130.2c68.5,21,137.1,43.2,206,63.4c34.6,10.2,69.5,20.2,103.7,31.2
			c34.1,11,67.6,23.6,101.8,32.7C1049.8,1878.6,1054.6,1880.1,1057.3,1879.3"/>
		<path id="path18" class="st0" d="M1604.1,1721.6c2-2.6,0.1-9.7,0-14.7c-0.3-18.6,0.9-41.7,0.9-65.3c0-11.2-0.5-22.7,0-34.1
			c0.6-15,3.8-34.9-7.1-39.3c-0.8,50.2-0.8,101.2-1.4,151.5C1598.3,1720.8,1602.1,1722.4,1604.1,1721.6"/>
		<path id="path20" class="st0" d="M1589.4,1708.8c1.7-1.6-2.9-4.8-3.3-7.6c1.6-1.8,4.7-1.9,6.6-3.3c-31-12.4-62.5-24.3-93.8-36.5
			C1528.6,1677.9,1559.7,1692.7,1589.4,1708.8"/>
		<path id="path22" class="st0" d="M233.9,1613.7c0.3-1.2-1.6-2.1-2.4-3.3c-5.4-8.3-7.1-29.8-4.7-43.6c1.8-10.4,2.8-21.7,4.3-32.7
			c4.2-30.7,10-65.6,21.3-89c-7.5,1.3-17.1,2.8-20.4,9c-2.1,4.1-3.3,11-5.2,17.1c-1.8,5.7-3.3,11.9-4.7,17.5
			c-4,15.8-7.5,31.6-6.6,50.7c1.2,27.4-5.1,55,3.8,74.8C223.5,1617.4,228.8,1614.7,233.9,1613.7"/>
		<path id="path24" class="st0" d="M1634,1396.8c-15.4-2.4-33.5-2.1-48.8-4.7c-75.1-5.7-148.3-16.2-221.6-23.7
			c-73.4-7.5-146.1-17.4-220.2-24.6c126.3,51.1,249.3,105.5,373.1,159.1c0.8-0.1,1.2,0.8,1.4,0
			C1557.8,1469.1,1602.2,1437.2,1634,1396.8"/>
		<path id="path26" class="st0" d="M806.3,1416.2c-5.7-26.1-11.4-58.4-10.9-90.9c0.5-32.4,7.3-61.5,20.8-80c-3,0-6,0-9,0
			c-20.6,25.9-21.7,83.1-16.1,128.8c0.9,7.2,2,14.4,3.3,21.8c1.1,6.1,1.8,17.9,4.3,20.8c0.4,0.5-0.4,1.3,0.5,1.4
			C801.6,1418.3,803.2,1415.5,806.3,1416.2"/>
		<path id="path28" class="st0" d="M316.7,1403.5c6.4-2.9,13.1-5.5,19.9-8.1c3-10.6,9.1-19.7,13.7-29.3c14-29.1,27.3-55.5,40.7-81.4
			c9.5-18.4,18-37.9,27.5-56.8c7.1-14.1,14.7-27.7,21.8-42.1c2.3-4.6,3.5-10.1,7.6-13.7c86,10.1,176.7,22,265.6,31.7
			c21.6,2.4,44.2,5.8,66.3,8.1c7.4,0.8,15.4,3.1,21.8,2.8c3.9-0.2,7.2-2.4,10.9-2.8c7.8-0.8,14.9,0.2,19.4,3.8
			c65.1,6.7,131.1,16.3,197.4,22.7c65.4,6.3,130.8,16.5,196.5,23.2c64.7,6.6,130.4,16.2,197,23.2c31.2,3.3,64.1,7.3,98,11.8
			c27.1,3.6,57.1,6.3,85.7,10.4c9.9,1.4,15.5-0.6,14.2,11.4c3.8-2.6,6.3-5.5,10.4-9c2.5-2.1,9.9-5.6,9.9-9
			c0.1-5.4-11.6-5.2-15.6-5.7c-43.8-5-89.3-12.8-131.1-17c-52.2-5.3-100.8-14.2-150.1-19.4c-50.5-5.3-100.2-13.2-150.1-19.4
			c-250.5-31-505.2-63.1-753.3-93.8C398.8,1232.7,357.2,1316.9,316.7,1403.5"/>
		<path id="path30" class="st0" d="M1618.8,1390.2c-0.9-21.4,0-48.6-9-63.4c-1.5,20.7,0.8,41.8,1.4,62
			C1613,1390,1616.7,1389.3,1618.8,1390.2"/>
		<path id="path32" class="st0" d="M366.5,1383.1c85.6-37.8,175.8-71.1,265.1-105.1c-64.4-7.7-129.6-14.7-195.1-21.3
			c-6.3,10.2-11.6,21.1-17,31.7c-5.5,10.7-11.6,20.8-17.5,31.2C389.9,1341.1,378.1,1362.5,366.5,1383.1"/>
		<path id="path34" class="st0" d="M501.4,949.9c134.9,27.5,267.9,60.2,401,91.8c33.3,7.9,66.6,15.4,99.9,23.7
			c33,8.2,66.2,15,99.9,23.2c43.8,10.7,87.8,21.3,132.6,31.7c44.7,10.4,87.5,20.3,133.1,31.2c43.8,10.5,88.1,20.4,132.6,31.7
			c10.7,2.7,20.9,5.9,31.2,9.9c14.9,5.8,31.1,8,38.8,20.4c4.9-4.8,11.1-10,11.4-18c-259.4-63.5-522.9-122.9-782.2-186.5
			c-80.3-20-163.8-37.5-243.4-59.2c-14-3.8-25.9-7.1-44.5-9c-4.3-0.4-9.7-1.2-14.7-1.9c-5-0.7-11.6-2.1-15.2-1.4
			c-4.8,1-17,15.6-20.8,19.4c-20.1,20.1-40.6,40.6-60.1,60.1c-54.2,54.2-104.9,107.3-158.1,161.9c-26.6,27.2-53.2,54.2-76.2,83.8
			c2.1,2.4,4.6,4.7,4.7,9c0.1,3.3-2,6.5-3.3,10.4c-5.2,15.8-8.5,44.2-10.9,65.3c-0.9,8.2-3.1,20.6,0.5,24.6c0.4,0.1,0.4-0.2,0.5-0.5
			c5.2-3.3,11.7-11.3,12.8-18.5c0.6-4-1.1-7.1-1.4-11.4c-1-12.8,0.8-25.6,2.4-37.4c1.5-11.2,4.3-22.9,6.6-32.7
			c0.8-3.3,1.2-7.4,2.4-9.9c1.4-3.2,6-6.3,9.9-9.9c10.1-9.3,20-20.3,29.8-29.3c28.4-26.2,53.2-51.2,80.5-77.7
			c33.5-32.5,66.8-64.9,100.8-97.1C435.5,1016.2,469.9,983.4,501.4,949.9"/>
		<path id="path36" class="st0" d="M1564.8,1281.3c0.3,0,0.6,0,0.9,0c-1.8-12.3-2.5-28.1-1.9-42.6c0.4-10.4,3.2-20.3-2.8-27
			c-6.7,17.2-5.2,46.7-3.3,68.2C1559.9,1280.6,1562.9,1280.4,1564.8,1281.3"/>
		<path id="path38" class="st0" d="M449.8,1251.5c9.1-17.2,10.8-48.6,5.2-71c-1.9,1.1-6,3.1-6.6,6.2c-0.7,3.6,2.1,13.4,2.4,18.5
			c0.8,17.8-3.6,34.4-9,45.5C444.2,1251.1,446.4,1251.8,449.8,1251.5"/>
		<path id="path40" class="st0" d="M518.4,1033.2c2.7,3.9,2.2,11.2,0,15.2c60.7,12.6,120.9,25.6,181.3,38.3
			C640.1,1068.1,578.8,1051.2,518.4,1033.2"/>
		<path id="path42" class="st0" d="M492.9,1065.4c8.8-32.9,16.3-67.1,17.5-107.5c-1.9-0.9-5.2-2.5-7.1-1.9
			c-1.9,38.4-9.4,73.5-17,107c0,0.3,0,0.6,0,0.9C488.7,1064.2,490.9,1064.7,492.9,1065.4"/>
		<path id="path44" class="st0" d="M1563.9,1589.5c-23.7-14-48.2-29.9-75.8-41.2c-27.1-11.2-55.5-23.6-81.4-33.6
			C1458.9,1539.8,1511.5,1564.6,1563.9,1589.5"/>
		<path id="path46" class="st0" d="M1625.9,1561.1c-0.7-1.9,0-2.2-0.5-3.8c-1-3.3-17-9-23.7-11.8c-42-17.7-82.1-34.9-123.6-52.6
			c-81.5-34.7-165.2-72.3-246.2-106.5c-66.1-27.9-135-54.3-200.7-81.4c-60.8-25.1-125.8-51.2-187.5-76.7c-4.3-1.8-9.2-2.7-12.8-4.7
			c-2.3-1.3-4.4-4.8-7.1-5.7c-11.1-3.5-28.3,5.2-38.4,9.5c-34.7,14.6-71,27.6-106.1,39.8c-48.2,16.7-95.1,36-141.6,53
			c-95.5,35-184.7,76.1-276.5,112.7c-0.8,5.7-3.4,9.6-7.6,11.8c50.7-9.6,96.2-31,141.6-49.7c45.4-18.8,91.6-36.5,139.2-54
			c45.8-16.8,91.7-36.9,139.7-53.5c40.9-14.1,82.1-29.6,124.1-45c5.9-2.2,14-6.1,18.5-5.7c2.6,0.2,7.4,3,11.8,4.7
			c57.6,23,115,47.8,172.8,70.5c61.4,24.2,123.7,50.5,183.2,76.2c60.9,26.3,121.9,51.7,182.8,77.2c60.9,25.6,121.8,51.3,183.2,76.2
			c15.9,7.2,31.3,14.7,49.2,19.9c2.9,1.3,5.8,4.9,7.6,5.7C1613.5,1565.2,1620.9,1564.4,1625.9,1561.1"/>
		<path id="path48" class="st0" d="M643.4,1440.4c-53.2,13.5-107.2,28.9-161,43.6c-26.4,7.2-51.3,18.1-75.8,27
			c-17.9,6.5-37.3,13.3-56.3,20.4c-6.1,2.3-13.7,4.1-18.5,7.1c-1.7,1.1,6.3-1.8,8.1-2.4C440.9,1504.3,542.6,1471.9,643.4,1440.4"/>
		<path id="path50" class="st0" d="M283.1,1528c34.5-9.3,67.1-21.4,98.5-31.2c1.8-0.6,11.5-3.1,6.2-2.4c-15.6,2.1-30.5,7-46.9,10.9
			c-8,1.9-16.8,2.7-23.7,5.2c-5.7,2.1-11.5,6-17,9C294.8,1522.3,289.2,1525.5,283.1,1528"/>
		<path id="path52" class="st0" d="M803.9,1347.6c-0.1,7.8,0.2,15.3,2.8,20.3c130.6,51.4,261.5,102.5,392,153.9
			c0.5-0.6-2.4-2.1-4.3-2.8C1064.6,1463.3,934,1403.5,803.9,1347.6"/>
		<path id="path54" class="st0" d="M175.2,1359.4c-1.3,2.9-3,5.9-4.7,8.5c-2.6,4-6.2,6.8-8.1,9.9c23.5,6,48.1,9.9,72.4,15.2
			c24.1,5.2,48.4,10.1,72,14.2c2.6-1.9,3.5-5.4,4.7-8.1c20-41.9,40.6-85.3,61.1-126.9c18.8-38.1,36.4-77.2,56.3-117.4
			c2.7-5.5,5.1-11.3,9-16.1c256.4,32.1,513.4,63.6,769.4,96.1c2.6-0.4-1-0.2-0.9-0.9c-60-13-120.3-26.7-180.9-40.2
			c-29.8-6.7-60.2-12.8-90-20.4c-59.6-15.2-118.9-26.9-179.4-41.7c-14.8-3.6-30-7.2-45-10.4c-44.7-9.5-89.3-20.2-134.5-30.8
			c-21.3-5-44.6-10.7-67.2-15.6c-7.1-1.6-18.3-5.4-22.7-4.7c-2.6,0.4-6.7,5.5-9.9,8.5c-47.3,43-93.9,86.9-138.7,131.6
			c-42.3,39.7-86.5,82.7-128.3,124.5C200,1344.5,191.8,1360.1,175.2,1359.4"/>
		<path id="path56" class="st0" d="M814.8,1084.8c4.1,1.1-3.2-1.3-5.2-1.9c-89.5-25.9-178-49.7-268.5-74.8c-1.8-0.5-5.4-1.9-9-2.8
			c-3.7-1-6.8-1.8-6.6,2.4c0.1,2.2,3.1,2.8,7.1,3.8C626.6,1035.1,721,1061.2,814.8,1084.8"/>
	</g>
</g>
</svg>
