<?xml version="1.0" encoding="utf-8"?>
<!-- Generator: Adobe Illustrator 21.1.0, SVG Export Plug-In . SVG Version: 6.00 Build 0)  -->
<svg version="1.1"
	 id="svg2" xmlns:cc="http://creativecommons.org/ns#" xmlns:dc="http://purl.org/dc/elements/1.1/" xmlns:rdf="http://www.w3.org/1999/02/22-rdf-syntax-ns#" xmlns:svg="http://www.w3.org/2000/svg"
	 xmlns="http://www.w3.org/2000/svg" xmlns:xlink="http://www.w3.org/1999/xlink" x="0px" y="0px" viewBox="0 0 240 240"
	 style="enable-background:new 0 0 240 240;" xml:space="preserve">
<style type="text/css">
	.st0{fill:#231F20;}
</style>
<g id="g10" transform="matrix(1.3333333,0,0,-1.3333333,0,309.74667)">
	<g id="g12" transform="scale(0.1)">
		<path id="path14" class="st0" d="M890.5,2316c-63,0-121.2-8.7-174.6-21.3c-53-12.5-101.6-29.8-145.7-50.6
			c-133.8-63.1-238.8-154.2-318.5-269.7c-26-37.7-50-80.6-70-126.3c-39.5-90.4-66.7-196.2-66.7-326c0-62.8,9.3-121.2,21.8-174.1
			c12.6-53.2,29.7-101.1,50.6-145.7c62.1-132.5,154.1-240.2,269.2-318.9c38.6-26.4,80.4-50,126.3-70c91.2-39.9,195.7-66.7,326-66.7
			c123.2,0,231.6,31.5,320.4,71.9c90.4,41.2,165.1,97.5,230,162.3c65.5,65.5,118.6,142.9,159,233.3c40.6,90.9,67.4,196.4,66.7,326
			c-0.7,124.1-31.3,231-71.9,320.4c-41.3,90.9-96.1,163.7-162.3,230c-65.1,65.1-141.8,118.3-233.3,159c-66.4,29.5-144,53-231.9,62.5
			c-29.2,3.1-64.1,5.7-94.2,4.3C891.2,2316,890.9,2316,890.5,2316L890.5,2316z M879.7,2323.1c13.6,0,27.1,0,40.7,0
			c0.1-0.4,0.4-0.6,0.9-0.5c143-3.6,261-37.3,362-85.2c152-72.1,269.8-176.3,361.5-309c30.5-44.1,57.8-92.7,80-143.8
			c45.6-105.3,75.2-224.8,75.2-372.4c0-72.1-10.3-138.3-24.6-198.7c-42.5-179.8-131.3-319.1-241.8-429.7
			c-74.7-74.7-162.1-135.6-265-182.2c-102.4-46.3-224.2-78.6-369.1-78.6c-144.9,0-266.2,32.7-368.6,78.6
			c-103.1,46.2-190.3,107.9-265,182.7c-73.8,73.8-137.6,160.3-184.1,263.1c-23.1,51-43.2,105.8-57.3,166.6
			C10.6,1274.6,0,1340.6,0,1413.1c0,146.7,29.4,267.1,75.7,371.4c45.7,103.2,106.2,193.3,180.3,267.4
			c74.9,74.9,159.7,138.2,261.2,185.9C618.4,2285.5,736.5,2318.7,879.7,2323.1"/>
		<path id="path16" class="st0" d="M840.9,2245c0.4,0.1,0.4-0.2,0.5-0.5c37.7-17.5,69.8-38.6,88-73.8c9.9-19.2,12.9-43.7,7.6-67.7
			c-4.7-21.5-13.9-40.6-23.2-57.7c-17.8-33.1-44.4-66.8-48.3-113.6c-2.2-26.2,1.9-51,6.6-73.3c4.7-22,10.9-42.1,19.4-61
			c-32.1,25.1-59.8,59.4-63.4,111.7c-1.2,17.6,1.6,35.3,5.7,52.5c10.8,45.4,31.5,85.7,48.3,126.8c6.9,16.8,16.3,32.4,14.7,54.9
			c-1.5,20.9-12.4,39-22.2,55.4C863.9,2216.2,852.1,2230.6,840.9,2245"/>
		<path id="path18" class="st0" d="M689.4,2173.5c0.4,0.1,0.4-0.2,0.5-0.5c19.3-13.7,34.9-30.4,48.3-51.1
			c12.8-19.7,25.2-44.4,25.1-74.3c-0.1-33.5-24.6-47-46.4-60.6c-22.7-14.1-50.3-29-53-61.5c-4.1-50.5,20.3-96.5,43.1-123
			c1.3-1.6,4-2.7,3.8-5.2c-23,12.4-42.1,26.5-59.1,46.4c-16.4,19.1-33.2,50.9-27,84.2c5.3,28.6,26.6,46.8,45.4,61.5
			c9.1,7.1,20.2,15.1,30.3,23.2c12.3,9.9,25.2,20.8,26.5,39.3c1.7,24.5-6.3,45.4-13.3,65.3C706.2,2138.3,697.2,2156.6,689.4,2173.5"
			/>
		<path id="path20" class="st0" d="M1033,2135.2c-0.1,0.4,0.2,0.4,0.5,0.5c29.5-6.1,54.7-19.1,71.4-38.8
			c15.1-17.9,28.7-52.5,16.6-84.2c-7.2-18.9-23.3-29.9-36.4-43.1c-13.6-13.6-25.2-28.7-27-52.5c-3.2-43.4,1.4-86.9-1.4-129.2
			c-17.2,26.8-26.7,57.2-32.7,95.1c-2,12.8-4,25.9-3.3,38.8c1.5,26.3,12.4,45.5,24.1,60.6c14.2,18.1,33.4,32.9,35,60.1
			c1.2,20.5-7.7,38.1-16.1,52.5c-4.2,7.2-9.3,13.9-14.2,20.4C1044.2,2122.4,1039.2,2129.6,1033,2135.2"/>
		<path id="path22" class="st0" d="M1294.2,1449.6c-2.8-78.6-5.3-157.5-7.6-236.6c32.5,4.7,56.8,17.7,75.2,37.8
			c17.6,19.3,32.2,46,32.2,81.4c0,33.5-13.2,60.2-29.8,79c-17.5,19.8-39.5,33.8-69.6,39.8
			C1294.1,1450.9,1294.1,1450.2,1294.2,1449.6L1294.2,1449.6z M503.9,1582.5c10.4-74.2,11-154.7,14.7-235.6
			c4.9-107.1,10.2-214.7,20.8-313.2c-8.1,141.5-8.9,301.8-6.6,451.4c0.3,18.7,0,46.1,7.1,59.1c2.2,4.1,7.1,11.1,11.4,14.9
			c5.3,4.7,7.9,5.9,13.1,8.4c22.5,10.9,55.7,8.3,87.7,9.8c32.1,1.5,64,2.9,90.4,7.6c-43.3,1.7-86.4,7.7-127.8,15.1
			c-20.2,3.7-39.9,7.1-58.7,12.8c-27.6,8.3-53.9,18.3-63.4,43.5C496.8,1632.8,500.4,1607.7,503.9,1582.5L503.9,1582.5z
			 M846.1,1728.3c-59.3,0-111-4.2-165.6-10.4c-41.5-4.7-77.9-9.1-111.2-21.8c-11.3-4.3-24.6-10.3-24.1-20.3
			c0.5-10.4,18.1-16.5,29.3-20.3c13.4-4.5,26.3-7.9,39.7-10.4c86-16.2,177.7-21.3,278.2-21.3c64.5,0,128.6,2.3,189.8,8.5
			c43.3,4.4,89.9,10.3,126.8,23.2c10.8,3.8,29.2,10.2,29.3,20.8c0.1,11.4-20.8,18.8-33.1,22.7c-11.4,3.7-31.3,8-45,10.4
			c-63.7,11.4-131.6,15.4-203,18.4c-35.1,1.5-75.1,2.2-110.3,0.5C846.7,1728.3,846.4,1728.3,846.1,1728.3L846.1,1728.3z
			 M1299.8,1620.4c86-9.6,146.4-44.3,192.6-95.1c33.6-37,60.7-82.6,72.4-143.4c3.9-20.5,7.1-43.2,5.7-65.8
			c-5.7-89-39.8-151.9-87.5-199.7c-48-48-111.9-81-202.1-85.2c-1-26.1-1.9-52.4-2.8-79c-0.3-8.6,0.9-17.9-0.5-25.5
			c-4.9-26.9-34.8-43.6-56.8-54.4c-74.1-36.4-174.3-49.4-277.3-53.9c-71.7-3.2-144.2,0.5-209.6,9.5c-64.9,8.9-126.4,22.8-173.7,47.8
			c-22.9,12.1-47.9,27.5-50.2,61c-2.2,33.5-3.3,71.1-4.7,106c-2.9,71.2-6.9,141.7-9.9,211.5c-5.9,136.2-13.6,272.9-19.4,409.8
			c-0.1,3.3-1.2,7.7,1.4,10.4c1.9,16.9,16.4,25.5,29.3,32.7c39.4,21.9,93.5,32.6,145.7,40.2c54,7.8,110.8,13.1,169.9,15.2
			c99.4,3.4,205.1-0.2,294.3-13.7c36.3-5.5,70-11.1,103.2-20.8c32.7-9.6,67.9-22,81.9-48.3
			C1301.3,1659.6,1300.3,1640.3,1299.8,1620.4"/>
	</g>
</g>
</svg>
