<?xml version="1.0" encoding="utf-8"?>
<!-- Generator: Adobe Illustrator 21.1.0, SVG Export Plug-In . SVG Version: 6.00 Build 0)  -->
<svg version="1.1"
	 id="svg2" xmlns:cc="http://creativecommons.org/ns#" xmlns:dc="http://purl.org/dc/elements/1.1/" xmlns:rdf="http://www.w3.org/1999/02/22-rdf-syntax-ns#" xmlns:svg="http://www.w3.org/2000/svg"
	 xmlns="http://www.w3.org/2000/svg" xmlns:xlink="http://www.w3.org/1999/xlink" x="0px" y="0px" viewBox="0 0 254.8 254.8"
	 style="enable-background:new 0 0 254.8 254.8;" xml:space="preserve">
<style type="text/css">
	.st0{fill:#231F20;}
</style>
<g id="g10" transform="matrix(1.3333333,0,0,-1.3333333,0,327.84)">
	<g id="g12" transform="scale(0.1)">
		<path id="path14" class="st0" d="M945.4,2451.2c-66.8,0-128.7-9.2-185.4-22.6c-56.2-13.3-107.9-31.7-154.7-53.8
			c-142-67-253.5-163.7-338.1-286.3c-27.6-40-53.1-85.6-74.4-134.1c-41.9-96-70.8-208.3-70.8-346.1c0-66.6,9.8-128.7,23.1-184.9
			c13.4-56.5,31.6-107.4,53.8-154.7c66-140.7,163.6-255,285.8-338.6c41-28,85.4-53.1,134.1-74.3c96.9-42.3,207.8-70.8,346.1-70.8
			c130.8,0,245.8,33.4,340.1,76.4c96,43.7,175.3,103.5,244.1,172.3c69.6,69.6,125.9,151.7,168.8,247.7
			c43.1,96.5,71.6,208.6,70.8,346.1c-0.7,131.8-33.2,245.2-76.4,340.1c-43.9,96.5-102,173.8-172.3,244.1
			c-69.1,69.1-150.6,125.6-247.7,168.8c-70.5,31.3-152.9,56.3-246.1,66.3c-31,3.3-68.1,6-100,4.5
			C946.1,2451.2,945.7,2451.2,945.4,2451.2L945.4,2451.2z M933.9,2458.8c14.4,0,28.8,0,43.2,0c0.1-0.4,0.4-0.6,1-0.5
			c151.8-3.8,277.1-39.6,384.3-90.4c161.4-76.5,286.4-187.1,383.8-328c32.4-46.8,61.4-98.4,84.9-152.7
			c48.4-111.8,79.9-238.7,79.9-395.4c0-76.5-11-146.9-26.1-211c-45.1-190.9-139.4-338.8-256.7-456.1
			c-79.3-79.3-172.1-144-281.3-193.4c-108.7-49.2-238-83.4-391.8-83.4c-153.9,0-282.6,34.7-391.3,83.4
			c-109.5,49.1-202,114.6-281.3,193.9c-78.3,78.3-146,170.2-195.4,279.3c-24.5,54.2-45.9,112.3-60.8,176.8
			C11.3,1345.7,0,1415.8,0,1492.8c0,155.8,31.3,283.5,80.4,394.3c48.6,109.5,112.7,205.2,191.4,283.8
			c79.5,79.5,169.5,146.7,277.3,197.4C656.5,2418.9,781.9,2454.1,933.9,2458.8"/>
		<path id="path16" class="st0" d="M591.1,1282.3c-0.7,4-4.1,10.8-7.6,12.2c-5.1,1.9-15.2,0.4-22.5,0.4c-16.8,0-30,0-45.9,0
			c-7.9,0-17.2,1.4-22.9,0c-13.3-3.3-10.9-45.1,0-48.1c5.8-1.6,15,0,22.5,0c23.7,0,46.9,0,68.8,0
			C590.9,1252.3,593.4,1269.1,591.1,1282.3z M589.7,1920.2c-5.6-23.8-2.7-58.3-2.7-85.9c0-118,0-236,0-354.5
			c0-30.2-1.5-61.9,5.9-82.8c11-31.4,35.9-55.1,68.4-64.3c12.1-3.5,24-4.5,40-4.5c175,0,356-1.8,531.8,0c26.3,0.3,48,11.4,63.4,24.8
			c15.9,13.7,28.6,32.1,33.7,54.9c5.6,24.5,2.7,56.7,2.7,85.9c0,118.1,0,234.9,0,354.5c0,31.1,1.2,62.2-5.8,82.8
			c-7.4,21.5-20.8,37.5-38.2,50.4c-17.7,13.1-39.7,19.3-69.3,19.3c-146,0-297.2,0-443.2,0c-29,0-61.6,1.4-89.1-0.4
			C636.4,1996.8,600.4,1966,589.7,1920.2L589.7,1920.2z M542.5,2162.7c-0.1,0.4,0.2,0.4,0.5,0.4c275,0,548.5,0,822.4,0
			c10.4,0,20.2-1.6,29.2-3.6c52.5-11.8,88.4-42.5,107.5-89.5c6.2-15.2,11.7-33.4,11.7-54.4c0-219.7,0-438,0-657.3
			c0-22.2,0.8-43.6-1.8-63.9c-4.7-37.3-22.2-65.4-44.1-87.3c-10.4-10.4-23.7-19.6-38.7-27c-14.7-7.3-33.5-13.3-51.7-13.9
			c-43.2-1.6-87.3-0.4-131.4-0.4c-217.8,0-440,0-657.8,0c-23.8,0-44.6-0.6-62.5,3.2c-18.5,3.8-33,9.9-47.2,18.4
			c-26.8,16.1-48.2,38.5-61.2,70.2c-6,14.6-11.2,34-11.2,54.9c0,234.9,0,471.8,0,706.8c0,4.9,1.2,9.4,1.8,14.4
			c4.4,39.4,23.2,66.3,44.1,87.3c19.3,19.2,43.8,33.2,76,39.1C532.6,2160.8,538.5,2161.2,542.5,2162.7"/>
		<path id="path18" class="st0" d="M825.5,1841.9c-0.3-10.1,0.6-21.3-0.4-30.6c-5.5-4.4-12.2-7.3-18.5-10.3
			c-31.1-15.5-63.1-31.7-94.9-47.2c-12.7-6.2-25-13.4-38.2-18.4c0.3,10.8-0.6,22.8,0.5,32.8c4.1,3.3,9.2,5.8,13.9,8.1
			c33.5,16.7,68.7,33.3,102.1,50.4c-38.1,19.9-77.9,38.2-116.5,57.6c0,11.4,0,22.8,0,34.2C724.9,1893.7,775.2,1867.9,825.5,1841.9"
			/>
		<path id="path20" class="st0" d="M857.9,1707.9c65.8,0,131.7,0,197.5,0c1-10.7,0.2-23.2,0.5-34.6c-65.2-0.8-133.6-0.8-198.9,0
			c0,11.1,0,22.2,0,33.3C856.9,1707.3,857.3,1707.7,857.9,1707.9"/>
		<path id="path22" class="st0" d="M1221.7,1309.4c4.3,3,9.7,3.9,14.1,5c55.1,14.6,98.8,47.4,117.6,99c1.8,5.1,3.1,9.9,5.7,15.5
			c0.4,0.1,1.8,3.4,1.8,3.1c2-40.2-12.6-71.1-32.7-91.4C1304,1316.1,1267.7,1300.9,1221.7,1309.4"/>
		<path id="path24" class="st0" d="M470.9,1148.6c17.9,2.5,42.1,0.5,62.1,0.5c225,0,448.9,0,675.3,0c66.6,0,144.7,0,214.6,0
			c10.8,0,21.4,1.1,29.7-0.9c12.1-2.9,21.3-13.4,21.6-27.4c0.2-12.9-7.9-25.4-20.2-28.8c-7.6-2.1-19.1-0.9-30.1-0.9
			c-309.9,0-617.9,0-929.5,0c-11.2,0-21.6-0.7-28.8,1.8C439.7,1101.8,441.8,1144.6,470.9,1148.6"/>
	</g>
</g>
</svg>
