<?xml version="1.0" encoding="UTF-8" standalone="no"?>
<svg
   xmlns:dc="http://purl.org/dc/elements/1.1/"
   xmlns:cc="http://creativecommons.org/ns#"
   xmlns:rdf="http://www.w3.org/1999/02/22-rdf-syntax-ns#"
   xmlns:svg="http://www.w3.org/2000/svg"
   xmlns="http://www.w3.org/2000/svg"
   viewBox="0 0 230.77333 293.60001"
   height="293.60001"
   width="230.77333"
   xml:space="preserve"
   id="svg2"
   version="1.1"><metadata
     id="metadata8"><rdf:RDF><cc:Work
         rdf:about=""><dc:format>image/svg+xml</dc:format><dc:type
           rdf:resource="http://purl.org/dc/dcmitype/StillImage" /></cc:Work></rdf:RDF></metadata><defs
     id="defs6" /><g
     transform="matrix(1.3333333,0,0,-1.3333333,0,293.6)"
     id="g10"><g
       transform="scale(0.1)"
       id="g12"><path
         id="path14"
         style="fill:#231f20;fill-opacity:1;fill-rule:evenodd;stroke:none"
         d="m 856.316,2195.13 c -60.535,0 -116.55,-8.33 -167.898,-20.47 -50.918,-12.03 -97.734,-28.68 -140.137,-48.69 -128.64,-60.68 -229.609,-148.24 -306.211,-259.35 -25.007,-36.26 -48.125,-77.51 -67.351,-121.48 -37.989,-86.92 -64.16,-188.64 -64.16,-313.5 0,-60.33 8.906,-116.53 20.933,-167.44 12.113,-51.18 28.586,-97.26 48.696,-140.14 59.734,-127.431 148.14,-230.951 258.894,-306.681 37.09,-25.348 77.356,-48.039 121.484,-67.328 87.735,-38.352 188.184,-64.16 313.497,-64.16 118.496,0 222.667,30.289 308.047,69.16 86.92,39.578 158.76,93.711 221.12,156.07 63,62.988 114.06,137.399 152.88,224.309 39.07,87.45 64.85,188.9 64.16,313.5 -0.65,119.34 -30.1,222.12 -69.16,308.04 -39.74,87.45 -92.36,157.44 -156.06,221.13 -62.6,62.6 -136.4,113.78 -224.32,152.88 -63.83,28.38 -138.49,51 -222.949,60.06 -28.113,3.02 -61.648,5.47 -90.547,4.09 -0.3,0 -0.613,0 -0.918,0 z m -10.464,6.83 c 13.043,0 26.089,0 39.136,0 0.102,-0.35 0.371,-0.53 0.91,-0.45 137.492,-3.47 250.962,-35.88 348.072,-81.9 146.21,-69.29 259.4,-169.52 347.62,-297.12 29.33,-42.42 55.61,-89.14 76.91,-138.32 43.83,-101.26 72.35,-216.19 72.34,-358.09 -0.01,-69.33 -9.93,-133.03 -23.66,-191.1 C 1666.31,962.09 1580.96,828.121 1474.68,721.828 1402.85,650.02 1318.81,591.43 1219.86,546.66 1121.41,502.102 1004.33,471.121 864.973,471.129 725.613,471.129 608.965,502.531 510.52,546.66 411.379,591.102 327.566,650.441 255.715,722.289 184.766,793.238 123.438,876.43 78.7188,975.27 56.5234,1024.33 37.1484,1077.01 23.6602,1135.43 10.1953,1193.77 0,1257.25 0,1326.99 c 0,141.09 28.3008,256.8 72.8008,357.18 43.9842,99.22 102.1212,185.84 173.3592,257.08 72.043,72.04 153.567,132.92 251.153,178.81 97.335,45.78 210.917,77.72 348.539,81.9" /><path
         id="path16"
         style="fill:#231f20;fill-opacity:1;fill-rule:evenodd;stroke:none"
         d="m 819.922,2156.01 c 28.508,0 57.031,0 85.547,0 0,-46.26 0,-92.52 0,-138.78 -30.442,-0.05 -58.789,-2.19 -86.453,-5.01 0,47.48 0,94.96 0,142.42 -0.024,0.78 0.332,1.18 0.906,1.37" /><path
         id="path18"
         style="fill:#231f20;fill-opacity:1;fill-rule:evenodd;stroke:none"
         d="m 1090.19,1966.73 c -15.81,-48.96 -32.35,-97.18 -47.77,-146.52 -33.96,11.58 -69.432,23.67 -113.76,23.67 -68.426,0 -120.281,-17.08 -151.055,-55.06 -10.562,-13.04 -18.777,-27.5 -21.843,-46.87 -6.446,-40.69 13.769,-64.54 34.582,-83.26 2.117,-1.91 7.871,-5.6 8.64,-8.19 1.172,-3.94 0,-11.68 0,-17.74 0,-87.69 0,-177.48 0,-264.82 -78.32,35.12 -162.304,62.23 -221.125,117.4 -28.718,26.92 -52.808,58.94 -68.711,100.55 -15.601,40.85 -23.757,92.87 -13.191,145.6 9.082,45.4 29.836,82.72 55.051,114.2 62.613,78.15 156.57,126.49 278.008,144.7 89.644,13.43 190.034,3.1 261.174,-23.66" /><path
         id="path20"
         style="fill:#231f20;fill-opacity:1;fill-rule:evenodd;stroke:none"
         d="m 819.465,1070.82 c -1.067,240.1 -0.149,482.15 -0.449,723 16.422,9.35 35.132,19.55 58.687,23.67 8.117,1.41 17.102,3.69 25.031,4.55 3.758,0.4 2.735,-3.83 2.735,-9.1 -0.008,-243.69 0,-489.61 0,-732.56 -6.824,-8.05 -24.551,-11.39 -40.496,-13.2 -16.36,-1.86 -34.203,-2.46 -45.508,3.64" /><path
         id="path22"
         style="fill:#231f20;fill-opacity:1;fill-rule:evenodd;stroke:none"
         d="m 925.938,1579.97 c 51.445,-21.64 103.052,-45.93 152.882,-70.98 48.95,-24.61 97.77,-52.01 133.77,-90.09 36.18,-38.27 60.9,-89.55 69.62,-154.24 9.79,-72.8 -10.48,-135.02 -37.78,-180.64 -26.88,-44.96 -65.58,-83.94 -110.1,-113.75 -45.12,-30.219 -97.73,-52.54 -156.517,-67.34 -59.122,-14.899 -131.551,-23.34 -201.575,-15.02 -66.734,7.942 -122.781,25.43 -174.265,49.141 17.058,54.828 35.566,108.219 52.773,162.889 41.836,-19.66 88.008,-40.47 141.973,-50.05 91.699,-16.28 174.035,12.85 205.651,73.71 11.43,21.98 16.31,48.57 10.01,80.08 -10.8,54.09 -44.638,81.96 -86.9,106.02 0,89.64 0,179.27 0,268.91 -0.042,0.64 -0.07,1.28 0.458,1.36" /><path
         id="path24"
         style="fill:#231f20;fill-opacity:1;fill-rule:evenodd;stroke:none"
         d="m 905.469,725.02 c -28.672,0.3 -58.543,-0.61 -86.453,0.46 0,46.102 0,92.211 0,138.321 28.535,-0.692 58.64,0.488 82.808,2.73 0.688,0.059 1.321,-0.133 2.043,-0.32 2.664,-0.723 1.602,-2.391 1.602,-6.512 -0.008,-43.449 0,-92.648 0,-134.679" /><path
         id="path26"
         style="fill:#231f20;fill-opacity:1;fill-rule:nonzero;stroke:none"
         d="m 779.141,1669.57 154.152,-92.71 -6.113,-267.16 -136.496,61.92 -11.543,297.95" /><path
         id="path28"
         style="fill:#231f20;fill-opacity:1;fill-rule:nonzero;stroke:none"
         d="m 905.469,725.02 h -86.531 v 1430.99 h 86.531 V 725.02" /></g></g></svg>