<?xml version="1.0" encoding="utf-8"?>
<!-- Generator: Adobe Illustrator 21.1.0, SVG Export Plug-In . SVG Version: 6.00 Build 0)  -->
<svg version="1.1"
	 id="svg2" xmlns:cc="http://creativecommons.org/ns#" xmlns:dc="http://purl.org/dc/elements/1.1/" xmlns:rdf="http://www.w3.org/1999/02/22-rdf-syntax-ns#" xmlns:svg="http://www.w3.org/2000/svg"
	 xmlns="http://www.w3.org/2000/svg" xmlns:xlink="http://www.w3.org/1999/xlink" x="0px" y="0px" viewBox="0 0 230.8 230.8"
	 style="enable-background:new 0 0 230.8 230.8;" xml:space="preserve">
<style type="text/css">
	.st0{fill:#231F20;}
</style>
<g id="g10" transform="matrix(1.3333333,0,0,-1.3333333,0,293.6)">
	<g id="g12" transform="scale(0.1)">
		<path id="path14" class="st0" d="M856.3,2195.1c-60.5,0-116.6-8.3-167.9-20.5c-50.9-12-97.7-28.7-140.1-48.7
			c-128.6-60.7-229.6-148.2-306.2-259.4c-25-36.3-48.1-77.5-67.4-121.5c-38-86.9-64.2-188.6-64.2-313.5c0-60.3,8.9-116.5,20.9-167.4
			c12.1-51.2,28.6-97.3,48.7-140.1c59.7-127.4,148.1-231,258.9-306.7c37.1-25.3,77.4-48,121.5-67.3c87.7-38.4,188.2-64.2,313.5-64.2
			c118.5,0,222.7,30.3,308,69.2c86.9,39.6,158.8,93.7,221.1,156.1c63,63,114.1,137.4,152.9,224.3c39.1,87.4,64.8,188.9,64.2,313.5
			c-0.7,119.3-30.1,222.1-69.2,308c-39.7,87.4-92.4,157.4-156.1,221.1c-62.6,62.6-136.4,113.8-224.3,152.9
			c-63.8,28.4-138.5,51-222.9,60.1c-28.1,3-61.6,5.5-90.5,4.1C856.9,2195.1,856.6,2195.1,856.3,2195.1L856.3,2195.1z M845.9,2202
			c13,0,26.1,0,39.1,0c0.1-0.4,0.4-0.5,0.9-0.4c137.5-3.5,251-35.9,348.1-81.9c146.2-69.3,259.4-169.5,347.6-297.1
			c29.3-42.4,55.6-89.1,76.9-138.3c43.8-101.3,72.3-216.2,72.3-358.1c0-69.3-9.9-133-23.7-191.1
			c-40.9-172.9-126.2-306.9-232.5-413.2c-71.8-71.8-155.9-130.4-254.8-175.2c-98.4-44.6-215.5-75.5-354.9-75.5
			c-139.4,0-256,31.4-354.5,75.5c-99.1,44.4-183,103.8-254.8,175.6c-70.9,70.9-132.3,154.1-177,253
			c-22.2,49.1-41.6,101.7-55.1,160.2C10.2,1193.8,0,1257.3,0,1327c0,141.1,28.3,256.8,72.8,357.2c44,99.2,102.1,185.8,173.4,257.1
			c72,72,153.6,132.9,251.2,178.8C594.6,2165.8,708.2,2197.8,845.9,2202"/>
		<path id="path16" class="st0" d="M819.9,2156c28.5,0,57,0,85.5,0c0-46.3,0-92.5,0-138.8c-30.4-0.1-58.8-2.2-86.5-5
			c0,47.5,0,95,0,142.4C819,2155.4,819.3,2155.8,819.9,2156"/>
		<path id="path18" class="st0" d="M1090.2,1966.7c-15.8-49-32.3-97.2-47.8-146.5c-34,11.6-69.4,23.7-113.8,23.7
			c-68.4,0-120.3-17.1-151.1-55.1c-10.6-13-18.8-27.5-21.8-46.9c-6.4-40.7,13.8-64.5,34.6-83.3c2.1-1.9,7.9-5.6,8.6-8.2
			c1.2-3.9,0-11.7,0-17.7c0-87.7,0-177.5,0-264.8c-78.3,35.1-162.3,62.2-221.1,117.4c-28.7,26.9-52.8,58.9-68.7,100.6
			c-15.6,40.9-23.8,92.9-13.2,145.6c9.1,45.4,29.8,82.7,55.1,114.2c62.6,78.2,156.6,126.5,278,144.7
			C918.7,2003.8,1019.1,1993.5,1090.2,1966.7"/>
		<path id="path20" class="st0" d="M819.5,1070.8c-1.1,240.1-0.1,482.2-0.4,723c16.4,9.3,35.1,19.6,58.7,23.7
			c8.1,1.4,17.1,3.7,25,4.6c3.8,0.4,2.7-3.8,2.7-9.1c0-243.7,0-489.6,0-732.6c-6.8-8.1-24.6-11.4-40.5-13.2
			C848.6,1065.3,830.8,1064.7,819.5,1070.8"/>
		<path id="path22" class="st0" d="M925.9,1580c51.4-21.6,103.1-45.9,152.9-71c48.9-24.6,97.8-52,133.8-90.1
			c36.2-38.3,60.9-89.6,69.6-154.2c9.8-72.8-10.5-135-37.8-180.6c-26.9-45-65.6-83.9-110.1-113.8c-45.1-30.2-97.7-52.5-156.5-67.3
			c-59.1-14.9-131.6-23.3-201.6-15c-66.7,7.9-122.8,25.4-174.3,49.1c17.1,54.8,35.6,108.2,52.8,162.9c41.8-19.7,88-40.5,142-50.1
			c91.7-16.3,174,12.8,205.7,73.7c11.4,22,16.3,48.6,10,80.1c-10.8,54.1-44.6,82-86.9,106c0,89.6,0,179.3,0,268.9
			C925.4,1579.3,925.4,1579.9,925.9,1580"/>
		<path id="path24" class="st0" d="M905.5,725c-28.7,0.3-58.5-0.6-86.5,0.5c0,46.1,0,92.2,0,138.3c28.5-0.7,58.6,0.5,82.8,2.7
			c0.7,0.1,1.3-0.1,2-0.3c2.7-0.7,1.6-2.4,1.6-6.5C905.5,816.3,905.5,767.1,905.5,725"/>
		<path id="path26" class="st0" d="M779.1,1669.6l154.2-92.7l-6.1-267.2l-136.5,61.9L779.1,1669.6"/>
		<path id="path28" class="st0" d="M905.5,725h-86.5v1431h86.5V725"/>
	</g>
</g>
</svg>
