<?xml version="1.0" encoding="utf-8"?>
<!-- Generator: Adobe Illustrator 21.1.0, SVG Export Plug-In . SVG Version: 6.00 Build 0)  -->
<svg version="1.1"
	 id="svg2" xmlns:cc="http://creativecommons.org/ns#" xmlns:dc="http://purl.org/dc/elements/1.1/" xmlns:rdf="http://www.w3.org/1999/02/22-rdf-syntax-ns#" xmlns:svg="http://www.w3.org/2000/svg"
	 xmlns="http://www.w3.org/2000/svg" xmlns:xlink="http://www.w3.org/1999/xlink" x="0px" y="0px" viewBox="0 0 266.9 266.9"
	 style="enable-background:new 0 0 266.9 266.9;" xml:space="preserve">
<style type="text/css">
	.st0{fill:#231F20;}
</style>
<g id="g10" transform="matrix(1.3333333,0,0,-1.3333333,0,343.09333)">
	<g id="g12" transform="scale(0.1)">
		<path id="path14" class="st0" d="M1867.1,1583.9c12.3,97.1,5.8,199.7-11.6,286.3c-17.3,86.4-46.4,162.7-82.1,230
			c-35.9,67.8-79.4,128.2-128.9,182.6c-49.4,54.2-106.4,100.4-169.5,142.6c-92.4,61.9-203.8,108.5-337.9,129.5
			c-42.3,6.6-97.7,12.8-146.8,10.5c-27.7-1.3-53.7-1.8-78.9-4.2c-25.1-2.4-49.1-6.1-72.6-10.5c-139.9-26.3-251.2-80-348.9-150.5
			c-128.8-92.9-229-215.8-294.7-371c-32.8-77.4-56.8-166.5-64.7-267.9c-8.3-106.4,4.7-212.6,28.4-299.4
			c47.5-173.6,138-306.7,253.1-413.1c120.4,146.3,249.1,284.2,377.3,422.6c17-34.1,43.2-58.9,54.7-98.4c-2.6-4.4-6.8-8.2-10.5-11.6
			c-123.7-112.3-245-225-373.6-332.6c-3.1-2.6-12.7-10.1-12.6-11.1c0.1-1.2,9.3-7.3,12.1-9.5C521,960.3,590.2,917,666.2,886.1
			c84-34.1,177-60.1,285.8-65.3c239.4-11.4,406.7,62.2,545.7,153.7c0.7,2.8-2.7,4.3-4.2,5.8c-115.3,115.3-229.4,229.9-344.7,345.2
			c-4.9,4.9-10.7,8.7-10,13.2c4,24.8,11.4,46.2,21.6,65.3c9.9,18.5,22.4,35.1,33.7,53.7c22.3,36.9,39.2,75.6,51.6,122.6
			c73.4-71.6,145.3-144.8,217.9-217.3c54.4-54.4,109.1-109.1,163.1-163.1c18.2-18.2,36-36.6,55.3-53.7
			C1773,1262.6,1843.9,1401.1,1867.1,1583.9L1867.1,1583.9z M978.3,2573.2c15.1,0,30.2,0,45.3,0c0.1-0.4,0.5-0.6,1.1-0.5
			c159-4,290.3-41.5,402.6-94.7c169.1-80.1,300-196.1,402.1-343.6c33.9-49.1,64.3-103.1,88.9-160c50.7-117.1,83.7-250,83.7-414.2
			c0-80.2-11.5-153.8-27.4-221c-47.3-200-146-354.9-268.9-477.8c-83.1-83.1-180.3-150.8-294.7-202.6
			c-113.9-51.5-249.3-87.4-410.5-87.4c-161.2,0-296.1,36.3-410,87.4c-114.7,51.4-211.6,120-294.7,203.1
			c-82.1,82.1-153,178.3-204.7,292.6c-25.7,56.7-48.1,117.7-63.7,185.2C11.8,1407.2,0,1480.6,0,1561.3c0,163.2,32.7,297,84.2,413.1
			c50.9,114.8,118.1,214.9,200.5,297.3c83.3,83.3,177.6,153.7,290.5,206.8C687.8,2531.5,819.1,2568.4,978.3,2573.2"/>
		<path id="path16" class="st0" d="M999.4,2358c0.4,0.1,0.5-0.2,0.5-0.5c69.2-174.7,137.2-339.3,197.9-522.6
			c15.3-46.2,32.1-90.5,40.5-139.5c4.5-25.9,1-54.3-4.2-80.5c-10.1-50.8-26.4-92.8-47.9-132.1c-10.3-18.9-22.9-36.2-34.7-55.2
			c-11-17.7-20.6-38.9-26.8-63.2c-6-23.5-12-53.9-6.3-80.5c1.9-8.7,9.2-16.9,15.8-24.7c30.9-36.7,63.8-70.1,91-111
			c4.6-6.9,11.2-16.4,12.1-23.7c1.6-12.7,0-27.7,0-42.1c0-40.3,0.4-86.3-0.5-124.7c-159.6-0.9-322.9-0.9-482.6,0
			c-1,39.2-0.5,83.4-0.5,125.2c0,15-2.1,34.3,2.1,45.3c5.6,14.6,15.6,27.8,25.8,41.1c24.4,31.8,49.8,59.6,75.8,90.5
			c7,8.3,13.7,14.5,15.8,25.3c5.2,26.6-0.1,56.8-6.3,80.5c-6.2,23.8-16.4,45.3-27.4,62.6c-11.9,18.7-24.6,36.1-34.7,55.3
			c-20.6,38.7-38.2,81.2-47.9,131.6c-5.1,26.7-8,55.5-3.7,81c4.1,24.7,11.4,48.2,18.4,71.6c34.1,113.2,76.4,223.6,117.9,331
			c33.1,85.8,65.4,171.3,101.6,256.8c-0.1-141.1-1.6-283.4-1.6-425.2c0-20.2,1.6-41,0-60.5c-0.7-8.6-3.6-17.9-5.8-26.8
			c-12.8-53.7-25.2-103.8-39.5-156.3c-2.4-8.8-6.3-19.7-5.8-27.9c2.1-30.5,22.5-53.9,55.8-53.7c30.4,0.2,54.5,22.4,54.7,54.7
			c0.1,8.8-3.3,17.7-5.8,27.4c-11.8,45.3-21.7,86.9-33.2,132.6c-4.5,17.9-9.5,36.2-12.1,53.7c-0.1,0.3,0,0.7,0,1.1
			c-1.4,19.3,0.5,39.9,0.5,60C998.3,2074.5,999.6,2217.5,999.4,2358"/>
		<path id="path18" class="st0" d="M1606.1,2259.6c0.4,0.1,0.5-0.2,0.5-0.5c-1.5-67.6-2.7-136.4-29.5-180
			c-11.5-18.7-34.9-35.2-55.8-47.9c-15.3-9.2-31.8-17.8-51.6-24.2c-6.2-2-14.9-5.2-20-5.3c-6.3-0.1-16,3.9-21.1,6.3
			c-6.2,2.9-11.5,7.3-15.8,11.6c-8.4,8.3-17.6,22.3-18.4,35.8c-0.8,12.5,5.8,32.6,9.5,42.6c4.7,12.6,11.3,24,18.4,33.1
			c15.8,20.4,36.6,30.7,62.6,40.5c25.3,9.6,50.6,19.2,71.1,32.6C1577.5,2218.4,1593.7,2238.3,1606.1,2259.6"/>
		<path id="path20" class="st0" d="M428.9,2159.1c-19.7,17.9-38.3,37.7-57.4,56.8c-6.2,6.2-13.3,11.7-17.9,18.9
			c34.2,7.1,68.7,16.5,101.6,23.2c8.9-8.7,17.6-17.1,27.4-26.8c0.8-0.8,8.9-8.2,8.9-8.9c0.1-2.2-14-14.1-15.8-15.8
			C460.2,2190.9,443.8,2174.2,428.9,2159.1"/>
		<path id="path22" class="st0" d="M647.8,2100.1c-48.6-15.9-83.7-45.4-97.4-96.3c-2.5-0.6-5.8,3.7-8.4,6.3
			c-40.8,40.8-83.3,84.1-124.7,124.7c31.8,33.1,65.6,67,97.9,97.9C559.5,2188.6,604.1,2144.8,647.8,2100.1"/>
		<path id="path24" class="st0" d="M829.9,1995.4c-31.4-85.1-62.8-170.2-87.9-261.5c-3.1-0.6-4.6,3-6.3,4.7
			c-31.8,31.8-65.7,65.2-97.9,97.4c-17.1,17.1-35.6,34.3-51.6,52.6c-16.9,19.3-34.3,45.3-32.6,81c3.5,73.6,52.9,116.7,120,127.4
			c0.9,0.1,1.1,0.5,2.1,0.5c39.1,1.8,71-16.8,91-37.4C788.6,2037.8,810.9,2017.5,829.9,1995.4"/>
		<path id="path26" class="st0" d="M1386.7,2051.7c0.4,0.1,0.5-0.2,0.5-0.5c5.8-24.3,18.9-40.9,39.5-50.5c6.6-3.1,13.9-4.5,21.1-8.4
			c-4.7-7.4-11.9-13-18.4-19.5c-18.7-18.7-38.4-39.6-57.3-56.8c-26.5,13.3-46.7,33-61.6,57.9c4.9,7.1,11.6,13.2,17.9,19.5
			C1347.4,2012.4,1367.7,2032,1386.7,2051.7"/>
		<path id="path28" class="st0" d="M1365.6,1910.2c-34.8-60.3-74-116.2-119.4-165.8c-14.2,52.8-31.5,102.5-48.9,152.1
			c15.2,13.9,33.3,25.6,51.1,37.4c18.1,12.1,37.7,25.2,55.8,34.2C1319.7,1943.8,1339.3,1923.7,1365.6,1910.2"/>
	</g>
</g>
</svg>
