<?xml version="1.0" encoding="utf-8"?>
<!-- Generator: Adobe Illustrator 21.1.0, SVG Export Plug-In . SVG Version: 6.00 Build 0)  -->
<svg version="1.1" id="Layer_1" xmlns="http://www.w3.org/2000/svg" xmlns:xlink="http://www.w3.org/1999/xlink" x="0px" y="0px"
	 viewBox="0 0 269 268.9" style="enable-background:new 0 0 269 268.9;" xml:space="preserve">
<style type="text/css">
	.st0{fill:#FFFFFF;}
	.st1{display:none;}
	.st2{display:inline;}
</style>
<g id="Layer_8">
	<g>
		<circle class="st0" cx="134.5" cy="129.8" r="129.8"/>
		<path d="M134.5,0c0,0,0.8,0,2.3,0c0.4,0,0.8,0,1.3,0c0.5,0,1,0,1.6,0.1c0.6,0,1.2,0,1.8,0.1c0.7,0,1.4,0.1,2.1,0.1
			c3,0.2,6.6,0.5,10.9,1.2c4.3,0.6,9.2,1.6,14.6,3c0.3,0.1,0.7,0.2,1,0.3c0.3,0.1,0.7,0.2,1,0.3c0.7,0.2,1.4,0.4,2.1,0.6
			c1.4,0.4,2.9,0.9,4.3,1.4c0.7,0.3,1.5,0.5,2.2,0.8c0.7,0.3,1.5,0.6,2.2,0.8c1.5,0.6,3,1.2,4.6,1.9c6.2,2.6,12.7,5.9,19.3,10.1
			c6.6,4.2,13.3,9.2,19.7,15.2c6.4,6,12.7,12.9,18.3,20.8c0.4,0.5,0.7,1,1.1,1.5c0.2,0.3,0.4,0.5,0.5,0.8c0.2,0.3,0.3,0.5,0.5,0.8
			c0.3,0.5,0.7,1,1,1.5c0.3,0.5,0.7,1,1,1.6c0.3,0.5,0.7,1,1,1.6c0.3,0.5,0.6,1.1,1,1.6c0.2,0.3,0.3,0.5,0.5,0.8s0.3,0.5,0.5,0.8
			c0.3,0.6,0.6,1.1,0.9,1.6c2.5,4.4,4.7,9.1,6.8,14c0.1,0.3,0.3,0.6,0.4,0.9c0.1,0.3,0.2,0.6,0.4,0.9c0.2,0.6,0.5,1.2,0.7,1.9
			c0.2,0.6,0.5,1.2,0.7,1.9c0.2,0.6,0.5,1.3,0.7,1.9s0.4,1.3,0.6,1.9c0.1,0.3,0.2,0.6,0.3,1c0.1,0.3,0.2,0.6,0.3,1
			c0.2,0.6,0.4,1.3,0.6,1.9c0.2,0.6,0.4,1.3,0.6,2c0.4,1.3,0.7,2.6,1.1,4c0.2,0.7,0.3,1.3,0.5,2c0.1,0.7,0.3,1.4,0.5,2
			c0.1,0.7,0.3,1.4,0.4,2.1l0.2,1l0.2,1c0.1,0.7,0.2,1.4,0.4,2.1c0.1,0.7,0.2,1.4,0.3,2.1c0.2,1.4,0.4,2.8,0.6,4.2
			c0.1,0.7,0.1,1.4,0.2,2.1c0.1,0.7,0.1,1.4,0.2,2.1c0.1,0.7,0.1,1.4,0.2,2.1l0.1,1.1l0.1,1.1c0,0.7,0.1,1.4,0.1,2.2
			c0,0.7,0,1.4,0.1,2.2c0.1,1.4,0,2.9,0,4.4v0.6l0,0.6l0,1.1c0,0.7,0,1.5-0.1,2.2c-0.1,1.5-0.1,3-0.3,4.4c-0.1,0.7-0.1,1.5-0.2,2.2
			c-0.1,0.7-0.1,1.5-0.2,2.2c-1.3,11.9-4.2,24-9,35.6c-4.7,11.6-11.2,22.9-19.3,33c-2,2.6-4.2,5-6.4,7.4c-2.2,2.4-4.6,4.7-7,7
			c-4.8,4.5-10,8.7-15.5,12.5c-11,7.6-23.3,13.6-36.2,17.7c-6.5,2-13.1,3.6-19.9,4.6l-2.5,0.4c-0.9,0.1-1.7,0.2-2.5,0.3
			c-0.4,0.1-0.9,0.1-1.3,0.1l-1.3,0.1c-0.9,0.1-1.7,0.2-2.6,0.2l-2.6,0.2c-0.4,0-0.9,0.1-1.3,0.1l-1.3,0.1l-1.3,0.1
			c-0.4,0-0.9,0-1.3,0l-2.7,0l-2.4,0h-0.6h-0.3c-0.1,0-0.2,0-0.3,0l-1.3-0.1l-1.3-0.1l-0.7,0c-0.2,0-0.4,0-0.6,0l-2.6-0.2
			c-0.9-0.1-1.7-0.1-2.6-0.2l-1.3-0.1c-0.4,0-0.9-0.1-1.3-0.1c-0.9-0.1-1.7-0.2-2.5-0.3l-2.5-0.4c-3.4-0.5-6.7-1.1-10-1.9
			c-3.3-0.8-6.6-1.6-9.9-2.7c-13-4-25.3-10.1-36.3-17.7c-11-7.6-20.7-16.8-28.9-27c-8.1-10.2-14.6-21.4-19.4-33.1
			c-4.8-11.6-7.7-23.7-9-35.6c-0.1-0.7-0.1-1.5-0.2-2.2c-0.1-0.7-0.1-1.5-0.2-2.2c-0.1-1.5-0.2-3-0.3-4.4c0-0.7,0-1.5-0.1-2.2l0-1.1
			l0-0.6v-0.6c0-1.5,0-2.9,0-4.4l0-1.1l0-0.5v-0.3c0-0.1,0-0.3,0-0.3c0-0.7,0.1-1.4,0.1-2.1l0.1-1l0.1-1.1c0.1-0.7,0.1-1.5,0.2-2.2
			c0.1-0.7,0.1-1.4,0.2-2.1c0.1-0.7,0.1-1.4,0.2-2.1c0.2-1.4,0.3-2.8,0.6-4.2c0.1-0.7,0.2-1.4,0.3-2.1c0.1-0.7,0.2-1.4,0.4-2.1
			l0.2-1l0.2-1c0.1-0.7,0.3-1.4,0.4-2.1c0.1-0.7,0.3-1.4,0.5-2c0.2-0.7,0.3-1.4,0.5-2c0.4-1.3,0.7-2.7,1.1-4c0.2-0.7,0.4-1.3,0.6-2
			c0.2-0.6,0.4-1.3,0.6-1.9c0.1-0.3,0.2-0.6,0.3-1c0.1-0.3,0.2-0.6,0.3-1c0.2-0.6,0.4-1.3,0.6-1.9c0.2-0.6,0.5-1.3,0.7-1.9
			c0.2-0.6,0.4-1.3,0.7-1.9c0.2-0.6,0.5-1.2,0.7-1.9c0.1-0.3,0.2-0.6,0.4-0.9c0.1-0.3,0.3-0.6,0.4-0.9c2-4.9,4.3-9.5,6.8-14
			c2.5-4.4,5.1-8.6,8-12.6c5.6-7.9,11.9-14.8,18.3-20.8c6.5-6,13.1-11,19.7-15.1c6.6-4.2,13.1-7.5,19.3-10.1
			c1.5-0.7,3.1-1.3,4.6-1.9c1.5-0.6,3-1.1,4.5-1.6c1.5-0.5,2.9-0.9,4.3-1.4c0.7-0.2,1.4-0.4,2.1-0.6c0.4-0.1,0.7-0.2,1-0.3
			s0.7-0.2,1-0.3c5.4-1.4,10.3-2.4,14.6-3c4.3-0.6,8-1,10.9-1.2c0.7,0,1.4-0.1,2.1-0.1c0.7,0,1.3-0.1,1.8-0.1c0.6,0,1.1,0,1.6-0.1
			c0.5,0,0.9,0,1.3,0C133.8,0.1,134.5,0,134.5,0z M134.5,0c0,0-0.8,0-2.3,0c-0.4,0-0.8,0-1.3,0c-0.5,0-1,0-1.6,0.1
			c-0.6,0-1.2,0-1.8,0.1c-0.7,0-1.4,0.1-2.1,0.1c-3,0.2-6.6,0.6-10.9,1.3c-4.3,0.7-9.1,1.7-14.5,3.2c-0.3,0.1-0.7,0.2-1,0.3
			c-0.3,0.1-0.7,0.2-1,0.3c-0.7,0.2-1.4,0.4-2.1,0.6C94.5,6.5,93,7,91.6,7.5c-1.4,0.5-2.9,1.1-4.4,1.7c-1.5,0.6-3,1.2-4.5,1.9
			c-6.1,2.8-12.5,6.3-18.9,10.6S51,31.4,45,37.5c-3,3.1-6,6.4-8.8,9.9c-2.8,3.5-5.5,7.3-8,11.3c-2.5,4-4.8,8.2-6.9,12.6
			c-0.3,0.5-0.5,1.1-0.8,1.7c-0.3,0.6-0.5,1.1-0.8,1.7c-0.2,0.6-0.5,1.1-0.7,1.7c-0.2,0.6-0.5,1.1-0.7,1.7c-0.5,1.1-0.9,2.3-1.4,3.5
			c-0.2,0.6-0.4,1.2-0.6,1.8c-0.2,0.6-0.4,1.2-0.6,1.8c-0.1,0.3-0.2,0.6-0.3,0.9c-0.1,0.3-0.2,0.6-0.3,0.9c-0.2,0.6-0.4,1.2-0.6,1.8
			c-0.2,0.6-0.4,1.2-0.5,1.8c-0.2,0.6-0.4,1.2-0.5,1.8c-0.2,0.6-0.3,1.2-0.5,1.9l-0.2,0.9l-0.2,0.9c-0.1,0.6-0.3,1.3-0.4,1.9
			c-0.1,0.6-0.3,1.3-0.4,1.9c-0.3,1.3-0.5,2.6-0.7,3.8c-0.1,0.6-0.2,1.3-0.3,1.9c-0.1,0.6-0.2,1.3-0.3,1.9c-0.1,0.6-0.2,1.3-0.2,2
			l-0.1,1l-0.1,1c-0.1,0.6-0.1,1.3-0.2,2c-0.1,0.7-0.1,1.3-0.1,2c-0.1,1.3-0.2,2.6-0.2,4c0,0.7,0,1.3-0.1,2c0,0.7,0,1.3,0,2
			c0,0.7,0,1.3,0,2v1l0,1.1c0,0.7,0,1.4,0.1,2.1c0,0.7,0.1,1.3,0.1,2c0.1,1.4,0.2,2.7,0.3,4.1l0,0.5l0.1,0.5l0.1,1
			c0.1,0.7,0.1,1.4,0.2,2c0.2,1.4,0.3,2.7,0.6,4.1c0.1,0.7,0.2,1.4,0.3,2c0.1,0.7,0.2,1.4,0.4,2c0.1,0.3,0.1,0.7,0.2,1l0.2,1
			c0.1,0.7,0.3,1.4,0.4,2c0.3,1.4,0.6,2.7,1,4.1c0.7,2.7,1.5,5.4,2.3,8c0.2,0.7,0.4,1.3,0.7,2l0.2,0.5l0.2,0.5l0.4,1
			c0.5,1.3,1,2.6,1.5,3.9c0.3,0.6,0.5,1.3,0.8,1.9l0.4,1c0.1,0.3,0.3,0.6,0.4,1c0.3,0.6,0.6,1.3,0.9,1.9c0.3,0.6,0.6,1.3,0.9,1.9
			c1.3,2.5,2.6,5.1,4,7.5l0.5,0.9c0.2,0.3,0.4,0.6,0.6,0.9c0.4,0.6,0.7,1.2,1.1,1.8c0.8,1.2,1.5,2.4,2.3,3.6
			c0.8,1.2,1.6,2.4,2.4,3.5c0.4,0.6,0.9,1.1,1.3,1.7l0.6,0.9l0.7,0.9c1.7,2.3,3.6,4.5,5.5,6.7c7.7,8.6,16.6,16.3,26.5,22.6
			c9.9,6.3,20.7,11.2,32,14.5c5.7,1.7,11.4,2.9,17.3,3.7l2.2,0.3l2.2,0.2c0.4,0,0.7,0.1,1.1,0.1l1.1,0.1c0.7,0.1,1.5,0.1,2.2,0.2
			l2.2,0.1c0.2,0,0.4,0,0.6,0l0.5,0l1.1,0l1.1,0c0.1,0,0.2,0,0.3,0h0.3h0.6l2.4,0l2.1,0c0.4,0,0.7,0,1.1,0l1.1,0l1.1,0
			c0.4,0,0.7,0,1.1-0.1l2.2-0.1c0.7,0,1.5-0.1,2.2-0.2l1.1-0.1c0.4,0,0.7-0.1,1.1-0.1l2.2-0.2l2.2-0.3c0.7-0.1,1.5-0.2,2.2-0.3
			c0.7-0.1,1.5-0.2,2.2-0.4l2.2-0.4l2.2-0.5c2.9-0.6,5.8-1.3,8.6-2.2c11.3-3.3,22.1-8.2,32.1-14.5c9.9-6.3,18.9-14,26.5-22.6
			c7.7-8.6,14.1-18.3,19.1-28.5c0.3-0.6,0.6-1.3,0.9-1.9c0.3-0.6,0.6-1.3,0.9-1.9c0.1-0.3,0.3-0.6,0.4-1l0.4-1
			c0.3-0.6,0.6-1.3,0.8-1.9c0.5-1.3,1.1-2.6,1.5-3.9l0.4-1l0.2-0.5l0.2-0.5c0.2-0.7,0.4-1.3,0.7-2c0.9-2.7,1.7-5.3,2.3-8
			c0.4-1.4,0.6-2.7,1-4.1c0.1-0.7,0.3-1.4,0.4-2l0.2-1c0.1-0.3,0.1-0.7,0.2-1c0.1-0.7,0.2-1.4,0.4-2c0.1-0.7,0.2-1.4,0.3-2
			c0.2-1.4,0.4-2.7,0.6-4.1c0.1-0.7,0.1-1.4,0.2-2l0.1-1l0.1-0.5l0-0.5c0.1-1.3,0.2-2.6,0.3-4.1c0-0.7,0.1-1.4,0.1-2
			c0-0.7,0-1.4,0.1-2l0-1v-1c0-0.7,0-1.4,0-2s0-1.3,0-2c0-0.7,0-1.3-0.1-2c-0.1-1.3-0.1-2.7-0.2-4c-0.1-0.7-0.1-1.3-0.1-2
			c-0.1-0.7-0.1-1.3-0.2-2l-0.1-1l-0.1-1c-0.1-0.6-0.2-1.3-0.2-2c-0.1-0.6-0.2-1.3-0.3-1.9c-0.1-0.6-0.2-1.3-0.3-1.9
			c-0.2-1.3-0.4-2.6-0.7-3.8c-1-5.1-2.4-10-4-14.8c-0.2-0.6-0.4-1.2-0.6-1.8c-0.2-0.6-0.4-1.2-0.6-1.8c-0.4-1.2-0.9-2.3-1.4-3.5
			c-0.2-0.6-0.5-1.1-0.7-1.7c-0.2-0.6-0.5-1.1-0.7-1.7c-0.3-0.6-0.5-1.1-0.8-1.7c-0.3-0.6-0.5-1.1-0.8-1.7c-0.3-0.6-0.5-1.1-0.8-1.6
			c-0.1-0.3-0.3-0.6-0.4-0.8c-0.1-0.3-0.3-0.5-0.4-0.8c-0.3-0.5-0.6-1.1-0.8-1.6s-0.6-1.1-0.9-1.6c-0.3-0.5-0.6-1.1-0.9-1.6
			c-0.3-0.5-0.6-1-0.9-1.5c-0.1-0.3-0.3-0.5-0.4-0.8s-0.3-0.5-0.5-0.8c-0.3-0.5-0.6-1-0.9-1.5c-2.5-4-5.2-7.8-8-11.3
			c-2.8-3.6-5.8-6.9-8.8-9.9c-6.1-6.2-12.4-11.4-18.8-15.7s-12.8-7.9-18.9-10.6c-1.5-0.7-3-1.3-4.5-1.9c-1.5-0.6-3-1.2-4.4-1.7
			c-1.4-0.5-2.9-1-4.3-1.5c-0.7-0.2-1.4-0.4-2.1-0.6c-0.3-0.1-0.7-0.2-1-0.3c-0.3-0.1-0.7-0.2-1-0.3c-5.4-1.5-10.2-2.5-14.5-3.2
			c-4.3-0.7-7.9-1-10.9-1.3c-0.7-0.1-1.4-0.1-2.1-0.1c-0.6,0-1.3-0.1-1.8-0.1c-0.6,0-1.1,0-1.6-0.1c-0.5,0-0.9,0-1.3,0
			C135.3,0.1,134.5,0,134.5,0z"/>
	</g>
</g>
<g id="Layer_9" class="st1">
	<path class="st2" d="M3084.1,547.2c0,0,247.5-155.1-66.3-483.6c0,0,225.1,42.8,380.1,220.8c103.5,118.8,186.7,316.3,88.6,524.7
		c-9.1,19.3-184,111-195,129.3c-12,19.9,153.5-13.9,139.7-5.5c-34.3,21.2-224.7,109.8-290,101.5c-117-15-89.8-129-89.8-129
		L3084.1,547.2z"/>
	<g id="Layer_10" class="st2">
		<g>
			<path class="st0" d="M3210.4,145.6c0,0,0.8,1.4,2.1,3.9c1.3,2.6,3.3,6.4,5.7,11.3c2.3,4.9,5.2,10.9,8.2,17.9s6.3,14.9,9.7,23.6
				c3.4,8.7,6.9,18.3,10.3,28.4c3.4,10.2,6.8,21,9.9,32.3c1.6,5.6,3.1,11.4,4.6,17.3c1.5,5.9,2.9,11.8,4.2,17.8
				c2.7,12,4.9,24.4,6.8,36.8c1.8,12.4,3.2,24.9,4,37.3c0.4,6.2,0.7,12.3,0.7,18.4c0.1,6.1,0.1,12.1-0.2,18
				c-0.4,11.8-1.5,23.3-3.2,34c-1.7,10.8-4.1,20.8-6.9,29.9c-0.7,2.3-1.4,4.5-2.2,6.6s-1.5,4.2-2.3,6.2s-1.6,3.9-2.4,5.8
				c-0.8,1.9-1.7,3.7-2.5,5.4c-3.4,6.9-6.8,12.7-9.9,17.2c-0.8,1.1-1.5,2.2-2.2,3.2s-1.4,1.9-2.1,2.7c-0.6,0.8-1.2,1.6-1.8,2.3
				s-1.1,1.3-1.6,1.9c-1.9,2.2-2.9,3.4-2.9,3.4s0.8-1.4,2.2-3.9c0.4-0.6,0.8-1.3,1.2-2.1s0.9-1.7,1.3-2.6c1-1.9,2.1-4,3.2-6.5
				c2.4-4.8,4.7-10.9,7.1-18c2.4-7,4.6-15.1,6.4-24.1c1.8-8.9,3.2-18.7,4.1-29.1c0.9-10.4,1.3-21.4,1.1-32.8
				c-0.1-2.9-0.1-5.7-0.2-8.6c-0.1-2.9-0.2-5.8-0.4-8.8c-0.1-1.5-0.2-2.9-0.2-4.4c-0.1-1.5-0.2-3-0.3-4.4c-0.2-3-0.4-6-0.7-8.9
				c-1.1-12-2.5-24.1-4.3-36.2c-1.7-12.1-3.9-24.2-6.1-36.1c-1.2-5.9-2.4-11.8-3.6-17.6c-0.6-2.9-1.2-5.8-1.9-8.6
				c-0.6-2.9-1.3-5.7-1.9-8.5c-2.6-11.2-5.2-22.1-7.9-32.4c-2.6-10.3-5.2-20-7.7-28.9s-4.8-17.1-6.9-24.4c-2.1-7.2-4-13.6-5.5-18.8
				c-1.6-5.2-2.8-9.3-3.7-12.1C3210.9,147.1,3210.4,145.6,3210.4,145.6z"/>
		</g>
		<g>
			<path class="st0" d="M3377.4,263.4c0,0,0.4,1.5,0.9,4.4s1.4,7.1,2.3,12.5c0.9,5.4,1.9,11.9,2.9,19.5c1,7.5,1.9,16.1,2.7,25.4
				c0.8,9.3,1.5,19.4,1.9,30.2c0.4,10.7,0.7,22,0.5,33.8c0,5.9-0.2,11.8-0.4,17.9c-0.2,6-0.5,12.1-1,18.3
				c-0.8,12.3-2.1,24.8-3.8,37.2c-1.8,12.4-3.9,24.8-6.6,36.9c-1.3,6.1-2.8,12-4.4,17.9c-1.6,5.9-3.3,11.6-5.2,17.3
				c-3.7,11.3-7.9,21.9-12.6,31.8c-4.6,9.8-9.7,18.9-14.9,26.8c-1.3,2-2.6,3.9-3.9,5.8c-1.4,1.8-2.6,3.6-4,5.4
				c-1.4,1.7-2.7,3.3-4,4.9s-2.6,3.1-3.9,4.5c-5.2,5.7-10.1,10.3-14.3,13.8c-1.1,0.9-2,1.7-3,2.5c-1,0.7-1.9,1.4-2.8,2
				c-0.9,0.6-1.6,1.2-2.4,1.8c-0.8,0.5-1.4,1-2,1.4c-2.4,1.6-3.8,2.4-3.8,2.4s1.1-1.1,3.2-3.1c0.5-0.5,1.1-1.1,1.8-1.7
				c0.6-0.6,1.3-1.4,2-2.1c1.4-1.5,3.1-3.3,4.9-5.3c3.6-4,7.6-9.2,11.9-15.3c4.3-6.1,8.6-13.3,12.8-21.3c4.2-8.1,8.3-17.1,12-26.8
				c3.8-9.7,7.2-20.2,10.2-31.2c0.7-2.8,1.5-5.5,2.2-8.3s1.5-5.6,2.1-8.5c0.3-1.4,0.7-2.9,1-4.3c0.3-1.4,0.6-2.9,0.9-4.4
				c0.7-2.9,1.2-5.8,1.8-8.8c2.3-11.8,4.4-23.8,6-36c1.7-12.1,3-24.3,4.2-36.3c0.5-6,1-12,1.5-17.9c0.2-3,0.4-5.9,0.6-8.8
				c0.2-2.9,0.4-5.8,0.5-8.7c0.7-11.5,1.1-22.7,1.5-33.3c0.3-10.6,0.6-20.6,0.7-29.9c0.1-9.3,0.2-17.8,0.2-25.3s0-14.1-0.1-19.6
				c-0.1-5.4-0.1-9.7-0.2-12.6C3377.4,264.9,3377.4,263.4,3377.4,263.4z"/>
		</g>
		<g>
			<path class="st0" d="M3537.9,497.2c0,0-0.3,1.3-0.9,3.7c-0.7,2.4-1.6,6-2.9,10.5c-2.7,9-6.9,21.7-12.9,36.6
				c-3,7.5-6.4,15.5-10.3,23.8c-3.9,8.4-8.2,17.1-13,26c-2.4,4.4-4.9,8.9-7.5,13.4s-5.3,9-8.1,13.5c-5.6,9-11.7,17.9-18.2,26.6
				c-6.5,8.6-13.3,17.1-20.6,25c-3.6,4-7.3,7.8-11,11.5s-7.6,7.2-11.4,10.5c-7.7,6.7-15.7,12.6-23.6,17.7c-7.9,5-15.9,9.2-23.4,12.4
				c-7.6,3.2-14.8,5.5-21.2,6.9c-1.6,0.4-3.2,0.6-4.7,1c-0.8,0.1-1.5,0.3-2.2,0.4s-1.5,0.2-2.2,0.3c-1.4,0.2-2.8,0.4-4.1,0.5
				s-2.5,0.2-3.7,0.3c-2.3,0.2-4.5,0.2-6.3,0.2c-0.9,0-1.8,0-2.5,0c-0.8,0-1.5-0.1-2.1-0.1c-2.5-0.1-3.8-0.2-3.8-0.2
				s1.3-0.2,3.8-0.7c0.6-0.1,1.3-0.2,2.1-0.3c0.8-0.1,1.6-0.3,2.4-0.5c1.8-0.4,3.8-0.8,6-1.4c1.1-0.3,2.3-0.6,3.5-0.9
				c1.2-0.4,2.5-0.8,3.8-1.2c0.7-0.2,1.3-0.4,2-0.6s1.4-0.5,2.1-0.7c1.4-0.5,2.9-1,4.3-1.6c5.9-2.3,12.4-5.4,19.1-9.2
				c6.7-3.8,13.8-8.5,20.8-13.8c7.1-5.4,14.2-11.5,21.1-18.2c3.5-3.4,7-6.9,10.4-10.5c0.9-0.9,1.7-1.8,2.6-2.7
				c0.8-0.9,1.7-1.9,2.5-2.8c1.7-1.9,3.4-3.8,5.1-5.7c6.7-7.8,13.2-15.9,19.4-24.3c6.3-8.3,12.3-16.9,18-25.5
				c2.8-4.3,5.7-8.6,8.4-12.9s5.3-8.5,7.9-12.7c5.1-8.4,10-16.7,14.5-24.5c4.5-7.9,8.7-15.4,12.5-22.4c7.6-13.9,13.7-25.7,18-34
				c2.1-4.2,3.8-7.4,4.9-9.6C3537.3,498.3,3537.9,497.2,3537.9,497.2z"/>
		</g>
		<g>
			<path class="st0" d="M3565.3,766.7c0,0-0.7,0.7-2.2,2c-1.4,1.2-3.5,3.1-6.3,5.4c-5.5,4.5-13.5,10.8-23.6,17.8
				c-10,7-22,14.7-35.3,22.2c-3.3,1.9-6.7,3.7-10.2,5.6s-7,3.7-10.6,5.5c-7.2,3.6-14.6,7-22.2,10.2c-7.6,3.1-15.2,6.1-22.9,8.7
				c-1.9,0.6-3.8,1.3-5.7,1.9s-3.8,1.2-5.7,1.7c-3.8,1.1-7.6,2.2-11.4,3c-7.5,1.8-14.9,3.2-22,4.1s-13.9,1.2-20.1,1.1
				c-6.3-0.1-12-0.7-17-1.7s-9.3-2.3-12.7-3.5c-1.7-0.7-3.2-1.3-4.4-1.9c-1.3-0.6-2.3-1.1-3.2-1.6c-1.7-1-2.5-1.5-2.5-1.5
				s1,0.2,2.8,0.7s4.6,1,8,1.4c3.5,0.4,7.6,0.7,12.4,0.7c4.8-0.1,10.2-0.4,16-1.2c5.8-0.8,12.1-2,18.6-3.6
				c6.6-1.6,13.4-3.5,20.5-5.8c1.8-0.6,3.5-1.2,5.3-1.7c1.8-0.6,3.6-1.2,5.4-1.8c3.6-1.3,7.2-2.6,10.9-3.9c7.3-2.8,14.7-5.7,22-8.8
				c7.3-3,14.6-6.3,21.8-9.5c3.6-1.6,7.1-3.3,10.6-4.9s6.9-3.2,10.3-4.8c13.6-6.4,26.2-12.6,37-17.9c10.9-5.3,20-9.7,26.3-12.8
				C3561.7,768.5,3565.3,766.7,3565.3,766.7z"/>
		</g>
		<g>
			<path class="st0" d="M3414.4,964.7c0,0-0.6,0.4-1.8,1s-2.9,1.6-5.1,2.7c-1.1,0.6-2.3,1.2-3.7,1.8c-1.3,0.7-2.8,1.3-4.4,2
				c-3.2,1.3-6.9,2.7-11,4.2c-4.1,1.3-8.6,2.6-13.4,3.9c-1.2,0.4-2.4,0.6-3.7,0.8c-1.2,0.3-2.5,0.5-3.8,0.8s-2.6,0.5-3.9,0.8
				c-1.3,0.2-2.6,0.5-4,0.7c-2.7,0.4-5.4,0.7-8.2,1c-1.4,0.2-2.8,0.4-4.2,0.5s-2.8,0.2-4.2,0.2c-2.8,0.1-5.7,0.4-8.6,0.4
				c-2.9,0-5.8-0.1-8.7-0.1s-5.8-0.3-8.7-0.5c-1.4-0.1-2.9-0.2-4.3-0.4c-0.7-0.1-1.4-0.1-2.1-0.2l-2.1-0.3c-1.4-0.2-2.8-0.4-4.2-0.6
				s-2.8-0.5-4.2-0.7c-2.7-0.5-5.4-1.1-8.1-1.7c-2.6-0.6-5.2-1.3-7.7-2.1c-1.3-0.4-2.5-0.7-3.7-1.1c-0.6-0.2-1.2-0.4-1.8-0.5
				c-0.6-0.2-1.2-0.4-1.8-0.6c-2.3-0.9-4.6-1.7-6.8-2.5c-2.2-0.9-4.2-1.9-6.2-2.8c-1-0.5-1.9-0.9-2.9-1.3c-0.9-0.5-1.8-1-2.7-1.4
				c-1.7-1-3.4-1.9-4.9-2.7c-3-1.8-5.5-3.6-7.6-5c-2-1.5-3.5-2.8-4.6-3.7c-1-0.9-1.6-1.3-1.6-1.3s0.7,0.2,2,0.6s3.2,0.9,5.5,1.7
				c2.4,0.6,5.2,1.5,8.5,2.4c1.7,0.4,3.4,0.8,5.2,1.3c0.9,0.2,1.8,0.5,2.8,0.7s2,0.4,3,0.6c2,0.4,4.1,1,6.3,1.4s4.4,0.8,6.7,1.2
				c0.6,0.1,1.2,0.2,1.7,0.3c0.6,0.1,1.2,0.2,1.8,0.3c1.2,0.2,2.4,0.4,3.6,0.5c1.2,0.2,2.4,0.4,3.7,0.6c1.2,0.2,2.5,0.3,3.8,0.5
				c2.5,0.3,5.1,0.7,7.7,0.9c1.3,0.1,2.6,0.2,3.9,0.3c1.3,0.1,2.6,0.3,4,0.4c2.6,0.3,5.4,0.3,8,0.5c2.7,0.2,5.4,0.4,8.1,0.4
				c2.7,0.1,5.4,0.2,8.1,0.2c2.7,0,5.4,0,8.1,0c5.4,0.1,10.6-0.4,15.8-0.4c5.1-0.3,10.1-0.7,14.8-1c2.4-0.2,4.6-0.5,6.9-0.7
				c2.2-0.2,4.4-0.3,6.5-0.6c4.1-0.5,7.9-0.9,11.3-1.3c1.7-0.1,3.3-0.4,4.8-0.6s2.8-0.4,4.1-0.5c2.5-0.3,4.4-0.5,5.8-0.6
				C3413.7,964.7,3414.4,964.7,3414.4,964.7z"/>
		</g>
	</g>
	<path class="st2" d="M2736,547.2c0,0-247.5-155.1,66.3-483.6c0,0-688,274-488.3,733.6c150.3,345.9,502.8,169.1,502.8,169.1
		L2736,547.2z"/>
	<g class="st2">
		<path class="st0" d="M2596.3,145.6c0,0-0.5,1.5-1.3,4.3s-2.1,6.9-3.7,12.1c-1.6,5.2-3.4,11.5-5.5,18.8s-4.4,15.4-6.9,24.4
			c-2.5,8.9-5.1,18.6-7.7,28.9c-2.6,10.3-5.3,21.1-7.9,32.4c-0.6,2.8-1.3,5.7-1.9,8.5c-0.6,2.9-1.3,5.7-1.9,8.6
			c-1.2,5.8-2.4,11.7-3.6,17.6c-2.3,11.9-4.4,23.9-6.1,36.1c-1.8,12.1-3.2,24.3-4.3,36.2c-0.2,3-0.5,6-0.7,8.9
			c-0.1,1.5-0.2,3-0.3,4.4c-0.1,1.5-0.2,2.9-0.2,4.4c-0.2,2.9-0.3,5.9-0.4,8.8c-0.1,2.9-0.1,5.8-0.2,8.6
			c-0.1,11.4,0.2,22.4,1.1,32.8c0.9,10.4,2.3,20.2,4.1,29.1c1.8,8.9,4,17,6.4,24.1c2.4,7,4.8,13.1,7.1,18c1.1,2.5,2.2,4.6,3.2,6.5
			c0.5,0.9,0.9,1.8,1.3,2.6c0.4,0.8,0.9,1.5,1.2,2.1c1.4,2.5,2.2,3.9,2.2,3.9s-1-1.2-2.9-3.4c-0.5-0.6-1-1.2-1.6-1.9
			c-0.5-0.7-1.1-1.5-1.8-2.3c-0.6-0.8-1.3-1.8-2.1-2.7c-0.7-1-1.4-2.1-2.2-3.2c-3.1-4.5-6.5-10.3-9.9-17.2c-0.8-1.7-1.7-3.5-2.5-5.4
			s-1.6-3.8-2.4-5.8c-0.8-2-1.5-4.1-2.3-6.2c-0.8-2.1-1.4-4.4-2.2-6.6c-2.8-9.1-5.1-19.1-6.9-29.9c-1.7-10.8-2.8-22.2-3.2-34
			c-0.2-5.9-0.3-11.9-0.2-18s0.3-12.2,0.7-18.4c0.7-12.4,2.2-24.9,4-37.3c1.9-12.4,4.1-24.8,6.8-36.8c1.3-6,2.7-12,4.2-17.8
			c1.5-5.9,3-11.6,4.6-17.3c3.1-11.3,6.5-22.1,9.9-32.3s6.9-19.7,10.3-28.4c3.4-8.7,6.7-16.6,9.7-23.6s5.8-13,8.2-17.9
			c2.3-4.9,4.3-8.7,5.7-11.3C2595.6,147,2596.3,145.6,2596.3,145.6z"/>
	</g>
	<g class="st2">
		<path class="st0" d="M2429.4,263.4c0,0,0,1.6-0.1,4.5c0,2.9-0.1,7.2-0.2,12.6c-0.1,5.4-0.1,12-0.1,19.6c0,7.5,0,16.1,0.2,25.3
			c0.1,9.3,0.3,19.3,0.7,29.9c0.3,10.6,0.8,21.8,1.5,33.3c0.2,2.9,0.4,5.8,0.5,8.7c0.2,2.9,0.4,5.9,0.6,8.8c0.4,5.9,1,11.9,1.5,17.9
			c1.1,12,2.5,24.2,4.2,36.3c1.6,12.1,3.7,24.2,6,36c0.6,2.9,1.2,5.9,1.8,8.8c0.3,1.5,0.6,2.9,0.9,4.4c0.3,1.4,0.7,2.9,1,4.3
			c0.7,2.9,1.4,5.7,2.1,8.5c0.7,2.8,1.5,5.6,2.2,8.3c3.1,11,6.5,21.5,10.2,31.2s7.8,18.8,12,26.8c4.2,8.1,8.6,15.3,12.8,21.3
			c4.3,6.1,8.3,11.3,11.9,15.3c1.7,2.1,3.4,3.8,4.9,5.3c0.7,0.8,1.4,1.5,2,2.1s1.2,1.2,1.8,1.7c2.1,2,3.2,3.1,3.2,3.1
			s-1.3-0.8-3.8-2.4c-0.6-0.4-1.3-0.9-2-1.4s-1.5-1.1-2.4-1.8c-0.9-0.6-1.8-1.3-2.8-2s-1.9-1.6-3-2.5c-4.3-3.5-9.1-8.1-14.3-13.8
			c-1.3-1.4-2.6-2.9-3.9-4.5c-1.3-1.6-2.6-3.2-4-4.9c-1.3-1.7-2.6-3.5-4-5.4c-1.3-1.8-2.6-3.8-3.9-5.8c-5.2-7.9-10.3-17-14.9-26.8
			c-4.7-9.8-8.9-20.5-12.6-31.8c-1.9-5.6-3.6-11.4-5.2-17.3c-1.6-5.9-3.1-11.8-4.4-17.9c-2.7-12.1-4.9-24.5-6.6-36.9
			c-1.7-12.4-3-24.9-3.8-37.2c-0.4-6.2-0.8-12.3-1-18.3s-0.4-12-0.4-17.9c-0.1-11.7,0.1-23,0.5-33.8c0.4-10.7,1.1-20.8,1.9-30.2
			c0.8-9.3,1.8-17.8,2.7-25.4c1-7.5,2-14.1,2.9-19.5s1.7-9.6,2.3-12.5C2429,264.9,2429.4,263.4,2429.4,263.4z"/>
	</g>
	<g class="st2">
		<path class="st0" d="M2268.8,497.2c0,0,0.6,1.2,1.7,3.4c1.1,2.2,2.8,5.5,4.9,9.6c4.3,8.3,10.4,20.1,18,34c3.8,7,8,14.5,12.5,22.4
			s9.3,16.1,14.5,24.5c2.6,4.2,5.2,8.5,7.9,12.7c2.7,4.3,5.5,8.6,8.4,12.9c5.7,8.6,11.7,17.2,18,25.5c6.2,8.4,12.7,16.5,19.4,24.3
			c1.7,1.9,3.3,3.9,5.1,5.7c0.8,0.9,1.7,1.9,2.5,2.8c0.9,0.9,1.7,1.8,2.6,2.7c3.4,3.7,6.9,7.1,10.4,10.5c7,6.8,14.1,12.9,21.1,18.2
			c7.1,5.4,14.1,10,20.8,13.8s13.2,6.9,19.1,9.2c1.5,0.6,2.9,1.1,4.3,1.6c0.7,0.3,1.4,0.5,2.1,0.7c0.7,0.2,1.4,0.4,2,0.6
			c1.3,0.4,2.6,0.8,3.8,1.2c1.2,0.3,2.4,0.6,3.5,0.9c2.2,0.6,4.2,1,6,1.4c0.9,0.2,1.7,0.4,2.4,0.5c0.8,0.1,1.4,0.2,2.1,0.3
			c2.5,0.4,3.8,0.7,3.8,0.7s-1.3,0.1-3.8,0.2c-0.6,0-1.3,0.1-2.1,0.1s-1.6,0-2.5,0c-1.8,0-3.9,0-6.3-0.2c-1.2-0.1-2.4-0.2-3.7-0.3
			c-1.3-0.2-2.7-0.4-4.1-0.5c-0.7-0.1-1.4-0.2-2.2-0.3c-0.7-0.1-1.5-0.3-2.2-0.4c-1.5-0.3-3.1-0.6-4.7-1c-6.5-1.5-13.7-3.8-21.2-6.9
			c-7.6-3.2-15.5-7.3-23.4-12.4s-15.9-11-23.6-17.7c-3.9-3.3-7.7-6.9-11.4-10.5c-3.8-3.6-7.4-7.5-11-11.5
			c-7.2-7.9-14.1-16.3-20.6-25c-6.4-8.7-12.6-17.6-18.2-26.6c-2.8-4.5-5.5-9-8.1-13.5s-5.1-9-7.5-13.4c-4.8-8.9-9.1-17.6-13-26
			s-7.3-16.4-10.3-23.8c-6-14.9-10.2-27.6-12.9-36.6c-1.4-4.5-2.3-8-2.9-10.5C2269.1,498.5,2268.8,497.2,2268.8,497.2z"/>
	</g>
	<g class="st2">
		<path class="st0" d="M2241.4,766.7c0,0,3.7,1.8,10.1,4.8c6.4,3.1,15.4,7.5,26.3,12.8c10.9,5.3,23.5,11.5,37,17.9
			c3.4,1.6,6.8,3.2,10.3,4.8c3.5,1.6,7,3.2,10.6,4.9c7.2,3.2,14.4,6.4,21.8,9.5c7.3,3.1,14.7,6,22,8.8c3.7,1.3,7.3,2.7,10.9,3.9
			c1.8,0.6,3.6,1.3,5.4,1.8c1.8,0.6,3.5,1.2,5.3,1.7c7,2.2,13.9,4.2,20.5,5.8c6.6,1.6,12.8,2.8,18.6,3.6c5.8,0.8,11.2,1.2,16,1.2
			s9-0.3,12.4-0.7c3.4-0.5,6.2-1,8-1.4c1.9-0.5,2.8-0.7,2.8-0.7s-0.9,0.5-2.5,1.5c-0.8,0.5-1.9,1-3.2,1.6c-1.2,0.7-2.8,1.2-4.4,1.9
			c-3.4,1.3-7.6,2.6-12.7,3.5c-5,0.9-10.7,1.5-17,1.7c-6.3,0.1-13-0.2-20.1-1.1s-14.5-2.2-22-4.1c-3.8-0.9-7.6-1.9-11.4-3
			c-1.9-0.5-3.8-1.1-5.7-1.7s-3.8-1.3-5.7-1.9c-7.7-2.6-15.3-5.6-22.9-8.7c-7.5-3.2-15-6.6-22.2-10.2c-3.6-1.8-7.2-3.6-10.6-5.5
			c-3.5-1.8-6.9-3.7-10.2-5.6c-13.3-7.5-25.3-15.2-35.3-22.2s-18.1-13.2-23.6-17.8c-2.8-2.3-4.9-4.1-6.3-5.4
			C2242.1,767.4,2241.4,766.7,2241.4,766.7z"/>
	</g>
	<g class="st2">
		<path class="st0" d="M2392.3,964.7c0,0,0.7,0,2.1,0.2c1.3,0.1,3.3,0.3,5.8,0.6c1.2,0.1,2.6,0.3,4.1,0.5s3.1,0.5,4.8,0.6
			c3.4,0.3,7.2,0.8,11.3,1.3c2.1,0.2,4.2,0.4,6.5,0.6c2.2,0.2,4.5,0.4,6.9,0.7c4.7,0.3,9.7,0.6,14.8,1c5.1,0.1,10.4,0.5,15.8,0.4
			c2.7,0,5.4,0,8.1,0c2.7-0.1,5.4-0.2,8.1-0.2c2.7,0,5.4-0.2,8.1-0.4c2.7-0.2,5.4-0.2,8-0.5c1.3-0.1,2.7-0.3,4-0.4s2.6-0.2,3.9-0.3
			c2.6-0.3,5.2-0.7,7.7-0.9c1.3-0.2,2.5-0.3,3.8-0.5c1.2-0.2,2.5-0.4,3.7-0.6s2.4-0.4,3.6-0.5c0.6-0.1,1.2-0.2,1.8-0.3
			c0.6-0.1,1.2-0.2,1.7-0.3c2.3-0.4,4.5-0.9,6.7-1.2c2.2-0.4,4.2-0.9,6.3-1.4c1-0.2,2-0.4,3-0.6s1.9-0.5,2.8-0.7
			c1.8-0.5,3.6-0.9,5.2-1.3c3.3-0.9,6.1-1.7,8.5-2.4c2.3-0.8,4.2-1.3,5.5-1.7c1.3-0.4,2-0.6,2-0.6s-0.5,0.5-1.6,1.3
			c-1,0.8-2.5,2.1-4.6,3.7c-2.1,1.4-4.6,3.2-7.6,5c-1.5,0.9-3.2,1.8-4.9,2.7c-0.9,0.5-1.8,1-2.7,1.4s-1.9,0.9-2.9,1.3
			c-2,0.9-4,1.9-6.2,2.8c-2.2,0.8-4.4,1.7-6.8,2.5c-0.6,0.2-1.2,0.4-1.8,0.6s-1.2,0.4-1.8,0.5c-1.2,0.4-2.5,0.7-3.7,1.1
			c-2.5,0.8-5.1,1.5-7.7,2.1c-2.6,0.6-5.3,1.2-8.1,1.7c-1.4,0.2-2.8,0.4-4.2,0.7c-1.4,0.2-2.8,0.4-4.2,0.6l-2.1,0.3
			c-0.7,0.1-1.4,0.1-2.1,0.2c-1.4,0.1-2.9,0.3-4.3,0.4c-2.9,0.2-5.8,0.5-8.7,0.5s-5.8,0.1-8.7,0.1s-5.7-0.3-8.6-0.4
			c-1.4-0.1-2.8-0.2-4.2-0.2c-1.4-0.1-2.8-0.3-4.2-0.5c-2.8-0.3-5.5-0.7-8.2-1c-1.3-0.2-2.7-0.5-4-0.7s-2.6-0.5-3.9-0.8
			c-1.3-0.3-2.5-0.5-3.8-0.8c-1.2-0.3-2.5-0.5-3.7-0.8c-4.8-1.3-9.3-2.6-13.4-3.9c-4.1-1.5-7.8-2.9-11-4.2c-1.6-0.6-3.1-1.3-4.4-2
			c-1.3-0.7-2.6-1.2-3.7-1.8c-2.2-1.1-4-2.1-5.1-2.7C2393,965,2392.3,964.7,2392.3,964.7z"/>
	</g>
</g>
<g id="Layer_11" class="st1">
	<path class="st2" d="M3067.3,587.4c0,0,180.2-251.3,0-423c-18.9-18-41.1-63,0-63s232.2,90.6,164.8,318
		C3207,504.3,3067.3,587.4,3067.3,587.4z"/>
	<path class="st2" d="M3025,601.2c0,0,290.3-129.3,200.3-372.6c-9.4-25.5-9.3-76.5,29.8-55.5s177.9,198.5,6.1,364.4
		C3197.2,599.3,3025,601.2,3025,601.2z"/>
	<path class="st2" d="M3012.9,610c0,0,321.2-6,325.9-269.7c0.5-27.6,19.4-75.4,48.5-40.2s94.6,256.5-128.3,343.8
		C3175.9,676.5,3012.9,610,3012.9,610z"/>
	<path class="st2" d="M3037.4,612.3c0,0,309.1,80.6,388-168.7c8.3-26.1,39.8-66.4,57.8-25.1c17.9,41.3,18.2,269.2-219.7,292.2
		C3174.6,719.3,3037.4,612.3,3037.4,612.3z"/>
	<path class="st2" d="M3049.3,679.4c0,0,279.3,91.3,412-95.9c13.9-19.6,53.5-48.1,61.4-14.3S3479,780.9,3244.5,777
		C3157.1,775.5,3049.3,679.4,3049.3,679.4z"/>
	<path class="st2" d="M3104,712.5c0,0,244,141.9,381.1-40.4c14.4-19.1,52.8-43.9,56.8-6s-59,222.5-270.4,182.1
		C3192.5,833.1,3104,712.5,3104,712.5z"/>
	<path class="st2" d="M3111.5,795.1c0,0,216.1,124.9,368.1,7.8c15.9-12.3,55.4-26.3,54.8,1.2c-0.6,27.4-82.2,153.3-279.1,104.1
		C3181.9,889.9,3111.5,795.1,3111.5,795.1z"/>
	<path class="st2" d="M3186.7,757.9c0,0,54.9,194.3,216,157.5c16.9-3.9,48.9,0.5,32.2,23.5c-16.8,23-140.9,96.1-229.5-26.3
		C3172.3,866.9,3186.7,757.9,3186.7,757.9z"/>
	<path class="st2" d="M3186.6,766.5c0,0-35.6,156.3,84.9,202.2c12.6,4.8,32.3,21.9,12.6,30.1c-19.6,8.2-129.1,3.3-142.6-119
		C3136.6,834.3,3186.6,766.5,3186.6,766.5z"/>
	<path class="st2" d="M3049.3,553.4"/>
	<g id="Layer_12" class="st2">
		<path d="M3044.1,587.4l115.1-120l132,162.7l55.7,222l-77.3,67.4l-23.3,80.2c0,0-120-4.3-220.8-80.2
			C2949.4,862.2,3044.1,587.4,3044.1,587.4z"/>
	</g>
</g>
<g id="Layer_13">
</g>
<g id="Layer_2">
	<g id="Layer_2_copy">
		<path d="M170.7,99.8c1.5,10.6,20.2,14.3,20.9-5.5c2.3-63.4-43.7-72.8-41.5-76.9c2.2-4.1,34-0.9,60.7,28.6c4.4,4.9,8.9,8.6,0,34.2
			c0,0,21.3,3.4,22.1-12.2c0.3-7,14.9,11,9.8,30.7c-3.4,12.9-5.2,16.8-19.3,29.9c0,0,16.5,0.5,21-3.8c4.4-4.3,11.9,7.1-15,34.9
			c-44.4,45.8-67.9,27.4-67.9,27.4s6.8-24,8.4-41.7C171.9,122.6,170.7,99.8,170.7,99.8z"/>
		<path d="M99.5,99.8c-1.5,10.6-20.2,14.3-20.9-5.5C76.2,31,122.2,21.6,120,17.5c-2.2-4.1-34-0.9-60.7,28.6c-4.4,4.9-8.9,8.6,0,34.2
			c0,0-21.3,3.4-22.1-12.2c-0.3-7-14.9,11-9.8,30.7c3.4,12.9,5.2,16.8,19.3,29.9c0,0-16.5,0.5-21-3.8s-11.9,7.1,15,34.9
			c44.4,45.8,67.9,27.4,67.9,27.4s-6.8-24-8.4-41.7C98.2,122.6,99.5,99.8,99.5,99.8z"/>
	</g>
</g>
<g id="Layer_2_copy_2">
	<path class="st1" d="M134.5,44.7c0,0,10.4-1.5,21.5,7.4c11.1,8.9,12.5,34,13.3,43.7c2.6,29.3-7.8,75.2-7.8,75.2s-8.5,24.1-12.2,27
		l12.2,25.9c0,0,0.7,17.4-11.9,9.6c0,0-4.8,13.7-15.2,13.7"/>
	<g>
		<path d="M134.5,248.7c-9.2,0-14.2-9.4-15.9-13.1c-1.6,0.8-3.4,1.1-5.1,1.1c-11.4,0-21.9-15.4-22.4-16l-0.7-1.1l27.3-21.7
			c-1.2-1.6-3.2-5.2-6.8-13.9c-2.6-6.4-4.7-12.4-4.7-12.5l0-0.1l0-0.1c0-0.1-2.6-11.7-4.9-26.7c-2.1-13.9-4.3-33.6-2.9-48.9
			c0.1-0.6,0.1-1.3,0.2-2.1c0.9-11,2.8-33.9,13.7-42.6c8.5-6.8,16.5-7.8,20.6-7.8c0.9,0,1.5,0.1,1.8,0.1c0.3,0,0.9-0.1,1.8-0.1
			c4,0,12.1,1,20.6,7.8c10.9,8.7,12.8,31.6,13.7,42.6c0.1,0.8,0.1,1.5,0.2,2.1c1.4,15.3-0.9,35-2.9,48.9c-2.3,15-4.9,26.6-4.9,26.7
			l0,0.1l0,0.1c0,0.1-2.2,6.1-4.7,12.5c-3.5,8.7-5.6,12.3-6.8,13.9l27.8,21.7l-0.8,1.1c-0.5,0.6-11.3,16-22.8,16l0,0
			c-1.8,0-3.6-0.4-5.2-1.1C148.7,239.3,143.6,248.7,134.5,248.7z"/>
		<path class="st0" d="M136.3,44.6c3.4,0,11.4,0.8,19.7,7.5c11.1,8.9,12.5,34,13.3,43.7c2.6,29.3-7.8,75.2-7.8,75.2
			s-8.5,24.1-12.2,27l27.9,21.8c0,0-10.7,15.4-21.7,15.4c-2,0-4-0.5-5.9-1.7c0,0-4.8,13.7-15.2,13.7s-15.2-13.7-15.2-13.7
			c-1.9,1.2-3.9,1.7-5.9,1.7c-10.8,0-21.2-15.4-21.2-15.4l27.4-21.8c-3.7-3-12.2-27-12.2-27s-10.4-45.9-7.8-75.2
			c0.9-9.7,2.2-34.8,13.3-43.7c8.3-6.7,16.3-7.5,19.7-7.5c1.1,0,1.8,0.1,1.8,0.1S135.1,44.6,136.3,44.6 M136.3,41.9
			c-0.8,0-1.4,0-1.8,0.1c-0.4,0-1-0.1-1.8-0.1c-1.9,0-5.1,0.2-8.8,1.4c-4.5,1.4-8.7,3.6-12.6,6.7c-2.7,2.2-5.1,5.4-7.1,9.4
			c-1.6,3.3-2.9,7.3-4,11.9c-1.9,8.2-2.6,16.6-3.1,22.1c-0.1,0.8-0.1,1.5-0.2,2.1c-1.1,12.4-0.1,28.9,2.9,49.2
			c2.3,15.1,4.9,26.7,4.9,26.8l0,0.2l0.1,0.1c0,0.1,2.2,6.1,4.8,12.5c2.9,7.1,4.8,10.9,6.2,13.1l-25.3,20.1l-2,1.6l1.4,2.1
			c0.1,0.2,2.8,4.1,6.9,8.1c5.8,5.6,11.4,8.5,16.6,8.5c1.5,0,3-0.2,4.5-0.7c0.7,1.4,1.6,3.1,2.9,4.8c3.8,5.2,8.6,8,13.7,8
			c5.2,0,9.9-2.8,13.7-8c1.2-1.7,2.2-3.4,2.9-4.8c1.4,0.5,2.9,0.7,4.5,0.7c5.3,0,10.9-2.9,16.9-8.5c4.2-4,7-8,7.1-8.1l1.5-2.1
			l-2.1-1.6l-25.7-20.1c1.4-2.2,3.3-6,6.2-13.1c2.6-6.4,4.7-12.5,4.8-12.5l0.1-0.1l0-0.2c0-0.1,2.6-11.8,4.9-26.8
			c3-20.3,4-36.9,2.9-49.2c-0.1-0.6-0.1-1.3-0.2-2.1c-0.5-5.6-1.2-13.9-3.1-22.1c-1.1-4.6-2.4-8.6-4-11.9c-1.9-4.1-4.3-7.3-7.1-9.4
			c-3.9-3.1-8.1-5.4-12.6-6.7C141.3,42.1,138.2,41.9,136.3,41.9L136.3,41.9z"/>
	</g>
</g>
<g id="Layer_5">
	<path class="st0" d="M135.7,65.8c1.1-3.3,7-17.2,20.9-3.3s7,42.2-21.8,48.9"/>
	<path class="st0" d="M133.2,66c-1.1-3.3-7-17.2-20.9-3.3s-6.4,42.2,22.4,48.9"/>
</g>
<g id="Layer_5_copy">
	<g>
		<path d="M134.6,111.5c0,0,0-0.1,0-0.2c0-0.1-0.1-0.4-0.1-0.7c-0.1-0.6-0.2-1.5-0.3-2.6c-0.1-0.6-0.1-1.2-0.1-1.9
			c0-0.7-0.1-1.4-0.1-2.3c0-1.6,0-3.4,0.1-5.4c0.1-2,0.4-4.1,0.9-6.4c0.2-1.1,0.5-2.3,0.9-3.5c0.4-1.2,0.8-2.4,1.3-3.6
			c0.3-0.6,0.5-1.2,0.9-1.8c0.1-0.3,0.3-0.6,0.5-0.9c0.2-0.3,0.4-0.6,0.5-0.9c0.7-1.1,1.6-2.3,2.6-3.3c0.5-0.5,1-1,1.6-1.4
			c0.3-0.2,0.6-0.4,0.9-0.6c0.2-0.1,0.3-0.2,0.4-0.3c0.1-0.1,0.3-0.2,0.4-0.3c0.6-0.4,1.2-0.7,1.9-1c0.7-0.3,1.4-0.6,2.2-0.8
			s1.7-0.3,2.6-0.2c0.5,0.1,1,0.2,1.4,0.4c0.5,0.2,0.9,0.5,1.3,0.9s0.7,0.8,0.9,1.2c0.2,0.4,0.4,0.9,0.5,1.3
			c0.2,0.9,0.2,1.7,0.2,2.4c-0.1,0.8-0.2,1.5-0.4,2.2c-0.2,0.7-0.5,1.4-0.8,2c-0.6,1.3-1.4,2.4-2.4,3.4c-0.9,1-2,1.8-3.2,2.4
			c-0.3,0.1-0.6,0.3-0.9,0.4c-0.1,0.1-0.3,0.1-0.4,0.2l-0.2,0.1l-0.2,0.1l-0.2,0.1l-0.1,0l-0.1,0c-0.1,0.1-0.3,0.1-0.5,0.1
			c-0.3,0.1-0.6,0.1-0.9,0.2c-0.6,0.1-1.3,0.2-1.9,0.1c-0.6-0.1-1.3-0.2-1.9-0.6c-0.6-0.3-1.1-0.8-1.4-1.3c-0.4-0.5-0.6-1.1-0.7-1.6
			c-0.3-1.1-0.2-2.1-0.1-3.1s0.4-1.8,0.6-2.6l0.1-0.1l0.1-0.1l0-0.1l0.1-0.1c0-0.1,0.1-0.1,0.1-0.1c0.1-0.2,0.3-0.4,0.4-0.5
			c0.3-0.3,0.6-0.5,0.9-0.7c0.6-0.4,1.1-0.8,1.6-1.1c1-0.6,1.7-1.1,2.2-1.4c0.2-0.2,0.4-0.4,0.5-0.5c0-0.1,0.1-0.1,0.1-0.2
			s0-0.1,0-0.1s0,0.1,0,0.2c-0.1,0.1-0.2,0.3-0.4,0.6c-0.4,0.4-1.1,1-2,1.7c-0.4,0.4-0.9,0.8-1.4,1.2c-0.2,0.2-0.5,0.5-0.7,0.8
			c-0.1,0.1-0.2,0.3-0.3,0.4c0,0,0,0.1,0,0.1l0,0.1c0,0.1,0,0.2-0.1,0.3c-0.2,0.7-0.3,1.6-0.3,2.4c0,0.8,0.1,1.7,0.4,2.5
			c0.1,0.4,0.3,0.8,0.6,1.1c0.2,0.3,0.5,0.5,0.9,0.7c0.7,0.3,1.6,0.3,2.5,0c0.2-0.1,0.5-0.1,0.7-0.2c0.1,0,0.2-0.1,0.4-0.1l0.1,0
			l0.1,0l0.2-0.1l0.2-0.1l0.2-0.1c0.1-0.1,0.2-0.1,0.3-0.2c0.2-0.1,0.4-0.3,0.7-0.4c0.9-0.6,1.6-1.3,2.3-2.2
			c0.7-0.9,1.2-1.8,1.6-2.8c0.4-1,0.7-2.1,0.7-3.1c0-0.5,0-1-0.2-1.4c-0.1-0.4-0.3-0.7-0.5-0.9c-0.2-0.2-0.4-0.3-0.7-0.3
			c-0.3,0-0.8,0-1.3,0.1c-1,0.2-2,0.8-3,1.4l-0.4,0.2c-0.1,0.1-0.3,0.2-0.4,0.3c-0.2,0.2-0.5,0.3-0.7,0.5c-0.4,0.4-0.9,0.7-1.3,1.1
			c-1.6,1.6-2.9,3.6-3.9,5.6c-0.5,1-1,2.1-1.4,3.1s-0.7,2.1-1.1,3.2c-0.3,1-0.6,2.1-0.8,3.1c-0.2,1-0.4,2-0.6,2.9
			c-0.4,1.9-0.6,3.6-0.8,5.2c-0.1,0.8-0.2,1.5-0.3,2.2c-0.1,0.7-0.1,1.3-0.2,1.9c-0.1,1.1-0.2,2-0.2,2.6
			C134.7,111.2,134.6,111.5,134.6,111.5z"/>
	</g>
	<g>
		<path d="M134.5,111.5c0,0,0-0.3-0.1-0.9c0-0.6-0.1-1.5-0.2-2.6c-0.1-0.6-0.1-1.2-0.2-1.9c-0.1-0.7-0.2-1.4-0.3-2.2
			c-0.2-1.6-0.5-3.3-0.8-5.2c-0.2-0.9-0.4-1.9-0.6-2.9c-0.2-1-0.5-2-0.8-3.1c-0.3-1-0.6-2.1-1.1-3.2c-0.4-1.1-0.9-2.1-1.4-3.1
			c-1-2.1-2.3-4.1-3.9-5.6c-0.4-0.4-0.8-0.8-1.3-1.1c-0.2-0.2-0.5-0.3-0.7-0.5c-0.1-0.1-0.3-0.2-0.4-0.3l-0.4-0.2
			c-1-0.6-2.1-1.2-3-1.4c-0.5-0.1-0.9-0.2-1.3-0.1s-0.5,0.1-0.7,0.3c-0.2,0.2-0.4,0.4-0.5,0.9c-0.1,0.4-0.2,0.9-0.2,1.4
			c0,1,0.3,2.1,0.7,3.1s1,2,1.6,2.8c0.7,0.9,1.4,1.6,2.3,2.2c0.2,0.1,0.4,0.3,0.7,0.4c0.1,0.1,0.2,0.1,0.3,0.2l0.2,0.1l0.2,0.1
			l0.2,0.1l0.1,0l0.1,0c0.1,0.1,0.2,0.1,0.4,0.1c0.2,0.1,0.5,0.2,0.7,0.2c0.9,0.3,1.9,0.3,2.5,0c0.3-0.1,0.6-0.4,0.9-0.7
			c0.2-0.3,0.4-0.7,0.6-1.1c0.3-0.8,0.4-1.7,0.4-2.5s-0.1-1.6-0.3-2.4c0-0.1,0-0.2-0.1-0.3l0-0.1c0,0,0-0.1,0-0.1
			c-0.1-0.1-0.2-0.3-0.3-0.4c-0.2-0.3-0.4-0.5-0.7-0.8c-0.5-0.5-1-0.9-1.4-1.2c-0.9-0.7-1.6-1.3-2-1.7c-0.2-0.2-0.4-0.4-0.4-0.6
			c-0.1-0.1,0-0.2,0-0.2s0,0,0,0.1c0,0,0,0.1,0.1,0.2c0.1,0.1,0.3,0.3,0.5,0.5c0.5,0.4,1.2,0.8,2.2,1.4c0.5,0.3,1,0.6,1.6,1.1
			c0.3,0.2,0.6,0.5,0.9,0.7c0.1,0.1,0.3,0.3,0.4,0.5c0,0.1,0.1,0.1,0.1,0.1l0.1,0.1l0,0.1l0.1,0.1l0.1,0.1c0.3,0.8,0.5,1.6,0.6,2.6
			c0.1,0.9,0.1,2-0.1,3.1c-0.1,0.5-0.4,1.1-0.7,1.6c-0.4,0.5-0.8,1-1.4,1.3c-0.6,0.3-1.3,0.5-1.9,0.6s-1.3,0-1.9-0.1
			c-0.3-0.1-0.6-0.1-0.9-0.2c-0.1,0-0.3-0.1-0.5-0.1l-0.1,0l-0.1,0l-0.2-0.1l-0.2-0.1l-0.2-0.1c-0.1-0.1-0.3-0.1-0.4-0.2
			c-0.3-0.1-0.6-0.3-0.9-0.4c-1.2-0.6-2.2-1.4-3.2-2.4c-0.9-1-1.8-2.1-2.4-3.4c-0.3-0.6-0.6-1.3-0.8-2c-0.2-0.7-0.4-1.4-0.4-2.2
			c-0.1-0.8,0-1.6,0.2-2.4c0.1-0.4,0.3-0.9,0.5-1.3c0.2-0.4,0.5-0.9,0.9-1.2c0.4-0.4,0.8-0.7,1.3-0.9s1-0.4,1.4-0.4
			c1-0.1,1.8,0,2.6,0.2c0.8,0.2,1.5,0.5,2.2,0.8c0.7,0.3,1.3,0.7,1.9,1c0.1,0.1,0.3,0.2,0.4,0.3c0.2,0.1,0.3,0.2,0.4,0.3
			c0.3,0.2,0.6,0.4,0.9,0.6c0.6,0.4,1.1,0.9,1.6,1.4c1,1,1.9,2.1,2.6,3.3c0.2,0.3,0.4,0.6,0.5,0.9c0.2,0.3,0.3,0.6,0.5,0.9
			c0.3,0.6,0.6,1.2,0.9,1.8c0.5,1.2,0.9,2.4,1.3,3.6c0.4,1.2,0.6,2.3,0.9,3.5c0.5,2.3,0.7,4.4,0.9,6.4c0.1,2,0.1,3.8,0.1,5.4
			c0,0.8-0.1,1.6-0.1,2.3c-0.1,0.7-0.1,1.3-0.1,1.9c-0.1,1.1-0.2,2.1-0.3,2.6c0,0.3-0.1,0.5-0.1,0.7
			C134.5,111.5,134.5,111.5,134.5,111.5z"/>
	</g>
</g>
</svg>
