<?xml version="1.0" encoding="utf-8"?>
<!-- Generator: Adobe Illustrator 22.1.0, SVG Export Plug-In . SVG Version: 6.00 Build 0)  -->
<svg version="1.1" xmlns="http://www.w3.org/2000/svg" xmlns:xlink="http://www.w3.org/1999/xlink" x="0px" y="0px"
	 viewBox="0 0 1900 2244" style="enable-background:new 0 0 1900 2244;" xml:space="preserve">
<style type="text/css">
	.st0{fill:#FFFFFF;}
	.st1{display:none;}
	.st2{display:inline;}
</style>
<g id="Layer_8">
	<g>
		<circle class="st0" cx="936.5" cy="1187.6" r="701"/>
		<path d="M936.5,486.6c0,0,4.3,0.1,12.6,0.1c2.1,0,4.4,0,7,0.1c2.6,0.1,5.4,0.2,8.5,0.3c3.1,0.1,6.4,0.2,9.9,0.4
			c3.6,0.2,7.3,0.4,11.4,0.7c16.1,1.1,35.9,2.9,59.1,6.4c23.1,3.5,49.6,8.7,78.7,16.4c1.8,0.5,3.7,0.9,5.5,1.5
			c1.8,0.5,3.7,1.1,5.5,1.6c3.7,1.1,7.5,2.1,11.3,3.3c7.6,2.4,15.4,4.7,23.2,7.5c3.9,1.4,8,2.6,11.9,4.1c4,1.5,8.1,3,12.1,4.5
			c8.1,3.2,16.4,6.4,24.8,10c33.5,14.1,68.7,32.1,104.4,54.5c35.7,22.5,71.8,49.6,106.6,81.9c34.8,32.3,68.5,69.7,98.9,112.4
			c1.9,2.7,3.8,5.4,5.7,8.1c0.9,1.4,1.9,2.7,2.8,4.1c0.9,1.4,1.8,2.8,2.8,4.1c1.8,2.8,3.7,5.5,5.5,8.3c1.8,2.8,3.6,5.6,5.4,8.4
			c1.8,2.8,3.6,5.6,5.4,8.5c1.7,2.9,3.5,5.8,5.2,8.7c0.9,1.5,1.7,2.9,2.6,4.4c0.9,1.5,1.7,2.9,2.5,4.4c1.7,3,3.4,5.9,5.1,8.9
			c13.4,23.9,25.5,49.1,36.5,75.4c0.7,1.6,1.4,3.3,2.1,4.9c0.7,1.6,1.3,3.3,2,5c1.3,3.3,2.6,6.7,3.9,10c1.3,3.3,2.5,6.7,3.7,10.1
			c1.2,3.4,2.5,6.8,3.7,10.2c1.2,3.4,2.3,6.9,3.5,10.3c0.6,1.7,1.2,3.5,1.7,5.2c0.5,1.7,1.1,3.5,1.6,5.2c1.1,3.5,2.2,7,3.2,10.5
			c1,3.5,2,7.1,3,10.6c2.1,7.1,3.8,14.3,5.7,21.5c1,3.6,1.7,7.2,2.6,10.9c0.8,3.6,1.7,7.3,2.5,11c0.7,3.7,1.5,7.4,2.2,11.1l1.1,5.5
			l1,5.6c0.7,3.7,1.3,7.5,2,11.2c0.6,3.7,1.2,7.5,1.7,11.3c1.2,7.5,2.1,15.1,3.1,22.8c0.5,3.8,0.8,7.6,1.2,11.5
			c0.4,3.8,0.8,7.7,1.1,11.5c0.3,3.9,0.6,7.7,0.9,11.6l0.4,5.8l0.3,5.8c0.2,3.9,0.4,7.8,0.6,11.7c0.1,3.9,0.2,7.8,0.3,11.7
			c0.3,7.4,0.2,15.6,0.2,23.7l0,3l-0.1,3l-0.2,6c-0.1,4-0.2,8-0.4,11.9c-0.4,8-0.7,16-1.5,24c-0.3,4-0.6,8-1,12c-0.4,4-0.8,8-1.2,12
			c-7.1,64.3-22.9,129.5-48.6,192.3c-25.5,62.8-60.5,123.4-104.4,178.4c-10.9,13.8-22.5,27.2-34.5,40.2
			c-12,13.1-24.6,25.6-37.6,37.8c-26.1,24.4-54,47-83.8,67.5c-59.4,41.1-125.7,73.6-195.7,95.4c-35,11-71,19.2-107.4,24.7l-13.7,2
			c-4.6,0.6-9.1,1.1-13.7,1.6c-2.3,0.3-4.6,0.6-6.9,0.8l-6.9,0.6c-4.6,0.4-9.2,0.9-13.8,1.2l-13.8,0.9c-2.3,0.2-4.6,0.3-6.9,0.3
			l-6.9,0.3l-6.9,0.3c-2.3,0.1-4.6,0.1-6.9,0.1l-14.4,0.2l-12.9-0.2l-3.2,0l-1.6,0c-0.5,0-1.2,0-1.7-0.1l-7.1-0.3l-7.1-0.3l-3.6-0.1
			c-1.2,0-2.3-0.1-3.5-0.2l-13.8-0.9c-4.6-0.3-9.2-0.8-13.8-1.2l-6.9-0.6c-2.3-0.2-4.6-0.5-6.9-0.8c-4.6-0.5-9.1-1-13.7-1.6l-13.7-2
			c-18.2-2.8-36.3-6.1-54.2-10.3c-17.9-4.2-35.7-8.8-53.2-14.4c-70.1-21.8-136.4-54.3-195.8-95.4c-59.5-41-112-90.5-155.9-145.6
			c-43.9-55-78.9-115.6-104.5-178.5c-25.7-62.9-41.5-128.1-48.6-192.4c-0.4-4-0.8-8-1.2-12c-0.4-4-0.6-8-1-12c-0.7-8-1-16-1.4-24
			c-0.2-4-0.2-8-0.4-11.9l-0.2-6l-0.1-3l0-3c0-7.9-0.1-15.8,0.2-23.7l0.1-5.9l0.1-2.9l0-1.5c0-0.4,0-1.6,0.1-1.7
			c0.2-3.8,0.4-7.6,0.6-11.3l0.3-5.6l0.4-5.9c0.3-3.9,0.6-7.9,0.9-11.8c0.3-3.9,0.8-7.7,1.1-11.6c0.4-3.8,0.7-7.7,1.2-11.5
			c1-7.6,1.8-15.2,3.1-22.8c0.6-3.8,1.1-7.5,1.7-11.3c0.7-3.7,1.3-7.5,2-11.2l1-5.6l1.1-5.5c0.8-3.7,1.5-7.4,2.3-11.1
			c0.8-3.7,1.7-7.3,2.5-11c0.9-3.6,1.6-7.3,2.6-10.9c1.9-7.2,3.6-14.4,5.7-21.5c1-3.6,2-7.1,3-10.6c1.1-3.5,2.2-7,3.2-10.5
			c0.5-1.7,1.1-3.5,1.6-5.2c0.6-1.7,1.2-3.5,1.7-5.2c1.2-3.5,2.3-6.9,3.5-10.3c1.2-3.4,2.5-6.8,3.7-10.2c1.3-3.4,2.4-6.8,3.7-10.1
			c1.3-3.3,2.6-6.7,3.9-10c0.7-1.7,1.3-3.3,2-5c0.7-1.6,1.4-3.3,2.1-4.9c10.9-26.3,23.1-51.5,36.5-75.4c13.4-23.9,27.8-46.5,43-67.9
			c30.4-42.7,64.1-80.1,99-112.4c34.9-32.3,71-59.4,106.6-81.8c35.7-22.5,70.9-40.4,104.4-54.5c8.3-3.6,16.7-6.8,24.8-10
			c8.2-3,16.2-6,24.1-8.6c7.9-2.8,15.7-5.1,23.2-7.5c3.8-1.1,7.6-2.2,11.3-3.3c1.9-0.5,3.7-1.1,5.5-1.6c1.8-0.5,3.7-1,5.5-1.5
			c29.1-7.7,55.6-12.9,78.7-16.4c23.1-3.5,43-5.3,59.1-6.4c4-0.2,7.8-0.5,11.4-0.7c3.6-0.2,6.9-0.3,9.9-0.4c3.1-0.1,5.9-0.2,8.5-0.3
			c2.6-0.1,4.9-0.1,7-0.1C932.2,486.7,936.5,486.6,936.5,486.6z M936.5,486.6c0,0-4.3,0.1-12.6,0.2c-2.1,0-4.4,0-7,0.1
			c-2.6,0.1-5.4,0.2-8.5,0.3c-3.1,0.1-6.4,0.2-9.9,0.4c-3.6,0.2-7.3,0.5-11.4,0.7c-16.1,1.2-35.9,3.1-59,6.8
			c-23.1,3.7-49.4,9.2-78.4,17.4c-1.8,0.5-3.6,1-5.5,1.5c-1.8,0.6-3.7,1.1-5.5,1.7c-3.7,1.1-7.4,2.3-11.2,3.5
			c-7.5,2.5-15.2,5-23,7.9c-7.8,2.8-15.7,5.9-23.8,9.1c-8,3.4-16.2,6.7-24.4,10.5c-33,14.9-67.4,33.8-101.9,57.3
			c-34.5,23.5-68.9,51.8-101.6,85.1c-16.3,16.7-32.2,34.5-47.4,53.7c-15.2,19.1-29.7,39.4-43.1,61.1c-13.5,21.6-26,44.3-37.4,68.1
			c-1.5,2.9-2.8,6-4.2,9c-1.4,3-2.7,6-4.1,9.1c-1.3,3.1-2.6,6.1-3.9,9.2c-1.3,3.1-2.6,6.1-3.8,9.3c-2.5,6.2-5,12.5-7.3,18.8
			c-1.2,3.2-2.4,6.3-3.5,9.5c-1.1,3.2-2.2,6.4-3.3,9.6c-0.5,1.6-1.1,3.2-1.6,4.8c-0.5,1.6-1,3.3-1.5,4.9c-1,3.3-2,6.5-3,9.8
			c-1,3.3-1.9,6.6-2.9,9.9c-0.9,3.3-1.9,6.6-2.8,9.9c-0.9,3.3-1.7,6.7-2.6,10l-1.3,5l-1.2,5.1c-0.8,3.4-1.6,6.8-2.4,10.2
			c-0.7,3.4-1.4,6.8-2.1,10.3c-1.5,6.8-2.6,13.8-3.9,20.7c-0.7,3.5-1.1,7-1.7,10.4c-0.5,3.5-1.1,7-1.6,10.5c-0.4,3.5-0.9,7-1.3,10.6
			l-0.7,5.3l-0.5,5.3c-0.4,3.5-0.7,7.1-1.1,10.6c-0.3,3.6-0.5,7.1-0.8,10.7c-0.6,7.1-0.9,14.3-1.3,21.5c-0.2,3.6-0.2,7.2-0.3,10.8
			c-0.1,3.6-0.2,7.2-0.2,10.8c0,3.6,0,7.1,0,10.7l0,5.4l0.1,5.7c0.1,3.8,0.2,7.5,0.3,11.3c0.2,3.6,0.4,7.1,0.5,10.7
			c0.3,7.3,1,14.6,1.5,22l0.2,2.8l0.3,2.7l0.6,5.5c0.4,3.7,0.7,7.3,1.2,11c1,7.3,1.8,14.7,3,22c0.6,3.7,1.1,7.3,1.7,11
			c0.7,3.7,1.3,7.3,2,11c0.3,1.8,0.6,3.7,1,5.5l1.1,5.5c0.8,3.7,1.5,7.3,2.3,11c1.7,7.3,3.3,14.6,5.2,21.9c3.6,14.6,8,29,12.6,43.4
			c1.2,3.6,2.4,7.2,3.6,10.7l0.9,2.7l1,2.7l2,5.3c2.5,7.1,5.4,14.2,8.2,21.3c1.4,3.5,2.9,7,4.4,10.5l2.2,5.3
			c0.7,1.8,1.6,3.5,2.3,5.2c1.6,3.5,3.1,7,4.7,10.4c1.7,3.4,3.3,6.9,5,10.3c6.8,13.7,13.8,27.4,21.6,40.7l2.9,5c1,1.7,2,3.3,3,5
			c2,3.3,4,6.6,6,9.9c4.2,6.5,8.2,13.1,12.6,19.5c4.2,6.5,8.8,12.8,13.2,19.1c2.3,3.1,4.6,6.2,6.9,9.4l3.5,4.7l3.6,4.6
			c9.4,12.4,19.5,24.3,29.8,36c41.5,46.7,89.8,88.1,143.2,122.1c53.4,34,111.8,60.7,173,78.5c30.6,9,61.8,15.7,93.5,20.2l11.9,1.6
			l11.9,1.3c2,0.2,4,0.5,6,0.6l6,0.5c4,0.3,8,0.7,11.9,1l12,0.7c1,0.1,2,0.1,3,0.2l2.9,0.1l5.8,0.2l5.8,0.2c0.5,0,0.9,0,1.5,0l1.6,0
			l3.2,0l12.9,0.2l11.4-0.1c2,0,4,0,6-0.1l6-0.2l6-0.2c2-0.1,4-0.1,6-0.3l12-0.7c4-0.2,8-0.7,11.9-1l6-0.5c2-0.2,4-0.4,6-0.6
			l11.9-1.3l11.9-1.6c4-0.5,7.9-1.2,11.8-1.8c3.9-0.6,7.9-1.2,11.8-2l11.8-2.2l11.7-2.5c15.6-3.4,31.1-7.2,46.4-11.7
			c61.2-17.8,119.6-44.5,173.1-78.4c53.4-34,101.8-75.4,143.3-122.1c41.5-46.7,76.3-98.8,103.1-153.9c1.7-3.5,3.3-6.9,5-10.3
			c1.6-3.5,3.1-7,4.7-10.4c0.8-1.7,1.6-3.5,2.3-5.2l2.2-5.3c1.5-3.5,3-7,4.4-10.5c2.8-7.1,5.7-14.1,8.2-21.3l2-5.3l1-2.7l0.9-2.7
			c1.2-3.6,2.4-7.2,3.6-10.8c4.6-14.4,9-28.8,12.6-43.4c2-7.3,3.5-14.6,5.2-21.9c0.8-3.7,1.5-7.3,2.3-11l1.1-5.5
			c0.4-1.8,0.7-3.7,1-5.5c0.7-3.7,1.3-7.3,2-11c0.6-3.7,1.1-7.3,1.7-11c1.2-7.3,2-14.7,3-22c0.5-3.7,0.8-7.3,1.2-11l0.6-5.5l0.3-2.7
			l0.2-2.7c0.5-7.2,1.2-14.2,1.5-22c0.2-3.7,0.4-7.3,0.5-11c0.1-3.7,0.2-7.3,0.3-10.9l0.1-5.5l0-5.5c0-3.6,0-7.3,0-10.9
			c0-3.6-0.2-7.2-0.2-10.9c-0.1-3.6-0.1-7.2-0.3-10.8c-0.4-7.2-0.6-14.4-1.3-21.5c-0.3-3.6-0.5-7.1-0.8-10.7
			c-0.4-3.6-0.7-7.1-1.1-10.7l-0.5-5.3l-0.7-5.3c-0.4-3.5-0.9-7-1.3-10.6c-0.5-3.5-1.1-7-1.6-10.5c-0.6-3.5-1-7-1.7-10.4
			c-1.3-6.9-2.4-13.9-3.9-20.7c-5.6-27.4-12.7-54.2-21.4-79.9c-1.1-3.2-2.2-6.4-3.3-9.6c-1.1-3.2-2.3-6.4-3.5-9.5
			c-2.3-6.4-4.8-12.6-7.3-18.8c-1.2-3.1-2.5-6.2-3.8-9.3c-1.3-3.1-2.6-6.1-3.9-9.2c-1.4-3-2.8-6-4.1-9.1c-1.4-3-2.7-6-4.2-9
			c-1.4-3-2.9-5.9-4.3-8.9c-0.7-1.5-1.4-3-2.2-4.4c-0.8-1.5-1.5-2.9-2.3-4.4c-1.5-2.9-3-5.8-4.5-8.7c-1.5-2.9-3.1-5.7-4.7-8.6
			c-1.6-2.8-3.1-5.7-4.7-8.5c-1.6-2.8-3.2-5.6-4.9-8.3c-0.8-1.4-1.6-2.8-2.4-4.2c-0.8-1.4-1.7-2.7-2.5-4.1c-1.7-2.7-3.3-5.4-5-8.1
			c-13.4-21.6-28-41.9-43.2-61c-15.1-19.2-31.1-37-47.4-53.7c-32.7-33.3-67.1-61.5-101.6-85c-34.5-23.5-68.9-42.4-101.9-57.3
			c-8.2-3.8-16.4-7.2-24.4-10.5c-8.1-3.2-16-6.4-23.8-9.1c-7.8-2.9-15.5-5.4-23-7.9c-3.8-1.2-7.5-2.3-11.2-3.5
			c-1.8-0.6-3.7-1.1-5.5-1.7c-1.8-0.5-3.7-1-5.5-1.5c-28.9-8.2-55.3-13.7-78.4-17.4c-23.1-3.7-42.9-5.6-59-6.8
			c-4-0.3-7.8-0.5-11.4-0.7c-3.5-0.2-6.9-0.3-9.9-0.4c-3.1-0.1-5.9-0.2-8.5-0.3c-2.6-0.1-4.9-0.1-7-0.1
			C940.8,486.7,936.5,486.6,936.5,486.6z"/>
	</g>
</g>
<g id="Layer_9" class="st1">
	<path class="st2" d="M3293.7,1033.6c0,0,247.5-155.1-66.3-483.6c0,0,225.1,42.8,380.1,220.8c103.5,118.8,186.7,316.3,88.6,524.7
		c-9.1,19.3-184,111-195,129.3c-12,19.9,153.5-13.9,139.7-5.5c-34.3,21.2-224.7,109.8-290,101.5c-117-15-89.8-129-89.8-129
		L3293.7,1033.6z"/>
	<g id="Layer_10">
		<g class="st2">
			<path class="st0" d="M3420,632c0,0,0.8,1.4,2.1,3.9c1.3,2.6,3.3,6.4,5.7,11.3c2.3,4.9,5.2,10.9,8.2,17.9c3,7,6.3,14.9,9.7,23.6
				c3.4,8.7,6.9,18.3,10.3,28.4c3.4,10.2,6.8,21,9.9,32.3c1.6,5.6,3.1,11.4,4.6,17.3c1.5,5.9,2.9,11.8,4.2,17.8
				c2.7,12,4.9,24.4,6.8,36.8c1.8,12.4,3.2,24.9,4,37.3c0.4,6.2,0.7,12.3,0.7,18.4c0.1,6.1,0.1,12.1-0.2,18
				c-0.4,11.8-1.5,23.3-3.2,34c-1.7,10.8-4.1,20.8-6.9,29.9c-0.7,2.3-1.4,4.5-2.2,6.6c-0.8,2.1-1.5,4.2-2.3,6.2
				c-0.8,2-1.6,3.9-2.4,5.8c-0.8,1.9-1.7,3.7-2.5,5.4c-3.4,6.9-6.8,12.7-9.9,17.2c-0.8,1.1-1.5,2.2-2.2,3.2c-0.7,1-1.4,1.9-2.1,2.7
				c-0.6,0.8-1.2,1.6-1.8,2.3c-0.6,0.7-1.1,1.3-1.6,1.9c-1.9,2.2-2.9,3.4-2.9,3.4s0.8-1.4,2.2-3.9c0.4-0.6,0.8-1.3,1.2-2.1
				c0.4-0.8,0.9-1.7,1.3-2.6c1-1.9,2.1-4,3.2-6.5c2.4-4.8,4.7-10.9,7.1-18c2.4-7,4.6-15.1,6.4-24.1c1.8-8.9,3.2-18.7,4.1-29.1
				c0.9-10.4,1.3-21.4,1.1-32.8c-0.1-2.9-0.1-5.7-0.2-8.6c-0.1-2.9-0.2-5.8-0.4-8.8c-0.1-1.5-0.2-2.9-0.2-4.4
				c-0.1-1.5-0.2-3-0.3-4.4c-0.2-3-0.4-6-0.7-8.9c-1.1-12-2.5-24.1-4.3-36.2c-1.7-12.1-3.9-24.2-6.1-36.1
				c-1.2-5.9-2.4-11.8-3.6-17.6c-0.6-2.9-1.2-5.8-1.9-8.6c-0.6-2.9-1.3-5.7-1.9-8.5c-2.6-11.2-5.2-22.1-7.9-32.4
				c-2.6-10.3-5.2-20-7.7-28.9c-2.5-8.9-4.8-17.1-6.9-24.4c-2.1-7.2-4-13.6-5.5-18.8c-1.6-5.2-2.8-9.3-3.7-12.1
				C3420.5,633.5,3420,632,3420,632z"/>
		</g>
		<g class="st2">
			<path class="st0" d="M3587,749.8c0,0,0.4,1.5,0.9,4.4c0.5,2.9,1.4,7.1,2.3,12.5c0.9,5.4,1.9,11.9,2.9,19.5
				c1,7.5,1.9,16.1,2.7,25.4c0.8,9.3,1.5,19.4,1.9,30.2c0.4,10.7,0.7,22,0.5,33.8c0,5.9-0.2,11.8-0.4,17.9c-0.2,6-0.5,12.1-1,18.3
				c-0.8,12.3-2.1,24.8-3.8,37.2c-1.8,12.4-3.9,24.8-6.6,36.9c-1.3,6.1-2.8,12-4.4,17.9c-1.6,5.9-3.3,11.6-5.2,17.3
				c-3.7,11.3-7.9,21.9-12.6,31.8c-4.6,9.8-9.7,18.9-14.9,26.8c-1.3,2-2.6,3.9-3.9,5.8c-1.4,1.8-2.6,3.6-4,5.4
				c-1.4,1.7-2.7,3.3-4,4.9c-1.3,1.6-2.6,3.1-3.9,4.5c-5.2,5.7-10.1,10.3-14.3,13.8c-1.1,0.9-2,1.7-3,2.5c-1,0.7-1.9,1.4-2.8,2
				c-0.9,0.6-1.6,1.2-2.4,1.8c-0.8,0.5-1.4,1-2,1.4c-2.4,1.6-3.8,2.4-3.8,2.4s1.1-1.1,3.2-3.1c0.5-0.5,1.1-1.1,1.8-1.7
				c0.6-0.6,1.3-1.4,2-2.1c1.4-1.5,3.1-3.3,4.9-5.3c3.6-4,7.6-9.2,11.9-15.3c4.3-6.1,8.6-13.3,12.8-21.3c4.2-8.1,8.3-17.1,12-26.8
				c3.8-9.7,7.2-20.2,10.2-31.2c0.7-2.8,1.5-5.5,2.2-8.3c0.7-2.8,1.5-5.6,2.1-8.5c0.3-1.4,0.7-2.9,1-4.3c0.3-1.4,0.6-2.9,0.9-4.4
				c0.7-2.9,1.2-5.8,1.8-8.8c2.3-11.8,4.4-23.8,6-36c1.7-12.1,3-24.3,4.2-36.3c0.5-6,1-12,1.5-17.9c0.2-3,0.4-5.9,0.6-8.8
				c0.2-2.9,0.4-5.8,0.5-8.7c0.7-11.5,1.1-22.7,1.5-33.3c0.3-10.6,0.6-20.6,0.7-29.9c0.1-9.3,0.2-17.8,0.2-25.3
				c0-7.5,0-14.1-0.1-19.6c-0.1-5.4-0.1-9.7-0.2-12.6C3587,751.3,3587,749.8,3587,749.8z"/>
		</g>
		<g class="st2">
			<path class="st0" d="M3747.5,983.6c0,0-0.3,1.3-0.9,3.7c-0.7,2.4-1.6,6-2.9,10.5c-2.7,9-6.9,21.7-12.9,36.6
				c-3,7.5-6.4,15.5-10.3,23.8c-3.9,8.4-8.2,17.1-13,26c-2.4,4.4-4.9,8.9-7.5,13.4c-2.6,4.5-5.3,9-8.1,13.5
				c-5.6,9-11.7,17.9-18.2,26.6c-6.5,8.6-13.3,17.1-20.6,25c-3.6,4-7.3,7.8-11,11.5c-3.7,3.7-7.6,7.2-11.4,10.5
				c-7.7,6.7-15.7,12.6-23.6,17.7c-7.9,5-15.9,9.2-23.4,12.4c-7.6,3.2-14.8,5.5-21.2,6.9c-1.6,0.4-3.2,0.6-4.7,1
				c-0.8,0.1-1.5,0.3-2.2,0.4c-0.7,0.1-1.5,0.2-2.2,0.3c-1.4,0.2-2.8,0.4-4.1,0.5c-1.3,0.1-2.5,0.2-3.7,0.3
				c-2.3,0.2-4.5,0.2-6.3,0.2c-0.9,0-1.8,0-2.5,0c-0.8,0-1.5-0.1-2.1-0.1c-2.5-0.1-3.8-0.2-3.8-0.2s1.3-0.2,3.8-0.7
				c0.6-0.1,1.3-0.2,2.1-0.3c0.8-0.1,1.6-0.3,2.4-0.5c1.8-0.4,3.8-0.8,6-1.4c1.1-0.3,2.3-0.6,3.5-0.9c1.2-0.4,2.5-0.8,3.8-1.2
				c0.7-0.2,1.3-0.4,2-0.6c0.7-0.2,1.4-0.5,2.1-0.7c1.4-0.5,2.9-1,4.3-1.6c5.9-2.3,12.4-5.4,19.1-9.2c6.7-3.8,13.8-8.5,20.8-13.8
				c7.1-5.4,14.2-11.5,21.1-18.2c3.5-3.4,7-6.9,10.4-10.5c0.9-0.9,1.7-1.8,2.6-2.7c0.8-0.9,1.7-1.9,2.5-2.8c1.7-1.9,3.4-3.8,5.1-5.7
				c6.7-7.8,13.2-15.9,19.4-24.3c6.3-8.3,12.3-16.9,18-25.5c2.8-4.3,5.7-8.6,8.4-12.9c2.7-4.3,5.3-8.5,7.9-12.7
				c5.1-8.4,10-16.7,14.5-24.5c4.5-7.9,8.7-15.4,12.5-22.4c7.6-13.9,13.7-25.7,18-34c2.1-4.2,3.8-7.4,4.9-9.6
				C3746.9,984.7,3747.5,983.6,3747.5,983.6z"/>
		</g>
		<g class="st2">
			<path class="st0" d="M3774.9,1253.1c0,0-0.7,0.7-2.2,2c-1.4,1.2-3.5,3.1-6.3,5.4c-5.5,4.5-13.5,10.8-23.6,17.8
				c-10,7-22,14.7-35.3,22.2c-3.3,1.9-6.7,3.7-10.2,5.6c-3.5,1.9-7,3.7-10.6,5.5c-7.2,3.6-14.6,7-22.2,10.2
				c-7.6,3.1-15.2,6.1-22.9,8.7c-1.9,0.6-3.8,1.3-5.7,1.9c-1.9,0.6-3.8,1.2-5.7,1.7c-3.8,1.1-7.6,2.2-11.4,3
				c-7.5,1.8-14.9,3.2-22,4.1c-7.1,0.9-13.9,1.2-20.1,1.1c-6.3-0.1-12-0.7-17-1.7c-5-1-9.3-2.3-12.7-3.5c-1.7-0.7-3.2-1.3-4.4-1.9
				c-1.3-0.6-2.3-1.1-3.2-1.6c-1.7-1-2.5-1.5-2.5-1.5s1,0.2,2.8,0.7c1.8,0.5,4.6,1,8,1.4c3.5,0.4,7.6,0.7,12.4,0.7
				c4.8-0.1,10.2-0.4,16-1.2c5.8-0.8,12.1-2,18.6-3.6c6.6-1.6,13.4-3.5,20.5-5.8c1.8-0.6,3.5-1.2,5.3-1.7c1.8-0.6,3.6-1.2,5.4-1.8
				c3.6-1.3,7.2-2.6,10.9-3.9c7.3-2.8,14.7-5.7,22-8.8c7.3-3,14.6-6.3,21.8-9.5c3.6-1.6,7.1-3.3,10.6-4.9c3.5-1.6,6.9-3.2,10.3-4.8
				c13.6-6.4,26.2-12.6,37-17.9c10.9-5.3,20-9.7,26.3-12.8C3771.3,1254.9,3774.9,1253.1,3774.9,1253.1z"/>
		</g>
		<g class="st2">
			<path class="st0" d="M3624,1451.1c0,0-0.6,0.4-1.8,1c-1.2,0.6-2.9,1.6-5.1,2.7c-1.1,0.6-2.3,1.2-3.7,1.8c-1.3,0.7-2.8,1.3-4.4,2
				c-3.2,1.3-6.9,2.7-11,4.2c-4.1,1.3-8.6,2.6-13.4,3.9c-1.2,0.4-2.4,0.6-3.7,0.8c-1.2,0.3-2.5,0.5-3.8,0.8
				c-1.3,0.3-2.6,0.5-3.9,0.8c-1.3,0.2-2.6,0.5-4,0.7c-2.7,0.4-5.4,0.7-8.2,1c-1.4,0.2-2.8,0.4-4.2,0.5c-1.4,0.1-2.8,0.2-4.2,0.2
				c-2.8,0.1-5.7,0.4-8.6,0.4c-2.9,0-5.8-0.1-8.7-0.1c-2.9,0-5.8-0.3-8.7-0.5c-1.4-0.1-2.9-0.2-4.3-0.4c-0.7-0.1-1.4-0.1-2.1-0.2
				l-2.1-0.3c-1.4-0.2-2.8-0.4-4.2-0.6c-1.4-0.2-2.8-0.5-4.2-0.7c-2.7-0.5-5.4-1.1-8.1-1.7c-2.6-0.6-5.2-1.3-7.7-2.1
				c-1.3-0.4-2.5-0.7-3.7-1.1c-0.6-0.2-1.2-0.4-1.8-0.5c-0.6-0.2-1.2-0.4-1.8-0.6c-2.3-0.9-4.6-1.7-6.8-2.5
				c-2.2-0.9-4.2-1.9-6.2-2.8c-1-0.5-1.9-0.9-2.9-1.3c-0.9-0.5-1.8-1-2.7-1.4c-1.7-1-3.4-1.9-4.9-2.7c-3-1.8-5.5-3.6-7.6-5
				c-2-1.5-3.5-2.8-4.6-3.7c-1-0.9-1.6-1.3-1.6-1.3s0.7,0.2,2,0.6c1.3,0.4,3.2,0.9,5.5,1.7c2.4,0.6,5.2,1.5,8.5,2.4
				c1.7,0.4,3.4,0.8,5.2,1.3c0.9,0.2,1.8,0.5,2.8,0.7c1,0.2,2,0.4,3,0.6c2,0.4,4.1,1,6.3,1.4c2.2,0.4,4.4,0.8,6.7,1.2
				c0.6,0.1,1.2,0.2,1.7,0.3c0.6,0.1,1.2,0.2,1.8,0.3c1.2,0.2,2.4,0.4,3.6,0.5c1.2,0.2,2.4,0.4,3.7,0.6c1.2,0.2,2.5,0.3,3.8,0.5
				c2.5,0.3,5.1,0.7,7.7,0.9c1.3,0.1,2.6,0.2,3.9,0.3c1.3,0.1,2.6,0.3,4,0.4c2.6,0.3,5.4,0.3,8,0.5c2.7,0.2,5.4,0.4,8.1,0.4
				c2.7,0.1,5.4,0.2,8.1,0.2c2.7,0,5.4,0,8.1,0c5.4,0.1,10.6-0.4,15.8-0.4c5.1-0.3,10.1-0.7,14.8-1c2.4-0.2,4.6-0.5,6.9-0.7
				c2.2-0.2,4.4-0.3,6.5-0.6c4.1-0.5,7.9-0.9,11.3-1.3c1.7-0.1,3.3-0.4,4.8-0.6c1.5-0.2,2.8-0.4,4.1-0.5c2.5-0.3,4.4-0.5,5.8-0.6
				C3623.3,1451.1,3624,1451.1,3624,1451.1z"/>
		</g>
	</g>
	<path class="st2" d="M2945.6,1033.6c0,0-247.5-155.1,66.3-483.6c0,0-688,274-488.3,733.6c150.3,345.9,502.8,169.1,502.8,169.1
		L2945.6,1033.6z"/>
	<g class="st2">
		<path class="st0" d="M2805.9,632c0,0-0.5,1.5-1.3,4.3c-0.8,2.8-2.1,6.9-3.7,12.1c-1.6,5.2-3.4,11.5-5.5,18.8
			c-2.1,7.3-4.4,15.4-6.9,24.4c-2.5,8.9-5.1,18.6-7.7,28.9c-2.6,10.3-5.3,21.1-7.9,32.4c-0.6,2.8-1.3,5.7-1.9,8.5
			c-0.6,2.9-1.3,5.7-1.9,8.6c-1.2,5.8-2.4,11.7-3.6,17.6c-2.3,11.9-4.4,23.9-6.1,36.1c-1.8,12.1-3.2,24.3-4.3,36.2
			c-0.2,3-0.5,6-0.7,8.9c-0.1,1.5-0.2,3-0.3,4.4c-0.1,1.5-0.2,2.9-0.2,4.4c-0.2,2.9-0.3,5.9-0.4,8.8c-0.1,2.9-0.1,5.8-0.2,8.6
			c-0.1,11.4,0.2,22.4,1.1,32.8c0.9,10.4,2.3,20.2,4.1,29.1c1.8,8.9,4,17,6.4,24.1c2.4,7,4.8,13.1,7.1,18c1.1,2.5,2.2,4.6,3.2,6.5
			c0.5,0.9,0.9,1.8,1.3,2.6c0.4,0.8,0.9,1.5,1.2,2.1c1.4,2.5,2.2,3.9,2.2,3.9s-1-1.2-2.9-3.4c-0.5-0.6-1-1.2-1.6-1.9
			c-0.5-0.7-1.1-1.5-1.8-2.3c-0.6-0.8-1.3-1.8-2.1-2.7c-0.7-1-1.4-2.1-2.2-3.2c-3.1-4.5-6.5-10.3-9.9-17.2c-0.8-1.7-1.7-3.5-2.5-5.4
			c-0.8-1.9-1.6-3.8-2.4-5.8c-0.8-2-1.5-4.1-2.3-6.2c-0.8-2.1-1.4-4.4-2.2-6.6c-2.8-9.1-5.1-19.1-6.9-29.9
			c-1.7-10.8-2.8-22.2-3.2-34c-0.2-5.9-0.3-11.9-0.2-18c0.1-6.1,0.3-12.2,0.7-18.4c0.7-12.4,2.2-24.9,4-37.3
			c1.9-12.4,4.1-24.8,6.8-36.8c1.3-6,2.7-12,4.2-17.8c1.5-5.9,3-11.6,4.6-17.3c3.1-11.3,6.5-22.1,9.9-32.3
			c3.4-10.2,6.9-19.7,10.3-28.4c3.4-8.7,6.7-16.6,9.7-23.6c3-7,5.8-13,8.2-17.9c2.3-4.9,4.3-8.7,5.7-11.3
			C2805.2,633.4,2805.9,632,2805.9,632z"/>
	</g>
	<g class="st2">
		<path class="st0" d="M2639,749.8c0,0,0,1.6-0.1,4.5c0,2.9-0.1,7.2-0.2,12.6c-0.1,5.4-0.1,12-0.1,19.6c0,7.5,0,16.1,0.2,25.3
			c0.1,9.3,0.3,19.3,0.7,29.9c0.3,10.6,0.8,21.8,1.5,33.3c0.2,2.9,0.4,5.8,0.5,8.7c0.2,2.9,0.4,5.9,0.6,8.8c0.4,5.9,1,11.9,1.5,17.9
			c1.1,12,2.5,24.2,4.2,36.3c1.6,12.1,3.7,24.2,6,36c0.6,2.9,1.2,5.9,1.8,8.8c0.3,1.5,0.6,2.9,0.9,4.4c0.3,1.4,0.7,2.9,1,4.3
			c0.7,2.9,1.4,5.7,2.1,8.5c0.7,2.8,1.5,5.6,2.2,8.3c3.1,11,6.5,21.5,10.2,31.2c3.7,9.7,7.8,18.8,12,26.8
			c4.2,8.1,8.6,15.3,12.8,21.3c4.3,6.1,8.3,11.3,11.9,15.3c1.7,2.1,3.4,3.8,4.9,5.3c0.7,0.8,1.4,1.5,2,2.1c0.6,0.6,1.2,1.2,1.8,1.7
			c2.1,2,3.2,3.1,3.2,3.1s-1.3-0.8-3.8-2.4c-0.6-0.4-1.3-0.9-2-1.4c-0.7-0.5-1.5-1.1-2.4-1.8c-0.9-0.6-1.8-1.3-2.8-2
			c-1-0.7-1.9-1.6-3-2.5c-4.3-3.5-9.1-8.1-14.3-13.8c-1.3-1.4-2.6-2.9-3.9-4.5c-1.3-1.6-2.6-3.2-4-4.9c-1.3-1.7-2.6-3.5-4-5.4
			c-1.3-1.8-2.6-3.8-3.9-5.8c-5.2-7.9-10.3-17-14.9-26.8c-4.7-9.8-8.9-20.5-12.6-31.8c-1.9-5.6-3.6-11.4-5.2-17.3
			c-1.6-5.9-3.1-11.8-4.4-17.9c-2.7-12.1-4.9-24.5-6.6-36.9c-1.7-12.4-3-24.9-3.8-37.2c-0.4-6.2-0.8-12.3-1-18.3
			c-0.2-6-0.4-12-0.4-17.9c-0.1-11.7,0.1-23,0.5-33.8c0.4-10.7,1.1-20.8,1.9-30.2c0.8-9.3,1.8-17.8,2.7-25.4c1-7.5,2-14.1,2.9-19.5
			c0.9-5.4,1.7-9.6,2.3-12.5C2638.6,751.3,2639,749.8,2639,749.8z"/>
	</g>
	<g class="st2">
		<path class="st0" d="M2478.4,983.6c0,0,0.6,1.2,1.7,3.4c1.1,2.2,2.8,5.5,4.9,9.6c4.3,8.3,10.4,20.1,18,34c3.8,7,8,14.5,12.5,22.4
			c4.5,7.9,9.3,16.1,14.5,24.5c2.6,4.2,5.2,8.5,7.9,12.7c2.7,4.3,5.5,8.6,8.4,12.9c5.7,8.6,11.7,17.2,18,25.5
			c6.2,8.4,12.7,16.5,19.4,24.3c1.7,1.9,3.3,3.9,5.1,5.7c0.8,0.9,1.7,1.9,2.5,2.8c0.9,0.9,1.7,1.8,2.6,2.7
			c3.4,3.7,6.9,7.1,10.4,10.5c7,6.8,14.1,12.9,21.1,18.2c7.1,5.4,14.1,10,20.8,13.8c6.7,3.8,13.2,6.9,19.1,9.2
			c1.5,0.6,2.9,1.1,4.3,1.6c0.7,0.3,1.4,0.5,2.1,0.7c0.7,0.2,1.4,0.4,2,0.6c1.3,0.4,2.6,0.8,3.8,1.2c1.2,0.3,2.4,0.6,3.5,0.9
			c2.2,0.6,4.2,1,6,1.4c0.9,0.2,1.7,0.4,2.4,0.5c0.8,0.1,1.4,0.2,2.1,0.3c2.5,0.4,3.8,0.7,3.8,0.7s-1.3,0.1-3.8,0.2
			c-0.6,0-1.3,0.1-2.1,0.1c-0.8,0-1.6,0-2.5,0c-1.8,0-3.9,0-6.3-0.2c-1.2-0.1-2.4-0.2-3.7-0.3c-1.3-0.2-2.7-0.4-4.1-0.5
			c-0.7-0.1-1.4-0.2-2.2-0.3c-0.7-0.1-1.5-0.3-2.2-0.4c-1.5-0.3-3.1-0.6-4.7-1c-6.5-1.5-13.7-3.8-21.2-6.9
			c-7.6-3.2-15.5-7.3-23.4-12.4c-7.9-5.1-15.9-11-23.6-17.7c-3.9-3.3-7.7-6.9-11.4-10.5c-3.8-3.6-7.4-7.5-11-11.5
			c-7.2-7.9-14.1-16.3-20.6-25c-6.4-8.7-12.6-17.6-18.2-26.6c-2.8-4.5-5.5-9-8.1-13.5c-2.6-4.5-5.1-9-7.5-13.4
			c-4.8-8.9-9.1-17.6-13-26c-3.9-8.4-7.3-16.4-10.3-23.8c-6-14.9-10.2-27.6-12.9-36.6c-1.4-4.5-2.3-8-2.9-10.5
			C2478.7,984.9,2478.4,983.6,2478.4,983.6z"/>
	</g>
	<g class="st2">
		<path class="st0" d="M2451,1253.1c0,0,3.7,1.8,10.1,4.8c6.4,3.1,15.4,7.5,26.3,12.8c10.9,5.3,23.5,11.5,37,17.9
			c3.4,1.6,6.8,3.2,10.3,4.8c3.5,1.6,7,3.2,10.6,4.9c7.2,3.2,14.4,6.4,21.8,9.5c7.3,3.1,14.7,6,22,8.8c3.7,1.3,7.3,2.7,10.9,3.9
			c1.8,0.6,3.6,1.3,5.4,1.8c1.8,0.6,3.5,1.2,5.3,1.7c7,2.2,13.9,4.2,20.5,5.8c6.6,1.6,12.8,2.8,18.6,3.6c5.8,0.8,11.2,1.2,16,1.2
			c4.8,0,9-0.3,12.4-0.7c3.4-0.5,6.2-1,8-1.4c1.9-0.5,2.8-0.7,2.8-0.7s-0.9,0.5-2.5,1.5c-0.8,0.5-1.9,1-3.2,1.6
			c-1.2,0.7-2.8,1.2-4.4,1.9c-3.4,1.3-7.6,2.6-12.7,3.5c-5,0.9-10.7,1.5-17,1.7c-6.3,0.1-13-0.2-20.1-1.1c-7.1-0.9-14.5-2.2-22-4.1
			c-3.8-0.9-7.6-1.9-11.4-3c-1.9-0.5-3.8-1.1-5.7-1.7c-1.9-0.6-3.8-1.3-5.7-1.9c-7.7-2.6-15.3-5.6-22.9-8.7
			c-7.5-3.2-15-6.6-22.2-10.2c-3.6-1.8-7.2-3.6-10.6-5.5c-3.5-1.8-6.9-3.7-10.2-5.6c-13.3-7.5-25.3-15.2-35.3-22.2
			c-10-7-18.1-13.2-23.6-17.8c-2.8-2.3-4.9-4.1-6.3-5.4C2451.7,1253.8,2451,1253.1,2451,1253.1z"/>
	</g>
	<g class="st2">
		<path class="st0" d="M2601.9,1451.1c0,0,0.7,0,2.1,0.2c1.3,0.1,3.3,0.3,5.8,0.6c1.2,0.1,2.6,0.3,4.1,0.5c1.5,0.2,3.1,0.5,4.8,0.6
			c3.4,0.3,7.2,0.8,11.3,1.3c2.1,0.2,4.2,0.4,6.5,0.6c2.2,0.2,4.5,0.4,6.9,0.7c4.7,0.3,9.7,0.6,14.8,1c5.1,0.1,10.4,0.5,15.8,0.4
			c2.7,0,5.4,0,8.1,0c2.7-0.1,5.4-0.2,8.1-0.2c2.7,0,5.4-0.2,8.1-0.4c2.7-0.2,5.4-0.2,8-0.5c1.3-0.1,2.7-0.3,4-0.4
			c1.3-0.1,2.6-0.2,3.9-0.3c2.6-0.3,5.2-0.7,7.7-0.9c1.3-0.2,2.5-0.3,3.8-0.5c1.2-0.2,2.5-0.4,3.7-0.6c1.2-0.2,2.4-0.4,3.6-0.5
			c0.6-0.1,1.2-0.2,1.8-0.3c0.6-0.1,1.2-0.2,1.7-0.3c2.3-0.4,4.5-0.9,6.7-1.2c2.2-0.4,4.2-0.9,6.3-1.4c1-0.2,2-0.4,3-0.6
			c1-0.2,1.9-0.5,2.8-0.7c1.8-0.5,3.6-0.9,5.2-1.3c3.3-0.9,6.1-1.7,8.5-2.4c2.3-0.8,4.2-1.3,5.5-1.7c1.3-0.4,2-0.6,2-0.6
			s-0.5,0.5-1.6,1.3c-1,0.8-2.5,2.1-4.6,3.7c-2.1,1.4-4.6,3.2-7.6,5c-1.5,0.9-3.2,1.8-4.9,2.7c-0.9,0.5-1.8,1-2.7,1.4
			c-0.9,0.4-1.9,0.9-2.9,1.3c-2,0.9-4,1.9-6.2,2.8c-2.2,0.8-4.4,1.7-6.8,2.5c-0.6,0.2-1.2,0.4-1.8,0.6c-0.6,0.2-1.2,0.4-1.8,0.5
			c-1.2,0.4-2.5,0.7-3.7,1.1c-2.5,0.8-5.1,1.5-7.7,2.1c-2.6,0.6-5.3,1.2-8.1,1.7c-1.4,0.2-2.8,0.4-4.2,0.7c-1.4,0.2-2.8,0.4-4.2,0.6
			l-2.1,0.3c-0.7,0.1-1.4,0.1-2.1,0.2c-1.4,0.1-2.9,0.3-4.3,0.4c-2.9,0.2-5.8,0.5-8.7,0.5c-2.9,0-5.8,0.1-8.7,0.1
			c-2.9,0-5.7-0.3-8.6-0.4c-1.4-0.1-2.8-0.2-4.2-0.2c-1.4-0.1-2.8-0.3-4.2-0.5c-2.8-0.3-5.5-0.7-8.2-1c-1.3-0.2-2.7-0.5-4-0.7
			c-1.3-0.2-2.6-0.5-3.9-0.8c-1.3-0.3-2.5-0.5-3.8-0.8c-1.2-0.3-2.5-0.5-3.7-0.8c-4.8-1.3-9.3-2.6-13.4-3.9c-4.1-1.5-7.8-2.9-11-4.2
			c-1.6-0.6-3.1-1.3-4.4-2c-1.3-0.7-2.6-1.2-3.7-1.8c-2.2-1.1-4-2.1-5.1-2.7C2602.6,1451.4,2601.9,1451.1,2601.9,1451.1z"/>
	</g>
</g>
<g id="Layer_11" class="st1">
	<path class="st2" d="M3276.9,1073.8c0,0,180.2-251.3,0-423c-18.9-18-41.1-63,0-63s232.2,90.6,164.8,318
		C3416.6,990.7,3276.9,1073.8,3276.9,1073.8z"/>
	<path class="st2" d="M3234.6,1087.6c0,0,290.3-129.3,200.3-372.6c-9.4-25.5-9.3-76.5,29.8-55.5c39.1,21,177.9,198.5,6.1,364.4
		C3406.8,1085.7,3234.6,1087.6,3234.6,1087.6z"/>
	<path class="st2" d="M3222.5,1096.4c0,0,321.2-6,325.9-269.7c0.5-27.6,19.4-75.4,48.5-40.2c29.1,35.2,94.6,256.5-128.3,343.8
		C3385.5,1162.9,3222.5,1096.4,3222.5,1096.4z"/>
	<path class="st2" d="M3247,1098.7c0,0,309.1,80.6,388-168.7c8.3-26.1,39.8-66.4,57.8-25.1c17.9,41.3,18.2,269.2-219.7,292.2
		C3384.2,1205.7,3247,1098.7,3247,1098.7z"/>
	<path class="st2" d="M3258.9,1165.8c0,0,279.3,91.3,412-95.9c13.9-19.6,53.5-48.1,61.4-14.3s-43.7,211.7-278.2,207.8
		C3366.7,1261.9,3258.9,1165.8,3258.9,1165.8z"/>
	<path class="st2" d="M3313.6,1198.9c0,0,244,141.9,381.1-40.4c14.4-19.1,52.8-43.9,56.8-6c4,37.9-59,222.5-270.4,182.1
		C3402.1,1319.5,3313.6,1198.9,3313.6,1198.9z"/>
	<path class="st2" d="M3321.1,1281.5c0,0,216.1,124.9,368.1,7.8c15.9-12.3,55.4-26.3,54.8,1.2c-0.6,27.4-82.2,153.3-279.1,104.1
		C3391.5,1376.3,3321.1,1281.5,3321.1,1281.5z"/>
	<path class="st2" d="M3396.3,1244.3c0,0,54.9,194.3,216,157.5c16.9-3.9,48.9,0.5,32.2,23.5c-16.8,23-140.9,96.1-229.5-26.3
		C3381.9,1353.3,3396.3,1244.3,3396.3,1244.3z"/>
	<path class="st2" d="M3396.2,1252.9c0,0-35.6,156.3,84.9,202.2c12.6,4.8,32.3,21.9,12.6,30.1c-19.6,8.2-129.1,3.3-142.6-119
		C3346.2,1320.7,3396.2,1252.9,3396.2,1252.9z"/>
	<path class="st2" d="M3258.9,1039.8"/>
	<g id="Layer_12" class="st2">
		<path d="M3253.7,1073.8l115.1-120l132,162.7l55.7,222l-77.3,67.4l-23.3,80.2c0,0-120-4.3-220.8-80.2
			C3159,1348.6,3253.7,1073.8,3253.7,1073.8z"/>
	</g>
</g>
<g id="Layer_13">
</g>
<g id="Layer_2">
	<g id="Layer_2_copy">
		<path d="M1131.6,1025.6c8,57.4,109.3,77.3,113.1-29.5c12.3-342.5-236-393.3-224-415.4c12-22.1,183.8-4.7,328,154.7
			c24,26.5,48,46.4,0,184.5c0,0,115.1,18.3,119.1-65.7c1.6-37.8,80.7,59.5,53.1,166c-18.1,69.9-28.2,90.8-104.2,161.5
			c0,0,89.2,2.7,113.2-20.5s64.4,38.3-81.2,188.4c-239.8,247.3-366.7,148-366.7,148s36.6-129.6,45.2-225.4
			C1138.2,1148.6,1131.6,1025.6,1131.6,1025.6z"/>
		<path d="M747,1025.6c-8,57.4-109.3,77.3-113.1-29.5c-12.3-342.5,236-393.3,224-415.4c-12-22.1-183.8-4.7-328,154.7
			c-24,26.5-48,46.4,0,184.5c0,0-115.1,18.3-119.1-65.7c-1.6-37.8-80.7,59.5-53.1,166c18.1,69.9,28.2,90.8,104.2,161.5
			c0,0-89.2,2.7-113.2-20.5s-64.4,38.3,81.2,188.4c239.8,247.3,366.7,148,366.7,148s-36.6-129.6-45.2-225.4
			C740.3,1148.6,747,1025.6,747,1025.6z"/>
	</g>
</g>
<g id="Layer_2_copy_2">
	<path class="st1" d="M936,728c0,0,56-8,116,40s67.4,183.6,72,236c14,158-42,406-42,406s-46,130-66,146l66,140c0,0,4,94-64,52
		c0,0-26,74-82,74"/>
	<g>
		<path d="M936,1829.5c-49.6,0-76.9-50.7-85.8-71c-8.8,4.1-18.1,6.1-27.8,6.1c-61.8,0-118.4-83-120.8-86.6l-3.9-5.7l147.4-117.2
			c-6.3-8.6-17.4-28-36.5-75.3c-13.9-34.3-25.5-67-25.6-67.3l-0.1-0.4l-0.1-0.4c-0.1-0.6-14.2-63.2-26.4-144.3
			c-11.2-75-23.1-181.7-15.8-264c0.3-3.4,0.6-7.2,1-11.3c4.9-59.4,15.2-183,73.8-229.9c45.8-36.7,89.2-42.1,111-42.1
			c4.8,0,8.1,0.3,9.7,0.4c1.6-0.2,4.9-0.4,9.7-0.4c21.8,0,65.2,5.5,111,42.1c58.6,46.9,68.9,170.5,73.8,229.9
			c0.3,4.1,0.7,7.9,1,11.3c7.3,82.4-4.6,189-15.8,264c-12.2,81.1-26.2,143.7-26.4,144.3l-0.1,0.4l-0.1,0.4
			c-0.1,0.3-11.7,33.1-25.6,67.3c-19.1,47.1-30.2,66.6-36.5,75.2l150.1,117.3l-4.1,5.8c-2.5,3.5-60.9,86.5-123.2,86.5c0,0,0,0,0,0
			c-9.8,0-19.2-2.1-28-6.1C1012.9,1778.8,985.6,1829.5,936,1829.5z"/>
		<path class="st0" d="M945.7,727.5c18.6,0,61.3,4.5,106.3,40.5c60,48,67.4,183.6,72,236c14,158-42,406-42,406s-46,130-66,146
			l150.8,117.9c0,0-58,83.3-117,83.3c-10.7,0-21.4-2.7-31.8-9.2c0,0-26,74-82,74s-82-74-82-74c-10.4,6.4-21.1,9.2-31.6,9.2
			c-58.5,0-114.6-83.3-114.6-83.3L856,1556c-20-16-66-146-66-146s-56-248-42-406c4.6-52.4,12-188,72-236c45-36,87.8-40.5,106.3-40.5
			c6.2,0,9.7,0.5,9.7,0.5S939.5,727.5,945.7,727.5 M945.7,712.5c-4.4,0-7.7,0.2-9.7,0.4c-2-0.2-5.3-0.4-9.7-0.4
			c-10.5,0-27.3,1.3-47.6,7.4c-24.1,7.3-47,19.5-68.1,36.4c-14.8,11.9-27.7,29-38.2,51c-8.6,17.9-15.9,39.6-21.7,64.5
			c-10.4,44.3-14.2,89.6-16.7,119.6c-0.3,4.1-0.7,7.9-1,11.3c-5.9,66.7-0.6,156.1,15.9,265.8c12.2,81.4,26.3,144.2,26.5,144.8
			l0.2,0.9l0.3,0.8c0.1,0.3,11.8,33.2,25.7,67.6c15.6,38.3,26,59.1,33.4,70.9l-136.6,108.6l-10.8,8.6l7.7,11.5
			c0.6,0.9,15.1,22.3,37.3,44c31.2,30.5,61.4,45.9,89.7,45.9c8.3,0,16.3-1.3,24.1-4c3.6,7.3,8.7,16.5,15.5,25.7
			c20.6,28.2,46.2,43.2,74.1,43.2c27.9,0,53.5-14.9,74.1-43.2c6.7-9.2,11.8-18.4,15.5-25.7c7.8,2.7,15.9,4,24.2,4
			c28.5,0,59.1-15.4,91-45.8c22.7-21.6,37.7-43,38.3-43.9l8.1-11.6l-11.2-8.7l-139-108.7c7.4-11.8,17.8-32.6,33.3-70.8
			c14-34.4,25.6-67.3,25.7-67.6l0.3-0.8l0.2-0.9c0.1-0.6,14.3-63.5,26.5-144.8c16.4-109.7,21.8-199.1,15.9-265.8
			c-0.3-3.4-0.6-7.2-1-11.3c-2.5-30-6.3-75.3-16.7-119.6c-5.8-24.8-13.1-46.5-21.7-64.5c-10.5-22-23.4-39.2-38.2-51
			c-21.1-16.9-44-29.1-68.1-36.4C973,713.8,956.2,712.5,945.7,712.5L945.7,712.5z"/>
	</g>
</g>
<g id="Layer_5">
	<path class="st0" d="M942.8,841.7c5.7-18,37.8-92.9,112.8-17.9c75,75,37.6,228-117.6,264"/>
	<path class="st0" d="M929,842.7c-5.7-18-37.8-92.9-112.8-17.9c-75,75-34.4,228,120.8,264"/>
</g>
<g id="Layer_5_copy">
	<g>
		<path d="M937,1088.8c0,0-0.1-0.4-0.2-1.3c-0.2-0.8-0.4-2.1-0.6-3.8c-0.5-3.3-1.2-8.1-1.8-14.3c-0.3-3.1-0.6-6.5-0.8-10.3
			c-0.2-3.8-0.4-7.8-0.5-12.2c-0.2-8.7-0.1-18.6,0.6-29.3c0.7-10.8,2.1-22.4,4.6-34.7c1.3-6.1,2.7-12.4,4.7-18.8
			c1.9-6.3,4.2-12.8,7-19.2c1.4-3.2,2.9-6.4,4.6-9.6c0.8-1.6,1.7-3.2,2.6-4.8c0.9-1.6,1.9-3.1,2.9-4.7c4-6.2,8.5-12.2,14-17.7
			c2.7-2.7,5.6-5.4,8.7-7.8c1.5-1.2,3.1-2.4,4.7-3.5c0.9-0.6,1.4-1,2.3-1.6c0.8-0.5,1.6-1.1,2.4-1.6c3.3-2,6.7-3.9,10.3-5.6
			c3.6-1.7,7.5-3.2,11.7-4.3c4.2-1.1,9-1.6,14.2-0.9c2.6,0.4,5.3,1.1,7.8,2.3c2.6,1.2,5,2.9,7,4.9c2,2,3.6,4.3,4.8,6.6
			c1.2,2.3,2,4.7,2.6,7c1.1,4.6,1.3,9,1,13.2c-0.3,4.2-1.1,8.2-2.2,12c-1.1,3.8-2.5,7.4-4.2,10.9c-3.3,6.9-7.7,13.1-12.8,18.5
			c-5.1,5.4-10.9,9.8-17.2,13.2c-1.6,0.8-3.2,1.6-4.8,2.3c-0.8,0.3-1.6,0.7-2.4,1l-1.2,0.5l-1.3,0.5l-1.1,0.4l-0.6,0.2l-0.6,0.2
			c-0.8,0.3-1.7,0.5-2.5,0.7c-1.6,0.5-3.3,0.8-5,1.2c-3.4,0.6-6.9,0.9-10.4,0.6c-3.5-0.3-7.2-1.2-10.5-3c-3.3-1.8-5.9-4.4-7.8-7.2
			c-1.9-2.9-3-5.9-3.8-8.8c-1.5-5.9-1.3-11.4-0.7-16.5c0.6-5.1,1.9-9.8,3.4-14l0.3-0.8l0.3-0.8l0.2-0.4l0.3-0.5
			c0.2-0.3,0.3-0.6,0.5-0.8c0.7-1.1,1.4-1.9,2.2-2.7c1.5-1.6,3.1-2.9,4.6-4c3-2.3,5.9-4.2,8.6-5.9c5.3-3.3,9.4-5.8,12-7.8
			c1.3-1,2.2-1.9,2.7-2.6c0.2-0.4,0.3-0.7,0.3-0.9c0-0.2,0-0.3,0-0.3c0,0,0.2,0.5-0.2,1.3c-0.4,0.8-1.2,1.8-2.3,3
			c-2.3,2.4-6.2,5.4-10.9,9.4c-2.4,2-5,4.1-7.6,6.7c-1.3,1.3-2.6,2.6-3.7,4.1c-0.5,0.7-1.1,1.5-1.4,2.2c-0.1,0.2-0.2,0.4-0.2,0.5
			l-0.2,0.5c-0.1,0.5-0.2,0.9-0.4,1.4c-0.9,4-1.5,8.4-1.6,12.9c0,4.5,0.5,9.3,2.1,13.6c0.8,2.1,1.8,4.1,3.2,5.7
			c1.3,1.6,2.9,2.8,4.8,3.6c3.7,1.6,8.6,1.4,13.7-0.1c1.3-0.3,2.6-0.8,3.9-1.2c0.7-0.2,1.3-0.5,1.9-0.7l0.5-0.2l0.5-0.2l1.1-0.5
			l0.9-0.4l0.9-0.5c0.6-0.3,1.2-0.7,1.8-1c1.2-0.7,2.4-1.5,3.6-2.2c4.7-3.1,8.9-7.2,12.5-11.7c3.6-4.6,6.6-9.8,8.9-15.3
			c2.2-5.5,3.6-11.4,3.7-16.9c0.1-2.7-0.2-5.4-0.9-7.5c-0.6-2.2-1.6-3.7-2.6-4.6c-1-0.9-2.1-1.4-3.9-1.6c-1.8-0.2-4.2,0.1-6.8,0.7
			c-5.2,1.3-10.9,4.2-16.3,7.6l-2,1.3c-0.6,0.4-1.5,1-2.1,1.4c-1.2,0.9-2.5,1.7-3.7,2.7c-2.4,1.9-4.7,3.9-6.9,6.1
			c-8.9,8.7-15.7,19.4-21.3,30.5c-2.7,5.6-5.2,11.3-7.3,17c-2.1,5.7-4,11.4-5.7,17.1c-1.6,5.6-3.1,11.2-4.4,16.6
			c-1.3,5.4-2.4,10.7-3.4,15.8c-2,10.2-3.4,19.7-4.5,28.2c-0.6,4.2-1.1,8.2-1.5,11.9c-0.4,3.7-0.8,7.1-1.1,10.1
			c-0.6,6.1-1,11-1.3,14.3C937.1,1087.1,937,1088.8,937,1088.8z"/>
	</g>
	<g>
		<path d="M936.5,1088.8c0,0-0.1-1.8-0.4-5.1c-0.2-3.3-0.7-8.2-1.3-14.3c-0.3-3.1-0.6-6.5-1.1-10.1c-0.4-3.7-0.9-7.7-1.5-11.9
			c-1.1-8.5-2.6-18-4.5-28.2c-1-5.1-2.1-10.4-3.4-15.8c-1.3-5.4-2.8-11-4.4-16.6c-1.7-5.6-3.5-11.3-5.7-17.1
			c-2.1-5.7-4.6-11.4-7.3-17c-5.6-11.1-12.4-21.9-21.3-30.5c-2.2-2.2-4.5-4.2-6.9-6.1c-1.2-1-2.5-1.8-3.7-2.7
			c-0.5-0.4-1.5-1-2.1-1.4l-2-1.3c-5.4-3.4-11.1-6.3-16.3-7.6c-2.6-0.7-5-0.9-6.8-0.7c-1.8,0.2-2.9,0.7-3.9,1.6
			c-1,0.9-1.9,2.4-2.6,4.6c-0.6,2.2-0.9,4.8-0.9,7.5c0.2,5.5,1.5,11.4,3.7,16.9c2.2,5.5,5.2,10.7,8.9,15.3
			c3.6,4.6,7.8,8.6,12.5,11.7c1.2,0.8,2.3,1.6,3.6,2.3c0.6,0.4,1.2,0.7,1.8,1l0.9,0.5l0.9,0.4l1.1,0.5l0.5,0.2l0.5,0.2
			c0.6,0.3,1.2,0.5,1.9,0.7c1.3,0.5,2.6,0.9,3.9,1.2c5.1,1.4,10,1.7,13.7,0.1c1.8-0.8,3.5-2,4.8-3.6c1.3-1.6,2.4-3.6,3.2-5.7
			c1.5-4.3,2.1-9.1,2.1-13.6c0-4.5-0.6-8.9-1.5-12.9c-0.1-0.5-0.2-0.9-0.4-1.4l-0.2-0.5c-0.1-0.2-0.1-0.4-0.2-0.5
			c-0.4-0.7-0.9-1.5-1.4-2.2c-1.1-1.5-2.4-2.8-3.7-4.1c-2.6-2.5-5.2-4.7-7.6-6.7c-4.8-3.9-8.6-7-10.9-9.4c-1.2-1.2-2-2.2-2.3-3
			c-0.4-0.8-0.2-1.3-0.2-1.3c0,0,0,0.1,0,0.3c0,0.2,0.1,0.5,0.3,0.9c0.4,0.7,1.4,1.6,2.7,2.6c2.6,2,6.7,4.5,12,7.8
			c2.6,1.7,5.5,3.5,8.6,5.9c1.5,1.2,3.1,2.5,4.6,4c0.8,0.8,1.5,1.7,2.2,2.7c0.2,0.3,0.3,0.6,0.5,0.8l0.3,0.5l0.2,0.4l0.3,0.8
			l0.3,0.8c1.6,4.2,2.8,8.9,3.4,14c0.6,5.1,0.7,10.6-0.7,16.5c-0.7,2.9-1.9,5.9-3.8,8.8c-1.9,2.8-4.5,5.5-7.8,7.2
			c-3.3,1.8-6.9,2.7-10.5,3c-3.6,0.3-7,0-10.4-0.6c-1.7-0.3-3.3-0.7-5-1.2c-0.8-0.2-1.6-0.5-2.5-0.7l-0.6-0.2l-0.6-0.2l-1.1-0.4
			l-1.3-0.5l-1.2-0.5c-0.8-0.3-1.6-0.6-2.4-1c-1.6-0.7-3.2-1.5-4.8-2.3c-6.3-3.4-12.1-7.8-17.2-13.2c-5.1-5.4-9.5-11.6-12.8-18.5
			c-1.7-3.5-3.1-7.1-4.2-10.9c-1.1-3.8-1.9-7.8-2.2-12c-0.3-4.2-0.1-8.6,1-13.2c0.6-2.3,1.4-4.7,2.6-7c1.2-2.3,2.8-4.6,4.8-6.6
			c2-2,4.4-3.7,7-4.9c2.6-1.2,5.3-1.9,7.8-2.3c5.2-0.7,9.9-0.1,14.2,0.9c4.3,1.1,8.1,2.6,11.7,4.3c3.6,1.7,7,3.6,10.3,5.6
			c0.8,0.5,1.6,1,2.4,1.6c0.9,0.6,1.4,0.9,2.3,1.6c1.6,1.2,3.2,2.3,4.7,3.5c3.1,2.4,6,5,8.7,7.8c5.4,5.5,10,11.5,14,17.7
			c1,1.5,1.9,3.1,2.9,4.7c0.9,1.6,1.8,3.2,2.6,4.8c1.7,3.2,3.2,6.4,4.6,9.6c2.8,6.4,5.1,12.9,7,19.2c2,6.3,3.4,12.6,4.7,18.8
			c2.5,12.3,3.9,23.9,4.6,34.7c0.7,10.8,0.8,20.6,0.6,29.3c-0.1,4.4-0.3,8.4-0.5,12.2c-0.3,3.8-0.5,7.2-0.8,10.3
			c-0.6,6.2-1.3,11.1-1.8,14.3c-0.2,1.6-0.5,2.9-0.6,3.8C936.5,1088.4,936.5,1088.8,936.5,1088.8z"/>
	</g>
</g>
</svg>
