<?xml version="1.0" encoding="utf-8"?>
<!-- Generator: Adobe Illustrator 21.1.0, SVG Export Plug-In . SVG Version: 6.00 Build 0)  -->
<svg version="1.1"
	 id="svg2" xmlns:cc="http://creativecommons.org/ns#" xmlns:dc="http://purl.org/dc/elements/1.1/" xmlns:rdf="http://www.w3.org/1999/02/22-rdf-syntax-ns#" xmlns:svg="http://www.w3.org/2000/svg"
	 xmlns="http://www.w3.org/2000/svg" xmlns:xlink="http://www.w3.org/1999/xlink" x="0px" y="0px" viewBox="0 0 298.8 211.6"
	 style="enable-background:new 0 0 298.8 211.6;" xml:space="preserve">
<style type="text/css">
	.st0{clip-path:url(#SVGID_2_);}
	.st1{fill:#005FA3;}
	.st2{fill:none;stroke:#FFFFFF;stroke-width:2.561;}
	.st3{fill:#FAA21A;}
</style>
<g id="g10" transform="matrix(1.3333333,0,0,-1.3333333,0,445.33333)">
	<g id="g12">
		<g>
			<defs>
				<rect id="SVGID_1_" x="-39" y="148.1" width="300.7" height="217.6"/>
			</defs>
			<clipPath id="SVGID_2_">
				<use xlink:href="#SVGID_1_"  style="overflow:visible;"/>
			</clipPath>
			<g id="g14" class="st0">
				<g id="g20" transform="translate(382.7412,152.5791)">
					<path id="path22" class="st1" d="M-197.1,97.3c-4-1.3-7-2.4-9-3.1c-1.2-3-2.5-6-4.1-9c-5.8-11.1-13.2-19.4-22.1-24.8
						c-8.9-5.5-18.2-8.2-27.9-8.2c-11.9,0-21.5,3.5-28.8,10.4c-6.6,6.3-10.2,13.9-10.8,22.9c-3.5-2.3-8.5-5.6-14.1-9.5
						c-7.4-5.1-13.3-9.6-16.5-12.1c0.6-1.5,1.3-3,2-4.5c4.6-9.3,12.4-17.2,23.4-23.5c11-6.3,24.6-9.5,40.9-9.5
						c18.7,0,35.4,4,50.3,11.9c14.8,7.9,26.5,19.3,35.2,34c5.2,8.9,8.8,17.9,10.9,27.1c-4.1-4.1-9.7-6.6-15.9-6.6
						C-188.8,92.9-193.4,94.5-197.1,97.3"/>
				</g>
				<g id="g24" transform="translate(382.7412,152.5791)">
					<path id="path26" class="st2" d="M-197.1,97.3c-4-1.3-7-2.4-9-3.1c-1.2-3-2.5-6-4.1-9c-5.8-11.1-13.2-19.4-22.1-24.8
						c-8.9-5.5-18.2-8.2-27.9-8.2c-11.9,0-21.5,3.5-28.8,10.4c-6.6,6.3-10.2,13.9-10.8,22.9c-3.5-2.3-8.5-5.6-14.1-9.5
						c-7.4-5.1-13.3-9.6-16.5-12.1c0.6-1.5,1.3-3,2-4.5c4.6-9.3,12.4-17.2,23.4-23.5c11-6.3,24.6-9.5,40.9-9.5
						c18.7,0,35.4,4,50.3,11.9c14.8,7.9,26.5,19.3,35.2,34c5.2,8.9,8.8,17.9,10.9,27.1c-4.1-4.1-9.7-6.6-15.9-6.6
						C-188.8,92.9-193.4,94.5-197.1,97.3z"/>
				</g>
				<g id="g28" transform="translate(184.9746,193.6045)">
					<path id="path30" class="st1" d="M-96,76.3c2.6,5.9,6,11.5,10.3,16.9c11,14,25.2,21,42.7,21c11.4,0,20.8-3.3,28.2-10
						c5-4.6,8.3-10.3,9.9-17.2c4,6.1,11,10.2,18.9,10.2c5.6,0,10.8-2.1,14.7-5.5c0.6,0.1,1.2,0.2,1.7,0.3
						c-2.7,12.2-8.8,22.4-18.3,30.7c-13.3,11.5-30.7,17.2-52.2,17.2c-16.1,0-30.4-2.8-43-8.4c-12.6-5.6-23-13.2-31.3-22.9
						c-8.3-9.6-14.4-21-18.5-34.1c-3.1-9.8-4.6-19.1-4.6-27.9c0-0.8,0-1.5,0.1-2.3c2.8,2.6,8.4,7.5,18.4,15.3
						C-107,69.1-99.3,74.2-96,76.3"/>
				</g>
				<g id="g32" transform="translate(184.9746,193.6045)">
					<path id="path34" class="st2" d="M-96,76.3c2.6,5.9,6,11.5,10.3,16.9c11,14,25.2,21,42.7,21c11.4,0,20.8-3.3,28.2-10
						c5-4.6,8.3-10.3,9.9-17.2c4,6.1,11,10.2,18.9,10.2c5.6,0,10.8-2.1,14.7-5.5c0.6,0.1,1.2,0.2,1.7,0.3
						c-2.7,12.2-8.8,22.4-18.3,30.7c-13.3,11.5-30.7,17.2-52.2,17.2c-16.1,0-30.4-2.8-43-8.4c-12.6-5.6-23-13.2-31.3-22.9
						c-8.3-9.6-14.4-21-18.5-34.1c-3.1-9.8-4.6-19.1-4.6-27.9c0-0.8,0-1.5,0.1-2.3c2.8,2.6,8.4,7.5,18.4,15.3
						C-107,69.1-99.3,74.2-96,76.3z"/>
				</g>
				<g id="g36" transform="translate(370.3691,166.1123)">
					<path id="path38" class="st3" d="M-190.8,90.4c-2,3.4-3.3,7.4-3.3,11.7c0,0.6,0,1.2,0.1,1.9c-1.2-0.3-2.4-0.7-3.6-1
						c-16-4.6-27.9-9.1-34.3-12.4c5.3,25.7,21.7,42.1,21.7,42.1s-31.1-9.1-69.8-34.1c-1.5-1-3-2-4.6-3
						c-12.2-8.2-25.1-17.9-37.9-29.3c-0.7-0.6-1.3-1.2-2-1.8c-15.1-13.8-30.1-30-43.8-49c17.5,14.7,32.8,27.1,46.5,37.5
						c0.7,0.5,1.4,1.1,2.1,1.6c11.8,9,22.3,16.5,32.1,22.7c2,1.3,4,2.6,6,3.8c11.9,7.2,22.6,12.5,33,16.3
						c-8.2-9.6-20.5-46.5-20.5-46.5s25.1,16.7,71.4,33.6c1.8,0.7,3.7,1.3,5.6,2c1.1,0.4,2.2,0.8,3.3,1.2
						C-189.4,88.2-190.1,89.3-190.8,90.4"/>
				</g>
				<g id="g40" transform="translate(370.3691,166.1123)">
					<path id="path42" class="st2" d="M-190.8,90.4c-2,3.4-3.3,7.4-3.3,11.7c0,0.6,0,1.2,0.1,1.9c-1.2-0.3-2.4-0.7-3.6-1
						c-16-4.6-27.9-9.1-34.3-12.4c5.3,25.7,21.7,42.1,21.7,42.1s-31.1-9.1-69.8-34.1c-1.5-1-3-2-4.6-3
						c-12.2-8.2-25.1-17.9-37.9-29.3c-0.7-0.6-1.3-1.2-2-1.8c-15.1-13.8-30.1-30-43.8-49c17.5,14.7,32.8,27.1,46.5,37.5
						c0.7,0.5,1.4,1.1,2.1,1.6c11.8,9,22.3,16.5,32.1,22.7c2,1.3,4,2.6,6,3.8c11.9,7.2,22.6,12.5,33,16.3
						c-8.2-9.6-20.5-46.5-20.5-46.5s25.1,16.7,71.4,33.6c1.8,0.7,3.7,1.3,5.6,2c1.1,0.4,2.2,0.8,3.3,1.2
						C-189.4,88.2-190.1,89.3-190.8,90.4z"/>
				</g>
				<g id="g44" transform="translate(410.0459,227.2188)">
					<path id="path46" class="st3" d="M-211.1,59.1c-10.1,0-18.2-8.2-18.2-18.2c0-10.1,8.2-18.2,18.2-18.2
						c10.1,0,18.2,8.2,18.2,18.2C-192.9,51-201,59.1-211.1,59.1"/>
				</g>
				<g id="g48" transform="translate(410.0459,227.2188)">
					<path id="path50" class="st2" d="M-211.1,59.1c-10.1,0-18.2-8.2-18.2-18.2c0-10.1,8.2-18.2,18.2-18.2
						c10.1,0,18.2,8.2,18.2,18.2C-192.9,51-201,59.1-211.1,59.1z"/>
				</g>
			</g>
		</g>
	</g>
</g>
</svg>
