<?xml version="1.0" encoding="utf-8"?>
<!-- Generator: Adobe Illustrator 21.1.0, SVG Export Plug-In . SVG Version: 6.00 Build 0)  -->
<svg version="1.1"
	 id="svg2" xmlns:cc="http://creativecommons.org/ns#" xmlns:dc="http://purl.org/dc/elements/1.1/" xmlns:rdf="http://www.w3.org/1999/02/22-rdf-syntax-ns#" xmlns:svg="http://www.w3.org/2000/svg"
	 xmlns="http://www.w3.org/2000/svg" xmlns:xlink="http://www.w3.org/1999/xlink" x="0px" y="0px" viewBox="0 0 298.8 216.3"
	 style="enable-background:new 0 0 298.8 216.3;" xml:space="preserve">
<style type="text/css">
	.st0{clip-path:url(#SVGID_2_);}
	.st1{fill:#231F20;}
	.st2{fill:none;stroke:#FFFFFF;stroke-width:2.561;}
</style>
<g id="g10" transform="matrix(1.3333333,0,0,-1.3333333,0,445.33333)">
	<g id="g12">
		<g>
			<defs>
				<rect id="SVGID_1_" x="-37" y="146.5" width="296.1" height="214.3"/>
			</defs>
			<clipPath id="SVGID_2_">
				<use xlink:href="#SVGID_1_"  style="overflow:visible;"/>
			</clipPath>
			<g id="g14" class="st0">
				<g id="g20" transform="translate(382.7412,152.5791)">
					<path id="path22" class="st1" d="M-198.6,94.1c-4-1.3-6.9-2.3-8.9-3.1c-1.1-2.9-2.5-5.9-4-8.9c-5.7-10.9-13-19.1-21.8-24.5
						c-8.8-5.4-17.9-8.1-27.4-8.1c-11.7,0-21.1,3.4-28.3,10.2c-6.5,6.2-10,13.7-10.6,22.6c-3.5-2.3-8.4-5.5-13.9-9.4
						c-7.2-5-13.1-9.5-16.3-11.9c0.6-1.5,1.2-2.9,2-4.4c4.5-9.2,12.2-16.9,23-23.1c10.8-6.2,24.3-9.3,40.2-9.3
						c18.4,0,34.9,3.9,49.5,11.7c14.6,7.8,26.1,19,34.6,33.5c5.1,8.7,8.7,17.6,10.7,26.7c-4-4-9.6-6.5-15.7-6.5
						C-190.4,89.8-194.9,91.4-198.6,94.1"/>
				</g>
				<g id="g24" transform="translate(382.7412,152.5791)">
					<path id="path26" class="st2" d="M-198.6,94.1c-4-1.3-6.9-2.3-8.9-3.1c-1.1-2.9-2.5-5.9-4-8.9c-5.7-10.9-13-19.1-21.8-24.5
						c-8.8-5.4-17.9-8.1-27.4-8.1c-11.7,0-21.1,3.4-28.3,10.2c-6.5,6.2-10,13.7-10.6,22.6c-3.5-2.3-8.4-5.5-13.9-9.4
						c-7.2-5-13.1-9.5-16.3-11.9c0.6-1.5,1.2-2.9,2-4.4c4.5-9.2,12.2-16.9,23-23.1c10.8-6.2,24.3-9.3,40.2-9.3
						c18.4,0,34.9,3.9,49.5,11.7c14.6,7.8,26.1,19,34.6,33.5c5.1,8.7,8.7,17.6,10.7,26.7c-4-4-9.6-6.5-15.7-6.5
						C-190.4,89.8-194.9,91.4-198.6,94.1z"/>
				</g>
				<g id="g28" transform="translate(184.9746,193.6045)">
					<path id="path30" class="st1" d="M-96,72.8c2.6,5.8,5.9,11.3,10.1,16.7c10.8,13.8,24.8,20.7,42.1,20.7
						c11.2,0,20.5-3.3,27.7-9.9c4.9-4.5,8.2-10.2,9.7-17c4,6.1,10.8,10.1,18.6,10.1c5.5,0,10.6-2,14.5-5.4c0.6,0.1,1.2,0.2,1.7,0.3
						c-2.6,12-8.6,22.1-18.1,30.2c-13.1,11.3-30.2,16.9-51.4,16.9c-15.8,0-30-2.8-42.4-8.3c-12.4-5.5-22.7-13-30.8-22.5
						c-8.2-9.5-14.2-20.7-18.2-33.6c-3-9.6-4.6-18.8-4.6-27.5c0-0.7,0-1.5,0.1-2.2c2.8,2.6,8.2,7.4,18.1,15.1
						C-106.9,65.7-99.3,70.7-96,72.8"/>
				</g>
				<g id="g32" transform="translate(184.9746,193.6045)">
					<path id="path34" class="st2" d="M-96,72.8c2.6,5.8,5.9,11.3,10.1,16.7c10.8,13.8,24.8,20.7,42.1,20.7
						c11.2,0,20.5-3.3,27.7-9.9c4.9-4.5,8.2-10.2,9.7-17c4,6.1,10.8,10.1,18.6,10.1c5.5,0,10.6-2,14.5-5.4c0.6,0.1,1.2,0.2,1.7,0.3
						c-2.6,12-8.6,22.1-18.1,30.2c-13.1,11.3-30.2,16.9-51.4,16.9c-15.8,0-30-2.8-42.4-8.3c-12.4-5.5-22.7-13-30.8-22.5
						c-8.2-9.5-14.2-20.7-18.2-33.6c-3-9.6-4.6-18.8-4.6-27.5c0-0.7,0-1.5,0.1-2.2c2.8,2.6,8.2,7.4,18.1,15.1
						C-106.9,65.7-99.3,70.7-96,72.8z"/>
				</g>
				<g id="g36" transform="translate(370.3691,166.1123)">
					<path id="path38" class="st1" d="M-192.2,87.1c-2,3.4-3.2,7.3-3.2,11.5c0,0.6,0,1.2,0.1,1.8c-1.2-0.3-2.4-0.7-3.5-1
						c-15.7-4.5-27.5-8.9-33.7-12.2c5.3,25.3,21.3,41.4,21.3,41.4s-30.6-9-68.7-33.6c-1.5-1-3-1.9-4.5-3c-12-8-24.7-17.6-37.3-28.9
						c-0.6-0.6-1.3-1.2-1.9-1.8c-14.9-13.6-29.6-29.5-43.1-48.3c17.3,14.4,32.3,26.6,45.8,36.9c0.7,0.5,1.4,1,2,1.6
						c11.6,8.8,22,16.2,31.6,22.3c2,1.3,4,2.5,5.9,3.7c11.7,7.1,22.2,12.3,32.5,16c-8.1-9.5-20.2-45.8-20.2-45.8
						s24.7,16.5,70.3,33.1c1.8,0.7,3.7,1.3,5.5,2c1.1,0.4,2.2,0.8,3.3,1.1C-190.8,85-191.5,86-192.2,87.1"/>
				</g>
				<g id="g40" transform="translate(370.3691,166.1123)">
					<path id="path42" class="st2" d="M-192.2,87.1c-2,3.4-3.2,7.3-3.2,11.5c0,0.6,0,1.2,0.1,1.8c-1.2-0.3-2.4-0.7-3.5-1
						c-15.7-4.5-27.5-8.9-33.7-12.2c5.3,25.3,21.3,41.4,21.3,41.4s-30.6-9-68.7-33.6c-1.5-1-3-1.9-4.5-3c-12-8-24.7-17.6-37.3-28.9
						c-0.6-0.6-1.3-1.2-1.9-1.8c-14.9-13.6-29.6-29.5-43.1-48.3c17.3,14.4,32.3,26.6,45.8,36.9c0.7,0.5,1.4,1,2,1.6
						c11.6,8.8,22,16.2,31.6,22.3c2,1.3,4,2.5,5.9,3.7c11.7,7.1,22.2,12.3,32.5,16c-8.1-9.5-20.2-45.8-20.2-45.8
						s24.7,16.5,70.3,33.1c1.8,0.7,3.7,1.3,5.5,2c1.1,0.4,2.2,0.8,3.3,1.1C-190.8,85-191.5,86-192.2,87.1z"/>
				</g>
				<g id="g44" transform="translate(410.0459,227.2187)">
					<path id="path46" class="st1" d="M-212.7,55.4c-9.9,0-17.9-8-17.9-17.9c0-9.9,8-17.9,17.9-17.9c9.9,0,17.9,8,17.9,17.9
						C-194.8,47.4-202.8,55.4-212.7,55.4"/>
				</g>
				<g id="g48" transform="translate(410.0459,227.2187)">
					<path id="path50" class="st2" d="M-212.7,55.4c-9.9,0-17.9-8-17.9-17.9c0-9.9,8-17.9,17.9-17.9c9.9,0,17.9,8,17.9,17.9
						C-194.8,47.4-202.8,55.4-212.7,55.4z"/>
				</g>
			</g>
		</g>
	</g>
</g>
</svg>
